<svg xmlns="http://www.w3.org/2000/svg" xmlns:xlink="http://www.w3.org/1999/xlink" width="500" zoomAndPan="magnify" viewBox="0 0 375 374.999991" height="500" preserveAspectRatio="xMidYMid meet" version="1.0"><defs><g/><clipPath id="c47b2494e1"><path d="M 0.160156 15 L 119 15 L 119 107 L 0.160156 107 Z M 0.160156 15 " clip-rule="nonzero"/></clipPath><clipPath id="2cd9aa4810"><path d="M 124 56 L 235.839844 56 L 235.839844 122 L 124 122 Z M 124 56 " clip-rule="nonzero"/></clipPath><clipPath id="76f776da3d"><rect x="0" width="236" y="0" height="134"/></clipPath></defs><g transform="matrix(1, 0, 0, 1, 44, 226)"><g clip-path="url(#76f776da3d)"><g clip-path="url(#c47b2494e1)"><g fill="#4c0303" fill-opacity="1"><g transform="translate(3.879439, 89.157008)"><g><path d="M 114.515625 -72.109375 C 114.429688 -71.816406 114.09375 -71.671875 113.5 -71.671875 C 112.90625 -71.671875 112.019531 -71.519531 110.84375 -71.21875 C 108.976562 -70.769531 106.929688 -69.878906 104.703125 -68.546875 C 102.484375 -67.210938 100.707031 -65.914062 99.375 -64.65625 C 103.082031 -61.46875 105.710938 -57.757812 107.265625 -53.53125 C 108.828125 -49.300781 109.609375 -45.21875 109.609375 -41.28125 C 109.609375 -36.457031 108.695312 -31.929688 106.875 -27.703125 C 105.0625 -23.472656 102.742188 -19.707031 99.921875 -16.40625 C 97.109375 -13.113281 94.179688 -10.316406 91.140625 -8.015625 C 86.835938 -4.828125 81.382812 -2.191406 74.78125 -0.109375 C 68.175781 1.960938 60.382812 2.960938 51.40625 2.890625 C 46.507812 2.816406 41.722656 2.5 37.046875 1.9375 C 32.378906 1.382812 27.984375 0.773438 23.859375 0.109375 C 19.742188 -0.554688 16.09375 -1.035156 12.90625 -1.328125 C 14.988281 3.929688 18.269531 8.082031 22.75 11.125 C 27.238281 14.164062 33.15625 15.6875 40.5 15.6875 C 43.988281 15.6875 46.972656 15.28125 49.453125 14.46875 C 51.941406 13.65625 53.78125 12.835938 54.96875 12.015625 C 55.488281 11.722656 55.914062 11.445312 56.25 11.1875 C 56.582031 10.925781 56.863281 10.867188 57.09375 11.015625 C 57.382812 11.316406 57.378906 11.632812 57.078125 11.96875 C 56.785156 12.300781 56.453125 12.578125 56.078125 12.796875 C 54.816406 13.765625 52.773438 14.710938 49.953125 15.640625 C 47.140625 16.566406 43.84375 17.03125 40.0625 17.03125 C 32.414062 17.03125 26.238281 15.429688 21.53125 12.234375 C 16.820312 9.046875 13.28125 4.632812 10.90625 -1 C 10.238281 -0.925781 8.992188 -0.519531 7.171875 0.21875 C 5.359375 0.957031 3.265625 1.328125 0.890625 1.328125 C -0.148438 1.328125 -1.039062 1.175781 -1.78125 0.875 C -2.519531 0.582031 -2.890625 0.101562 -2.890625 -0.5625 C -2.890625 -1.519531 -2.441406 -2.238281 -1.546875 -2.71875 C -0.660156 -3.207031 0.425781 -3.5625 1.71875 -3.78125 C 3.019531 -4.007812 4.265625 -4.125 5.453125 -4.125 C 6.335938 -4.125 7.207031 -4.082031 8.0625 -4 C 8.914062 -3.925781 9.601562 -3.816406 10.125 -3.671875 C 9.675781 -5.378906 9.300781 -7.195312 9 -9.125 C 8.707031 -11.050781 8.5625 -13.203125 8.5625 -15.578125 C 8.5625 -24.035156 10.378906 -31.84375 14.015625 -39 C 17.648438 -46.164062 22.769531 -52.453125 29.375 -57.859375 C 34.863281 -62.316406 41.1875 -65.988281 48.34375 -68.875 C 55.507812 -71.769531 63.242188 -73.21875 71.546875 -73.21875 C 78.222656 -73.21875 83.566406 -72.515625 87.578125 -71.109375 C 91.585938 -69.703125 94.925781 -68.03125 97.59375 -66.09375 C 98.925781 -67.132812 100.816406 -68.320312 103.265625 -69.65625 C 105.710938 -71 107.976562 -71.890625 110.0625 -72.328125 C 111.09375 -72.554688 112.109375 -72.671875 113.109375 -72.671875 C 114.117188 -72.671875 114.585938 -72.484375 114.515625 -72.109375 Z M 96.265625 -65.09375 C 94.109375 -66.800781 91.210938 -68.265625 87.578125 -69.484375 C 83.941406 -70.710938 79.34375 -71.328125 73.78125 -71.328125 C 68.144531 -71.328125 62.75 -70.53125 57.59375 -68.9375 C 52.4375 -67.34375 47.6875 -65.320312 43.34375 -62.875 C 39 -60.425781 35.234375 -57.867188 32.046875 -55.203125 C 25.816406 -50.003906 20.695312 -44.03125 16.6875 -37.28125 C 12.6875 -30.53125 10.6875 -23.296875 10.6875 -15.578125 C 10.6875 -13.273438 10.773438 -11.125 10.953125 -9.125 C 11.140625 -7.125 11.53125 -5.234375 12.125 -3.453125 C 17.914062 -3.304688 23.425781 -4.234375 28.65625 -6.234375 C 33.882812 -8.234375 39.242188 -11.457031 44.734375 -15.90625 C 50.222656 -20.363281 56.195312 -26.113281 62.65625 -33.15625 C 68.21875 -39.09375 73.851562 -44.9375 79.5625 -50.6875 C 85.28125 -56.4375 90.847656 -61.238281 96.265625 -65.09375 Z M 88.578125 -12.6875 C 91.328125 -15.28125 93.960938 -18.265625 96.484375 -21.640625 C 99.003906 -25.015625 101.078125 -28.722656 102.703125 -32.765625 C 104.335938 -36.816406 105.15625 -41.101562 105.15625 -45.625 C 105.15625 -49.632812 104.488281 -53.175781 103.15625 -56.25 C 101.820312 -59.332031 100.113281 -61.800781 98.03125 -63.65625 C 94.476562 -60.382812 91.015625 -56.835938 87.640625 -53.015625 C 84.265625 -49.203125 81.109375 -45.476562 78.171875 -41.84375 C 75.242188 -38.207031 72.59375 -35.015625 70.21875 -32.265625 C 64.800781 -26.179688 59.695312 -21.226562 54.90625 -17.40625 C 50.125 -13.59375 45.617188 -10.644531 41.390625 -8.5625 C 37.160156 -6.488281 33.15625 -5.003906 29.375 -4.109375 C 25.59375 -3.222656 22.03125 -2.671875 18.6875 -2.453125 C 21.4375 -1.929688 24.679688 -1.390625 28.421875 -0.828125 C 32.171875 -0.273438 36.085938 0.164062 40.171875 0.5 C 44.253906 0.832031 48.035156 1 51.515625 1 C 58.191406 1 63.921875 0.222656 68.703125 -1.328125 C 73.492188 -2.890625 77.519531 -4.726562 80.78125 -6.84375 C 84.050781 -8.957031 86.648438 -10.90625 88.578125 -12.6875 Z M 88.578125 -12.6875 "/></g></g></g></g><g fill="#4c0303" fill-opacity="1"><g transform="translate(110.151317, 89.157008)"><g><path d="M 33.390625 -41.515625 C 33.390625 -40.691406 33.070312 -39.960938 32.4375 -39.328125 C 31.8125 -38.703125 31.085938 -38.390625 30.265625 -38.390625 C 29.453125 -38.390625 28.710938 -38.703125 28.046875 -39.328125 C 27.378906 -39.960938 27.046875 -40.691406 27.046875 -41.515625 C 27.046875 -42.328125 27.378906 -43.046875 28.046875 -43.671875 C 28.710938 -44.304688 29.453125 -44.625 30.265625 -44.625 C 31.085938 -44.625 31.8125 -44.304688 32.4375 -43.671875 C 33.070312 -43.046875 33.390625 -42.328125 33.390625 -41.515625 Z M 25.703125 -32.265625 C 22.515625 -29.378906 19.398438 -26.46875 16.359375 -23.53125 C 13.316406 -20.601562 10.585938 -17.878906 8.171875 -15.359375 C 5.765625 -12.835938 3.894531 -10.796875 2.5625 -9.234375 C 1.226562 -7.597656 0.15625 -6.164062 -0.65625 -4.9375 C -1.476562 -3.71875 -1.890625 -2.703125 -1.890625 -1.890625 C -1.890625 -1.148438 -1.484375 -0.78125 -0.671875 -0.78125 C 0.148438 -0.78125 1.15625 -1.078125 2.34375 -1.671875 C 3.53125 -2.265625 4.769531 -2.96875 6.0625 -3.78125 C 7.363281 -4.59375 8.457031 -5.335938 9.34375 -6.015625 C 10.601562 -6.972656 11.972656 -8.0625 13.453125 -9.28125 C 14.941406 -10.507812 16.351562 -11.679688 17.6875 -12.796875 C 19.03125 -13.910156 20.070312 -14.800781 20.8125 -15.46875 C 21.550781 -16.207031 22.109375 -16.351562 22.484375 -15.90625 C 22.773438 -15.613281 22.625 -15.207031 22.03125 -14.6875 C 21.144531 -13.875 19.941406 -12.816406 18.421875 -11.515625 C 16.898438 -10.210938 15.394531 -8.945312 13.90625 -7.71875 C 12.425781 -6.5 11.238281 -5.554688 10.34375 -4.890625 C 8.5625 -3.554688 6.539062 -2.238281 4.28125 -0.9375 C 2.019531 0.351562 -0.0351562 1 -1.890625 1 C -4.484375 1 -5.78125 -0.1875 -5.78125 -2.5625 C -5.78125 -4.269531 -5.035156 -6.347656 -3.546875 -8.796875 C -2.066406 -11.242188 -0.0664062 -13.800781 2.453125 -16.46875 C 3.929688 -17.945312 5.726562 -19.6875 7.84375 -21.6875 C 9.957031 -23.695312 12.070312 -25.570312 14.1875 -27.3125 C 16.300781 -29.0625 18.097656 -30.34375 19.578125 -31.15625 C 20.398438 -31.601562 21.441406 -31.921875 22.703125 -32.109375 C 23.960938 -32.296875 24.960938 -32.347656 25.703125 -32.265625 Z M 25.703125 -32.265625 "/></g></g></g><g fill="#4c0303" fill-opacity="1"><g transform="translate(129.068824, 89.157008)"><g><path d="M 42.734375 -31.828125 C 39.546875 -28.929688 36.46875 -26.035156 33.5 -23.140625 C 30.53125 -20.253906 27.894531 -17.601562 25.59375 -15.1875 C 23.289062 -12.78125 21.472656 -10.796875 20.140625 -9.234375 C 18.734375 -7.597656 17.601562 -6.164062 16.75 -4.9375 C 15.894531 -3.71875 15.46875 -2.738281 15.46875 -2 C 15.46875 -1.332031 15.835938 -1 16.578125 -1 C 17.316406 -1 18.296875 -1.347656 19.515625 -2.046875 C 20.742188 -2.753906 22.023438 -3.570312 23.359375 -4.5 C 24.703125 -5.425781 25.851562 -6.265625 26.8125 -7.015625 C 28.59375 -8.421875 30.429688 -9.957031 32.328125 -11.625 C 34.222656 -13.289062 35.835938 -14.71875 37.171875 -15.90625 C 37.390625 -16.0625 37.644531 -16.210938 37.9375 -16.359375 C 38.238281 -16.503906 38.5 -16.429688 38.71875 -16.140625 C 39.019531 -15.835938 38.835938 -15.390625 38.171875 -14.796875 C 36.535156 -13.242188 34.753906 -11.648438 32.828125 -10.015625 C 30.898438 -8.378906 29.226562 -7.003906 27.8125 -5.890625 C 26.707031 -5.003906 25.429688 -4.039062 23.984375 -3 C 22.535156 -1.96875 21.085938 -1.078125 19.640625 -0.328125 C 18.191406 0.410156 16.910156 0.78125 15.796875 0.78125 C 13.203125 0.78125 11.90625 -0.476562 11.90625 -3 C 11.90625 -3.820312 12.144531 -4.828125 12.625 -6.015625 C 13.113281 -7.203125 13.953125 -8.5 15.140625 -9.90625 C 11.941406 -7.007812 8.75 -4.503906 5.5625 -2.390625 C 2.375 -0.273438 -0.109375 0.78125 -1.890625 0.78125 C -4.410156 0.78125 -5.671875 -0.441406 -5.671875 -2.890625 C -5.742188 -4.890625 -4.945312 -7.351562 -3.28125 -10.28125 C -1.613281 -13.21875 0.476562 -15.945312 3 -18.46875 C 5.519531 -21.070312 8.394531 -23.46875 11.625 -25.65625 C 14.851562 -27.84375 18.023438 -29.601562 21.140625 -30.9375 C 24.253906 -32.269531 26.851562 -32.9375 28.9375 -32.9375 C 29.96875 -32.9375 30.816406 -32.769531 31.484375 -32.4375 C 32.160156 -32.101562 32.5 -31.453125 32.5 -30.484375 C 32.5 -29.890625 32.273438 -29.128906 31.828125 -28.203125 C 31.378906 -27.273438 30.523438 -26.179688 29.265625 -24.921875 C 29.191406 -24.847656 29.171875 -24.789062 29.203125 -24.75 C 29.242188 -24.71875 29.300781 -24.738281 29.375 -24.8125 C 31.082031 -26.519531 32.789062 -27.96875 34.5 -29.15625 C 36.207031 -30.34375 37.503906 -31.082031 38.390625 -31.375 C 38.984375 -31.601562 39.554688 -31.734375 40.109375 -31.765625 C 40.671875 -31.804688 41.25 -31.828125 41.84375 -31.828125 Z M 30.9375 -30.046875 C 30.9375 -30.859375 30.488281 -31.265625 29.59375 -31.265625 C 28.039062 -31.265625 25.390625 -29.945312 21.640625 -27.3125 C 17.898438 -24.6875 13.394531 -20.847656 8.125 -15.796875 C 5.375 -13.054688 2.976562 -10.382812 0.9375 -7.78125 C -1.09375 -5.1875 -2.109375 -3.257812 -2.109375 -2 C -2.109375 -1.707031 -2.050781 -1.445312 -1.9375 -1.21875 C -1.832031 -1 -1.519531 -0.890625 -1 -0.890625 C -0.0390625 -0.890625 1.515625 -1.554688 3.671875 -2.890625 C 5.828125 -4.222656 8.332031 -6.078125 11.1875 -8.453125 C 14.039062 -10.828125 16.914062 -13.5 19.8125 -16.46875 C 21.144531 -17.800781 22.679688 -19.335938 24.421875 -21.078125 C 26.171875 -22.828125 27.691406 -24.535156 28.984375 -26.203125 C 30.285156 -27.867188 30.9375 -29.148438 30.9375 -30.046875 Z M 30.9375 -30.046875 "/></g></g></g><g fill="#4c0303" fill-opacity="1"><g transform="translate(164.010578, 89.157008)"><g><path d="M 18.03125 -3.671875 C 16.175781 -2.410156 14.429688 -1.351562 12.796875 -0.5 C 11.160156 0.351562 9.710938 0.78125 8.453125 0.78125 C 5.859375 0.78125 4.5625 -0.554688 4.5625 -3.234375 C 4.5625 -5.523438 5.582031 -8.003906 7.625 -10.671875 C 9.664062 -13.347656 12.425781 -16.207031 15.90625 -19.25 C 17.320312 -20.507812 18.789062 -21.828125 20.3125 -23.203125 C 21.832031 -24.578125 23.128906 -25.800781 24.203125 -26.875 C 25.273438 -27.945312 25.773438 -28.671875 25.703125 -29.046875 C 25.628906 -29.492188 25.40625 -29.789062 25.03125 -29.9375 C 24.664062 -30.082031 24.070312 -30.34375 23.25 -30.71875 C 22.289062 -31.238281 21.625 -31.71875 21.25 -32.15625 C 20.0625 -30.820312 18.765625 -29.445312 17.359375 -28.03125 C 15.953125 -26.625 14.503906 -25.179688 13.015625 -23.703125 C 11.015625 -21.847656 8.828125 -19.828125 6.453125 -17.640625 C 4.078125 -15.453125 2.113281 -13.726562 0.5625 -12.46875 C 0.332031 -12.238281 0.0703125 -12.085938 -0.21875 -12.015625 C -0.519531 -11.941406 -0.742188 -12.015625 -0.890625 -12.234375 C -1.035156 -12.460938 -1.035156 -12.707031 -0.890625 -12.96875 C -0.742188 -13.226562 -0.554688 -13.429688 -0.328125 -13.578125 C 1.453125 -15.128906 3.453125 -16.90625 5.671875 -18.90625 C 7.898438 -20.914062 9.976562 -22.847656 11.90625 -24.703125 C 13.757812 -26.410156 15.390625 -27.988281 16.796875 -29.4375 C 18.210938 -30.882812 19.515625 -32.3125 20.703125 -33.71875 C 20.703125 -34.53125 21.109375 -35.492188 21.921875 -36.609375 C 22.734375 -37.722656 23.769531 -38.765625 25.03125 -39.734375 C 26.070312 -40.472656 27.035156 -41.046875 27.921875 -41.453125 C 28.816406 -41.859375 29.5625 -42.097656 30.15625 -42.171875 C 30.375 -42.242188 30.757812 -42.316406 31.3125 -42.390625 C 31.875 -42.472656 32.414062 -42.515625 32.9375 -42.515625 C 34.050781 -42.515625 34.609375 -42.363281 34.609375 -42.0625 C 34.609375 -41.84375 34.144531 -41.398438 33.21875 -40.734375 C 32.289062 -40.066406 31.269531 -39.414062 30.15625 -38.78125 C 29.039062 -38.144531 28.222656 -37.679688 27.703125 -37.390625 C 26.515625 -36.648438 25.398438 -35.90625 24.359375 -35.15625 C 23.328125 -34.414062 22.8125 -33.75 22.8125 -33.15625 C 22.8125 -32.863281 23.179688 -32.550781 23.921875 -32.21875 C 24.660156 -31.882812 25.21875 -31.644531 25.59375 -31.5 C 27.664062 -30.820312 28.703125 -29.78125 28.703125 -28.375 C 28.703125 -26.894531 28.144531 -25.316406 27.03125 -23.640625 C 25.925781 -21.972656 24.59375 -20.34375 23.03125 -18.75 C 21.476562 -17.15625 20.070312 -15.765625 18.8125 -14.578125 C 16.726562 -12.648438 14.90625 -10.941406 13.34375 -9.453125 C 11.789062 -7.972656 10.492188 -6.601562 9.453125 -5.34375 C 8.265625 -3.9375 7.671875 -2.820312 7.671875 -2 C 7.671875 -1.257812 8.117188 -0.890625 9.015625 -0.890625 C 10.054688 -0.890625 11.484375 -1.425781 13.296875 -2.5 C 15.117188 -3.582031 16.625 -4.53125 17.8125 -5.34375 C 19.738281 -6.75 21.8125 -8.394531 24.03125 -10.28125 C 26.257812 -12.175781 28.113281 -13.71875 29.59375 -14.90625 C 29.820312 -15.132812 30.082031 -15.320312 30.375 -15.46875 C 30.675781 -15.613281 30.9375 -15.578125 31.15625 -15.359375 C 31.457031 -15.054688 31.457031 -14.738281 31.15625 -14.40625 C 30.863281 -14.070312 30.566406 -13.796875 30.265625 -13.578125 C 28.554688 -12.085938 26.609375 -10.429688 24.421875 -8.609375 C 22.234375 -6.796875 20.101562 -5.148438 18.03125 -3.671875 Z M 18.03125 -3.671875 "/></g></g></g><g clip-path="url(#2cd9aa4810)"><g fill="#4c0303" fill-opacity="1"><g transform="translate(192.275548, 89.157008)"><g><path d="M 42.734375 -32.5 C 39.691406 -29.675781 36.519531 -26.578125 33.21875 -23.203125 C 29.914062 -19.828125 26.300781 -15.875 22.375 -11.34375 C 18.8125 -7.269531 14.671875 -2.769531 9.953125 2.15625 C 5.242188 7.09375 0.332031 11.566406 -4.78125 15.578125 C -11.832031 20.992188 -18.914062 25.070312 -26.03125 27.8125 C -33.15625 30.5625 -39.796875 31.9375 -45.953125 31.9375 C -49.441406 31.9375 -52.742188 31.414062 -55.859375 30.375 C -58.972656 29.34375 -61.566406 27.84375 -63.640625 25.875 C -65.722656 23.90625 -67.0625 21.507812 -67.65625 18.6875 C -68.03125 16.914062 -67.847656 15.953125 -67.109375 15.796875 C -66.804688 15.648438 -66.597656 15.800781 -66.484375 16.25 C -66.378906 16.695312 -66.289062 17.140625 -66.21875 17.578125 C -65.695312 20.253906 -64.429688 22.519531 -62.421875 24.375 C -60.421875 26.226562 -57.992188 27.632812 -55.140625 28.59375 C -52.285156 29.5625 -49.375 30.046875 -46.40625 30.046875 C -41.875 30.046875 -37.457031 29.285156 -33.15625 27.765625 C -28.851562 26.242188 -24.71875 24.257812 -20.75 21.8125 C -16.78125 19.363281 -13.164062 16.84375 -9.90625 14.25 C -7.675781 12.46875 -5.300781 10.441406 -2.78125 8.171875 C -0.257812 5.910156 2.222656 3.59375 4.671875 1.21875 C 7.117188 -1.15625 9.34375 -3.378906 11.34375 -5.453125 C 13.351562 -7.523438 14.953125 -9.269531 16.140625 -10.6875 C 16.285156 -10.832031 16.320312 -10.941406 16.25 -11.015625 C 16.175781 -11.085938 16.0625 -11.050781 15.90625 -10.90625 C 14.800781 -9.9375 13.578125 -8.859375 12.234375 -7.671875 C 10.898438 -6.484375 10.007812 -5.707031 9.5625 -5.34375 C 7.632812 -3.851562 5.59375 -2.457031 3.4375 -1.15625 C 1.289062 0.132812 -0.519531 0.78125 -2 0.78125 C -3.414062 0.78125 -4.398438 0.46875 -4.953125 -0.15625 C -5.503906 -0.789062 -5.78125 -1.59375 -5.78125 -2.5625 C -5.78125 -4.414062 -5.035156 -6.546875 -3.546875 -8.953125 C -2.066406 -11.367188 -0.0664062 -13.945312 2.453125 -16.6875 C 3.929688 -18.25 5.707031 -19.9375 7.78125 -21.75 C 9.863281 -23.570312 11.960938 -25.28125 14.078125 -26.875 C 16.191406 -28.46875 17.988281 -29.671875 19.46875 -30.484375 C 20.289062 -31.003906 21.460938 -31.375 22.984375 -31.59375 C 24.503906 -31.820312 25.632812 -31.898438 26.375 -31.828125 C 23.113281 -29.148438 19.90625 -26.382812 16.75 -23.53125 C 13.59375 -20.675781 10.804688 -18.003906 8.390625 -15.515625 C 5.984375 -13.035156 4.113281 -10.976562 2.78125 -9.34375 C 1.445312 -7.71875 0.316406 -6.253906 -0.609375 -4.953125 C -1.535156 -3.648438 -2 -2.664062 -2 -2 C -2 -1.332031 -1.664062 -1 -1 -1 C 0.0390625 -1 1.523438 -1.628906 3.453125 -2.890625 C 5.378906 -4.148438 7.160156 -5.375 8.796875 -6.5625 C 9.753906 -7.300781 10.972656 -8.335938 12.453125 -9.671875 C 13.941406 -11.015625 15.484375 -12.425781 17.078125 -13.90625 C 18.671875 -15.394531 20.0625 -16.695312 21.25 -17.8125 C 22.8125 -19.363281 24.5 -21.007812 26.3125 -22.75 C 28.132812 -24.5 29.953125 -26.148438 31.765625 -27.703125 C 33.585938 -29.265625 35.238281 -30.488281 36.71875 -31.375 C 37.3125 -31.75 38.273438 -32.046875 39.609375 -32.265625 C 40.953125 -32.492188 41.992188 -32.570312 42.734375 -32.5 Z M 42.734375 -32.5 "/></g></g></g></g></g></g><g fill="#4c0303" fill-opacity="1"><g transform="translate(110.225146, 110.434466)"><g><path d="M 2.4375 -62.09375 L 2.4375 -91.796875 L 3.515625 -91.796875 C 3.515625 -91.316406 3.722656 -90.894531 4.140625 -90.53125 C 4.554688 -90.175781 5.15625 -90 5.9375 -90 L 51.390625 -90 C 52.234375 -90 52.847656 -90.175781 53.234375 -90.53125 C 53.617188 -90.894531 53.8125 -91.316406 53.8125 -91.796875 L 54.90625 -91.796875 L 54.90625 -62.09375 L 53.8125 -62.09375 L 53.8125 -74.34375 C 53.8125 -77.820312 53.210938 -80.59375 52.015625 -82.65625 C 50.816406 -84.726562 49.316406 -86.210938 47.515625 -87.109375 C 45.710938 -88.015625 43.914062 -88.46875 42.125 -88.46875 L 31.953125 -88.46875 L 31.953125 -6.84375 C 31.953125 -5.21875 32.21875 -3.984375 32.75 -3.140625 C 33.289062 -2.304688 33.921875 -1.753906 34.640625 -1.484375 C 35.367188 -1.210938 36.003906 -1.078125 36.546875 -1.078125 L 40.6875 -1.078125 L 40.6875 0 L 16.65625 0 L 16.65625 -1.078125 L 20.796875 -1.078125 C 21.390625 -1.078125 22.03125 -1.210938 22.71875 -1.484375 C 23.414062 -1.753906 24.03125 -2.304688 24.5625 -3.140625 C 25.101562 -3.984375 25.375 -5.21875 25.375 -6.84375 L 25.375 -88.46875 L 15.203125 -88.46875 C 13.460938 -88.46875 11.675781 -88.015625 9.84375 -87.109375 C 8.019531 -86.210938 6.507812 -84.726562 5.3125 -82.65625 C 4.113281 -80.59375 3.515625 -77.820312 3.515625 -74.34375 L 3.515625 -62.09375 Z M 2.4375 -62.09375 "/></g></g></g><g fill="#4c0303" fill-opacity="1"><g transform="translate(159.004165, 110.434466)"><g><path d="M 25.375 0 L 1.796875 0 L 1.796875 -1.078125 L 5.9375 -1.078125 C 6.539062 -1.078125 7.1875 -1.210938 7.875 -1.484375 C 8.5625 -1.753906 9.175781 -2.304688 9.71875 -3.140625 C 10.257812 -3.984375 10.53125 -5.21875 10.53125 -6.84375 L 10.53125 -79.296875 C 10.53125 -79.953125 10.46875 -80.679688 10.34375 -81.484375 C 10.226562 -82.296875 9.851562 -83.003906 9.21875 -83.609375 C 8.59375 -84.210938 7.5 -84.515625 5.9375 -84.515625 L 5.9375 -85.59375 C 9.113281 -85.59375 11.507812 -86.296875 13.125 -87.703125 C 14.75 -89.109375 15.5625 -90.472656 15.5625 -91.796875 L 16.65625 -91.796875 L 16.65625 -42.296875 C 18.207031 -46.554688 20.4375 -49.796875 23.34375 -52.015625 C 26.257812 -54.234375 29.1875 -55.34375 32.125 -55.34375 C 35.007812 -55.34375 37.320312 -54.742188 39.0625 -53.546875 C 40.800781 -52.347656 42.0625 -50.757812 42.84375 -48.78125 C 43.625 -46.800781 44.015625 -44.609375 44.015625 -42.203125 L 44.015625 -6.84375 C 44.015625 -5.21875 44.28125 -3.984375 44.8125 -3.140625 C 45.351562 -2.304688 45.984375 -1.753906 46.703125 -1.484375 C 47.429688 -1.210938 48.0625 -1.078125 48.59375 -1.078125 L 52.734375 -1.078125 L 52.734375 0 L 29.15625 0 L 29.15625 -1.078125 L 33.296875 -1.078125 C 33.898438 -1.078125 34.546875 -1.210938 35.234375 -1.484375 C 35.921875 -1.753906 36.535156 -2.304688 37.078125 -3.140625 C 37.617188 -3.984375 37.890625 -5.21875 37.890625 -6.84375 L 37.890625 -44.734375 C 37.890625 -45.210938 37.875 -45.960938 37.84375 -46.984375 C 37.8125 -48.003906 37.644531 -49.050781 37.34375 -50.125 C 37.050781 -51.207031 36.46875 -52.140625 35.59375 -52.921875 C 34.726562 -53.703125 33.484375 -54.09375 31.859375 -54.09375 C 29.515625 -54.09375 27.335938 -53.398438 25.328125 -52.015625 C 23.316406 -50.640625 21.578125 -48.828125 20.109375 -46.578125 C 18.640625 -44.328125 17.488281 -41.910156 16.65625 -39.328125 L 16.65625 -6.84375 C 16.65625 -5.21875 16.921875 -3.984375 17.453125 -3.140625 C 17.992188 -2.304688 18.625 -1.753906 19.34375 -1.484375 C 20.070312 -1.210938 20.703125 -1.078125 21.234375 -1.078125 L 25.375 -1.078125 Z M 25.375 0 "/></g></g></g><g fill="#4c0303" fill-opacity="1"><g transform="translate(204.093185, 110.434466)"><g><path d="M 33.03125 1.796875 C 27.332031 1.796875 22.335938 0.613281 18.046875 -1.75 C 13.753906 -4.125 10.421875 -7.457031 8.046875 -11.75 C 5.679688 -16.039062 4.5 -21.035156 4.5 -26.734375 C 4.5 -32.429688 5.679688 -37.425781 8.046875 -41.71875 C 10.421875 -46.007812 13.753906 -49.335938 18.046875 -51.703125 C 22.335938 -54.078125 27.332031 -55.265625 33.03125 -55.265625 C 37.644531 -55.265625 41.453125 -54.585938 44.453125 -53.234375 C 47.453125 -51.878906 49.820312 -50.210938 51.5625 -48.234375 C 53.3125 -46.253906 54.585938 -44.273438 55.390625 -42.296875 C 56.203125 -40.316406 56.726562 -38.648438 56.96875 -37.296875 C 57.207031 -35.953125 57.328125 -35.28125 57.328125 -35.28125 L 9.453125 -35.28125 C 9.328125 -34.5 9.21875 -33.734375 9.125 -32.984375 C 9.039062 -32.234375 9 -31.4375 9 -30.59375 C 9 -25.375 10.15625 -20.648438 12.46875 -16.421875 C 14.78125 -12.191406 18.050781 -8.816406 22.28125 -6.296875 C 26.507812 -3.773438 31.472656 -2.515625 37.171875 -2.515625 C 41.785156 -2.515625 45.832031 -3.503906 49.3125 -5.484375 C 52.800781 -7.460938 55.535156 -10.265625 57.515625 -13.890625 C 59.492188 -17.523438 60.484375 -21.804688 60.484375 -26.734375 L 61.5625 -26.734375 C 61.5625 -21.035156 60.375 -16.039062 58 -11.75 C 55.632812 -7.457031 52.304688 -4.125 48.015625 -1.75 C 43.722656 0.613281 38.726562 1.796875 33.03125 1.796875 Z M 9.625 -36.359375 L 51.203125 -36.359375 C 51.148438 -39.835938 50.175781 -42.910156 48.28125 -45.578125 C 46.394531 -48.253906 43.96875 -50.359375 41 -51.890625 C 38.03125 -53.421875 34.863281 -54.1875 31.5 -54.1875 C 27.957031 -54.1875 24.671875 -53.40625 21.640625 -51.84375 C 18.609375 -50.28125 16.054688 -48.160156 13.984375 -45.484375 C 11.921875 -42.816406 10.46875 -39.773438 9.625 -36.359375 Z M 9.625 -36.359375 "/></g></g></g><g fill="#4c0303" fill-opacity="1"><g transform="translate(9.939967, 243.949921)"><g><path d="M 3.75 -125 L 37.125 -125 L 37.125 -123.5 L 31.375 -123.5 C 30.625 -123.5 29.75 -123.3125 28.75 -122.9375 C 27.75 -122.5625 26.875 -121.8125 26.125 -120.6875 C 25.375 -119.5625 25 -117.832031 25 -115.5 L 25 -1.5 L 49.375 -1.5 C 54.375 -1.5 58.726562 -2.394531 62.4375 -4.1875 C 66.144531 -5.976562 69.289062 -8.332031 71.875 -11.25 C 74.457031 -14.164062 76.582031 -17.351562 78.25 -20.8125 C 79.914062 -24.269531 81.25 -27.6875 82.25 -31.0625 C 83.25 -34.4375 84.019531 -37.519531 84.5625 -40.3125 C 85.101562 -43.101562 85.539062 -45.207031 85.875 -46.625 L 87.25 -46.625 L 78.75 2.5 L 77.125 2.5 C 77.289062 1.75 77.144531 1.144531 76.6875 0.6875 C 76.226562 0.226562 75.207031 0 73.625 0 L 3.75 0 L 3.75 -1.5 L 9.5 -1.5 C 10.332031 -1.5 11.226562 -1.6875 12.1875 -2.0625 C 13.144531 -2.4375 14 -3.207031 14.75 -4.375 C 15.5 -5.539062 15.875 -7.25 15.875 -9.5 L 15.875 -115.5 C 15.875 -117.832031 15.5 -119.5625 14.75 -120.6875 C 14 -121.8125 13.144531 -122.5625 12.1875 -122.9375 C 11.226562 -123.3125 10.332031 -123.5 9.5 -123.5 L 3.75 -123.5 Z M 3.75 -125 "/></g></g></g><g fill="#4c0303" fill-opacity="1"><g transform="translate(86.559347, 243.949921)"><g><path d="M 3.75 -1.5 L 8.25 -1.5 C 10.414062 -1.5 12.269531 -2.164062 13.8125 -3.5 C 15.351562 -4.832031 16.664062 -6.4375 17.75 -8.3125 C 18.832031 -10.1875 19.707031 -11.914062 20.375 -13.5 C 20.625 -14.082031 21.226562 -15.894531 22.1875 -18.9375 C 23.144531 -21.976562 24.375 -25.9375 25.875 -30.8125 C 27.375 -35.6875 29.039062 -41.144531 30.875 -47.1875 C 32.707031 -53.226562 34.625 -59.5 36.625 -66 C 38.625 -72.5 40.582031 -78.957031 42.5 -85.375 C 44.414062 -91.789062 46.226562 -97.8125 47.9375 -103.4375 C 49.644531 -109.0625 51.144531 -113.957031 52.4375 -118.125 C 53.726562 -122.289062 54.664062 -125.414062 55.25 -127.5 L 56.75 -127.5 C 57.414062 -125.414062 58.375 -122.289062 59.625 -118.125 C 60.875 -113.957031 62.332031 -109.0625 64 -103.4375 C 65.664062 -97.8125 67.457031 -91.789062 69.375 -85.375 C 71.289062 -78.957031 73.226562 -72.5 75.1875 -66 C 77.144531 -59.5 79.039062 -53.226562 80.875 -47.1875 C 82.707031 -41.144531 84.375 -35.6875 85.875 -30.8125 C 87.375 -25.9375 88.601562 -21.976562 89.5625 -18.9375 C 90.519531 -15.894531 91.125 -14.082031 91.375 -13.5 C 92.125 -11.914062 93.019531 -10.1875 94.0625 -8.3125 C 95.101562 -6.4375 96.394531 -4.832031 97.9375 -3.5 C 99.476562 -2.164062 101.332031 -1.5 103.5 -1.5 L 108 -1.5 L 108 0 L 74.5 0 L 74.5 -1.375 L 80.25 -1.375 C 81.164062 -1.375 82.082031 -1.519531 83 -1.8125 C 83.914062 -2.101562 84.375 -3.039062 84.375 -4.625 C 84.375 -5.539062 83.707031 -8.457031 82.375 -13.375 C 81.039062 -18.289062 79.332031 -24.25 77.25 -31.25 L 28.75 -31.25 C 27.664062 -26.914062 26.832031 -22.976562 26.25 -19.4375 C 25.664062 -15.894531 25.375 -13.039062 25.375 -10.875 C 25.375 -7.375 26.289062 -4.914062 28.125 -3.5 C 29.957031 -2.082031 31.914062 -1.375 34 -1.375 L 39.625 -1.375 L 39.625 0 L 3.75 0 Z M 40.875 -73.75 C 38.707031 -66.832031 36.582031 -59.8125 34.5 -52.6875 C 32.414062 -45.5625 30.625 -38.914062 29.125 -32.75 L 76.75 -32.75 C 75.164062 -38.164062 73.457031 -43.875 71.625 -49.875 C 69.789062 -55.875 67.957031 -61.894531 66.125 -67.9375 C 64.289062 -73.976562 62.519531 -79.707031 60.8125 -85.125 C 59.101562 -90.539062 57.582031 -95.351562 56.25 -99.5625 C 54.914062 -103.769531 53.875 -107.101562 53.125 -109.5625 C 52.375 -112.019531 52 -113.25 52 -113.25 L 52.5 -111.75 C 51.332031 -107.664062 49.707031 -102.25 47.625 -95.5 C 45.539062 -88.75 43.289062 -81.5 40.875 -73.75 Z M 40.875 -73.75 "/></g></g></g><g fill="#4c0303" fill-opacity="1"><g transform="translate(186.427272, 243.949921)"><g><path d="M 69.875 -29.875 C 69.875 -34.789062 68.75 -39 66.5 -42.5 C 64.25 -46 61.269531 -49.0625 57.5625 -51.6875 C 53.851562 -54.3125 49.789062 -56.75 45.375 -59 C 40.957031 -61.25 36.519531 -63.582031 32.0625 -66 C 27.601562 -68.414062 23.519531 -71.144531 19.8125 -74.1875 C 16.101562 -77.226562 13.125 -80.851562 10.875 -85.0625 C 8.625 -89.269531 7.5 -94.332031 7.5 -100.25 C 7.5 -106.25 9.039062 -111.269531 12.125 -115.3125 C 15.207031 -119.351562 19.269531 -122.394531 24.3125 -124.4375 C 29.351562 -126.476562 34.875 -127.5 40.875 -127.5 C 44.875 -127.5 48.289062 -127.226562 51.125 -126.6875 C 53.957031 -126.144531 56.394531 -125.539062 58.4375 -124.875 C 60.476562 -124.207031 62.375 -123.601562 64.125 -123.0625 C 65.875 -122.519531 67.664062 -122.25 69.5 -122.25 C 70.832031 -122.25 72.207031 -122.539062 73.625 -123.125 C 75.039062 -123.707031 76.332031 -125.164062 77.5 -127.5 L 78.75 -127.5 L 56 -63.875 C 60 -61.539062 63.644531 -58.875 66.9375 -55.875 C 70.226562 -52.875 72.851562 -49.289062 74.8125 -45.125 C 76.769531 -40.957031 77.75 -35.957031 77.75 -30.125 C 77.75 -24.289062 76.4375 -18.894531 73.8125 -13.9375 C 71.1875 -8.976562 67.25 -5 62 -2 C 56.75 1 50.164062 2.5 42.25 2.5 C 36.332031 2.5 31.289062 2.0625 27.125 1.1875 C 22.957031 0.3125 19.289062 -0.125 16.125 -0.125 C 14.539062 -0.125 13.164062 0.0625 12 0.4375 C 10.832031 0.8125 9.832031 1.457031 9 2.375 L 7.5 2.375 L 7.5 -62.625 L 9 -62.625 L 9 -31.625 C 9 -25.039062 9.894531 -19.625 11.6875 -15.375 C 13.476562 -11.125 15.9375 -7.8125 19.0625 -5.4375 C 22.1875 -3.0625 25.75 -1.394531 29.75 -0.4375 C 33.75 0.519531 37.914062 1 42.25 1 C 47.332031 1 51.957031 -0.125 56.125 -2.375 C 60.289062 -4.625 63.625 -8.039062 66.125 -12.625 C 68.625 -17.207031 69.875 -22.957031 69.875 -29.875 Z M 40.875 -126 C 35.625 -126 31.3125 -125.207031 27.9375 -123.625 C 24.5625 -122.039062 21.9375 -120.082031 20.0625 -117.75 C 18.1875 -115.414062 16.875 -113 16.125 -110.5 C 15.375 -108 15 -105.789062 15 -103.875 C 15 -98.207031 16.207031 -93.4375 18.625 -89.5625 C 21.039062 -85.6875 24.226562 -82.351562 28.1875 -79.5625 C 32.144531 -76.769531 36.4375 -74.207031 41.0625 -71.875 C 45.6875 -69.539062 50.25 -67.082031 54.75 -64.5 C 56.164062 -68.5 57.726562 -72.789062 59.4375 -77.375 C 61.144531 -81.957031 62.664062 -86.539062 64 -91.125 C 65.332031 -95.707031 66.125 -100.082031 66.375 -104.25 C 66.625 -108.414062 66.039062 -112.144531 64.625 -115.4375 C 63.207031 -118.726562 60.625 -121.3125 56.875 -123.1875 C 53.125 -125.0625 47.789062 -126 40.875 -126 Z M 40.875 -126 "/></g></g></g><g fill="#4c0303" fill-opacity="1"><g transform="translate(260.796778, 243.949921)"><g><path d="M 3.75 -1.5 L 9.5 -1.5 C 10.332031 -1.5 11.226562 -1.6875 12.1875 -2.0625 C 13.144531 -2.4375 14 -3.207031 14.75 -4.375 C 15.5 -5.539062 15.875 -7.25 15.875 -9.5 L 15.875 -115.5 C 15.875 -117.832031 15.5 -119.5625 14.75 -120.6875 C 14 -121.8125 13.144531 -122.5625 12.1875 -122.9375 C 11.226562 -123.3125 10.332031 -123.5 9.5 -123.5 L 3.75 -123.5 L 3.75 -125 L 37.125 -125 L 37.125 -123.5 L 31.375 -123.5 C 30.625 -123.5 29.75 -123.3125 28.75 -122.9375 C 27.75 -122.5625 26.875 -121.8125 26.125 -120.6875 C 25.375 -119.5625 25 -117.832031 25 -115.5 L 25 -80.75 L 79.25 -80.75 L 79.25 -115.5 C 79.25 -117.832031 78.875 -119.5625 78.125 -120.6875 C 77.375 -121.8125 76.519531 -122.5625 75.5625 -122.9375 C 74.601562 -123.3125 73.707031 -123.5 72.875 -123.5 L 67.125 -123.5 L 67.125 -125 L 100.5 -125 L 100.5 -123.5 L 94.75 -123.5 C 94 -123.5 93.125 -123.3125 92.125 -122.9375 C 91.125 -122.5625 90.25 -121.8125 89.5 -120.6875 C 88.75 -119.5625 88.375 -117.832031 88.375 -115.5 L 88.375 -9.5 C 88.375 -7.25 88.75 -5.539062 89.5 -4.375 C 90.25 -3.207031 91.125 -2.4375 92.125 -2.0625 C 93.125 -1.6875 94 -1.5 94.75 -1.5 L 100.5 -1.5 L 100.5 0 L 67.125 0 L 67.125 -1.5 L 72.875 -1.5 C 73.707031 -1.5 74.601562 -1.6875 75.5625 -2.0625 C 76.519531 -2.4375 77.375 -3.207031 78.125 -4.375 C 78.875 -5.539062 79.25 -7.25 79.25 -9.5 L 79.25 -79.125 L 25 -79.125 L 25 -9.5 C 25 -7.25 25.375 -5.539062 26.125 -4.375 C 26.875 -3.207031 27.75 -2.4375 28.75 -2.0625 C 29.75 -1.6875 30.625 -1.5 31.375 -1.5 L 37.125 -1.5 L 37.125 0 L 3.75 0 Z M 3.75 -1.5 "/></g></g></g></svg>