<svg xmlns="http://www.w3.org/2000/svg" xmlns:xlink="http://www.w3.org/1999/xlink" width="500" zoomAndPan="magnify" viewBox="0 0 375 374.999991" height="500" preserveAspectRatio="xMidYMid meet" version="1.0"><defs><g/></defs><rect x="-37.5" width="450" fill="#ffffff" y="-37.499999" height="449.999989" fill-opacity="1"/><rect x="-37.5" width="450" fill="#f2f5f6" y="-37.499999" height="449.999989" fill-opacity="1"/><g fill="#4c0303" fill-opacity="1"><g transform="translate(2.778589, 258.954396)"><g><path d="M 53 -176.328125 L 53 -35.265625 L 113.703125 -35.265625 L 113.703125 0 L 12.828125 0 L 12.828125 -176.328125 Z M 53 -176.328125 "/></g></g></g><g fill="#4c0303" fill-opacity="1"><g transform="translate(129.09583, 258.954396)"><g><path d="M 37.1875 -45.734375 C 44.03125 -45.734375 49.835938 -43.347656 54.609375 -38.578125 C 59.378906 -33.804688 61.765625 -28 61.765625 -21.15625 C 61.765625 -14.457031 59.378906 -8.722656 54.609375 -3.953125 C 49.835938 0.816406 44.03125 3.203125 37.1875 3.203125 C 30.488281 3.203125 24.753906 0.816406 19.984375 -3.953125 C 15.210938 -8.722656 12.828125 -14.457031 12.828125 -21.15625 C 12.828125 -28 15.210938 -33.804688 19.984375 -38.578125 C 24.753906 -43.347656 30.488281 -45.734375 37.1875 -45.734375 Z M 37.1875 -45.734375 "/></g></g></g><g fill="#4c0303" fill-opacity="1"><g transform="translate(209.246376, 258.954396)"><g><path d="M 12.828125 -176.328125 L 63.90625 -176.328125 C 88.414062 -176.328125 109.359375 -167.957031 126.734375 -151.21875 C 144.117188 -134.476562 152.8125 -113.492188 152.8125 -88.265625 C 152.8125 -62.910156 144.15625 -41.859375 126.84375 -25.109375 C 109.53125 -8.367188 88.550781 0 63.90625 0 L 12.828125 0 Z M 53 -35.90625 L 59.203125 -35.90625 C 73.878906 -35.90625 85.882812 -40.851562 95.21875 -50.75 C 104.550781 -60.65625 109.289062 -73.09375 109.4375 -88.0625 C 109.4375 -103.019531 104.769531 -115.484375 95.4375 -125.453125 C 86.101562 -135.429688 74.023438 -140.421875 59.203125 -140.421875 L 53 -140.421875 Z M 53 -35.90625 "/></g></g></g></svg>