<svg xmlns="http://www.w3.org/2000/svg" xmlns:xlink="http://www.w3.org/1999/xlink" width="64" zoomAndPan="magnify" viewBox="0 0 48 48" height="64" preserveAspectRatio="xMidYMid meet" version="1.0"><defs><g/><clipPath id="7c873fd1b0"><path d="M 1.960938 1.46875 L 46.039062 1.46875 L 46.039062 45.550781 L 1.960938 45.550781 Z M 1.960938 1.46875 " clip-rule="nonzero"/></clipPath><clipPath id="c5aa042995"><path d="M 14 7 L 27.34375 7 L 27.34375 15 L 14 15 Z M 14 7 " clip-rule="nonzero"/></clipPath><clipPath id="da435b973f"><rect x="0" width="28" y="0" height="17"/></clipPath><clipPath id="4ccc2b9455"><path d="M 0.300781 0.527344 L 7 0.527344 L 7 11 L 0.300781 11 Z M 0.300781 0.527344 " clip-rule="nonzero"/></clipPath><clipPath id="df99379ff2"><path d="M 6 0.527344 L 12 0.527344 L 12 11 L 6 11 Z M 6 0.527344 " clip-rule="nonzero"/></clipPath><clipPath id="753b9e0132"><rect x="0" width="19" y="0" height="16"/></clipPath><clipPath id="346e07038d"><path d="M 0.015625 0.578125 L 10 0.578125 L 10 16 L 0.015625 16 Z M 0.015625 0.578125 " clip-rule="nonzero"/></clipPath><clipPath id="57d352876b"><path d="M 9 0.578125 L 21 0.578125 L 21 15 L 9 15 Z M 9 0.578125 " clip-rule="nonzero"/></clipPath><clipPath id="44a27c78fb"><path d="M 20 0.578125 L 29 0.578125 L 29 16 L 20 16 Z M 20 0.578125 " clip-rule="nonzero"/></clipPath><clipPath id="e29429931c"><path d="M 28 0.578125 L 39.75 0.578125 L 39.75 15 L 28 15 Z M 28 0.578125 " clip-rule="nonzero"/></clipPath><clipPath id="9bb6fba2aa"><rect x="0" width="40" y="0" height="22"/></clipPath></defs><g clip-path="url(#7c873fd1b0)"><path fill="#fffaeb" d="M 12.875 1.46875 L 35.125 1.46875 C 35.839844 1.46875 36.550781 1.539062 37.253906 1.679688 C 37.957031 1.820312 38.640625 2.027344 39.300781 2.300781 C 39.964844 2.574219 40.59375 2.910156 41.1875 3.308594 C 41.785156 3.707031 42.335938 4.160156 42.84375 4.667969 C 43.351562 5.171875 43.804688 5.726562 44.199219 6.320312 C 44.597656 6.917969 44.933594 7.546875 45.210938 8.207031 C 45.484375 8.871094 45.691406 9.554688 45.832031 10.257812 C 45.972656 10.960938 46.039062 11.667969 46.039062 12.386719 L 46.039062 34.632812 C 46.039062 35.351562 45.972656 36.0625 45.832031 36.765625 C 45.691406 37.46875 45.484375 38.148438 45.210938 38.8125 C 44.933594 39.472656 44.597656 40.101562 44.199219 40.699219 C 43.804688 41.296875 43.351562 41.847656 42.84375 42.355469 C 42.335938 42.859375 41.785156 43.3125 41.1875 43.710938 C 40.59375 44.109375 39.964844 44.445312 39.300781 44.71875 C 38.640625 44.996094 37.957031 45.203125 37.253906 45.339844 C 36.550781 45.480469 35.839844 45.550781 35.125 45.550781 L 12.875 45.550781 C 12.160156 45.550781 11.449219 45.480469 10.746094 45.339844 C 10.042969 45.203125 9.359375 44.996094 8.699219 44.71875 C 8.035156 44.445312 7.40625 44.109375 6.8125 43.710938 C 6.214844 43.3125 5.664062 42.859375 5.15625 42.355469 C 4.648438 41.847656 4.195312 41.296875 3.800781 40.699219 C 3.402344 40.101562 3.066406 39.472656 2.789062 38.8125 C 2.515625 38.148438 2.308594 37.46875 2.167969 36.765625 C 2.027344 36.0625 1.960938 35.351562 1.960938 34.632812 L 1.960938 12.386719 C 1.960938 11.667969 2.027344 10.960938 2.167969 10.257812 C 2.308594 9.554688 2.515625 8.871094 2.789062 8.207031 C 3.066406 7.546875 3.402344 6.917969 3.800781 6.320312 C 4.195312 5.726562 4.648438 5.171875 5.15625 4.667969 C 5.664062 4.160156 6.214844 3.707031 6.8125 3.308594 C 7.40625 2.910156 8.035156 2.574219 8.699219 2.300781 C 9.359375 2.027344 10.042969 1.820312 10.746094 1.679688 C 11.449219 1.539062 12.160156 1.46875 12.875 1.46875 Z M 12.875 1.46875 " fill-opacity="1" fill-rule="nonzero"/></g><g transform="matrix(1, 0, 0, 1, 7, 26)"><g clip-path="url(#da435b973f)"><g fill="#4c0303" fill-opacity="1"><g transform="translate(1.341072, 10.953099)"><g><path d="M 12.84375 -8.09375 C 12.832031 -8.0625 12.796875 -8.046875 12.734375 -8.046875 C 12.671875 -8.046875 12.570312 -8.023438 12.4375 -7.984375 C 12.226562 -7.941406 12 -7.84375 11.75 -7.6875 C 11.5 -7.539062 11.300781 -7.394531 11.15625 -7.25 C 11.5625 -6.894531 11.851562 -6.476562 12.03125 -6 C 12.207031 -5.53125 12.296875 -5.070312 12.296875 -4.625 C 12.296875 -4.082031 12.191406 -3.570312 11.984375 -3.09375 C 11.785156 -2.625 11.523438 -2.203125 11.203125 -1.828125 C 10.890625 -1.460938 10.5625 -1.15625 10.21875 -0.90625 C 9.738281 -0.539062 9.128906 -0.238281 8.390625 0 C 7.648438 0.226562 6.773438 0.335938 5.765625 0.328125 C 5.210938 0.316406 4.675781 0.28125 4.15625 0.21875 C 3.632812 0.15625 3.140625 0.0859375 2.671875 0.015625 C 2.210938 -0.0546875 1.804688 -0.113281 1.453125 -0.15625 C 1.679688 0.4375 2.046875 0.90625 2.546875 1.25 C 3.054688 1.59375 3.722656 1.765625 4.546875 1.765625 C 4.929688 1.765625 5.265625 1.71875 5.546875 1.625 C 5.828125 1.53125 6.035156 1.4375 6.171875 1.34375 C 6.222656 1.3125 6.265625 1.28125 6.296875 1.25 C 6.335938 1.226562 6.375 1.222656 6.40625 1.234375 C 6.4375 1.265625 6.4375 1.296875 6.40625 1.328125 C 6.375 1.367188 6.335938 1.40625 6.296875 1.4375 C 6.148438 1.539062 5.914062 1.644531 5.59375 1.75 C 5.28125 1.851562 4.914062 1.90625 4.5 1.90625 C 3.632812 1.90625 2.9375 1.726562 2.40625 1.375 C 1.882812 1.019531 1.488281 0.523438 1.21875 -0.109375 C 1.144531 -0.0976562 1.003906 -0.0507812 0.796875 0.03125 C 0.597656 0.113281 0.363281 0.15625 0.09375 0.15625 C -0.0195312 0.15625 -0.117188 0.132812 -0.203125 0.09375 C -0.285156 0.0625 -0.328125 0.0078125 -0.328125 -0.0625 C -0.328125 -0.164062 -0.273438 -0.242188 -0.171875 -0.296875 C -0.078125 -0.359375 0.0390625 -0.398438 0.1875 -0.421875 C 0.332031 -0.453125 0.472656 -0.46875 0.609375 -0.46875 C 0.710938 -0.46875 0.8125 -0.460938 0.90625 -0.453125 C 1 -0.441406 1.078125 -0.425781 1.140625 -0.40625 C 1.085938 -0.601562 1.046875 -0.804688 1.015625 -1.015625 C 0.984375 -1.234375 0.96875 -1.476562 0.96875 -1.75 C 0.96875 -2.695312 1.171875 -3.570312 1.578125 -4.375 C 1.984375 -5.175781 2.554688 -5.878906 3.296875 -6.484375 C 3.910156 -6.984375 4.617188 -7.394531 5.421875 -7.71875 C 6.222656 -8.050781 7.09375 -8.21875 8.03125 -8.21875 C 8.78125 -8.21875 9.378906 -8.132812 9.828125 -7.96875 C 10.273438 -7.8125 10.648438 -7.628906 10.953125 -7.421875 C 11.097656 -7.535156 11.304688 -7.664062 11.578125 -7.8125 C 11.859375 -7.96875 12.113281 -8.066406 12.34375 -8.109375 C 12.457031 -8.140625 12.570312 -8.15625 12.6875 -8.15625 C 12.800781 -8.15625 12.851562 -8.132812 12.84375 -8.09375 Z M 10.796875 -7.296875 C 10.554688 -7.492188 10.234375 -7.660156 9.828125 -7.796875 C 9.421875 -7.929688 8.90625 -8 8.28125 -8 C 7.644531 -8 7.035156 -7.910156 6.453125 -7.734375 C 5.878906 -7.554688 5.347656 -7.328125 4.859375 -7.046875 C 4.367188 -6.773438 3.945312 -6.488281 3.59375 -6.1875 C 2.894531 -5.601562 2.320312 -4.929688 1.875 -4.171875 C 1.425781 -3.421875 1.203125 -2.613281 1.203125 -1.75 C 1.203125 -1.488281 1.210938 -1.242188 1.234375 -1.015625 C 1.253906 -0.796875 1.296875 -0.585938 1.359375 -0.390625 C 2.003906 -0.367188 2.617188 -0.46875 3.203125 -0.6875 C 3.796875 -0.914062 4.398438 -1.28125 5.015625 -1.78125 C 5.628906 -2.28125 6.300781 -2.925781 7.03125 -3.71875 C 7.65625 -4.382812 8.285156 -5.039062 8.921875 -5.6875 C 9.566406 -6.332031 10.191406 -6.867188 10.796875 -7.296875 Z M 9.9375 -1.421875 C 10.25 -1.710938 10.546875 -2.046875 10.828125 -2.421875 C 11.109375 -2.804688 11.335938 -3.222656 11.515625 -3.671875 C 11.703125 -4.128906 11.796875 -4.613281 11.796875 -5.125 C 11.796875 -5.570312 11.71875 -5.96875 11.5625 -6.3125 C 11.414062 -6.65625 11.226562 -6.929688 11 -7.140625 C 10.601562 -6.773438 10.210938 -6.378906 9.828125 -5.953125 C 9.453125 -5.523438 9.097656 -5.101562 8.765625 -4.6875 C 8.441406 -4.28125 8.144531 -3.925781 7.875 -3.625 C 7.269531 -2.9375 6.695312 -2.378906 6.15625 -1.953125 C 5.625 -1.523438 5.117188 -1.191406 4.640625 -0.953125 C 4.171875 -0.722656 3.722656 -0.554688 3.296875 -0.453125 C 2.867188 -0.359375 2.46875 -0.300781 2.09375 -0.28125 C 2.40625 -0.21875 2.769531 -0.15625 3.1875 -0.09375 C 3.601562 -0.03125 4.039062 0.015625 4.5 0.046875 C 4.957031 0.0859375 5.382812 0.109375 5.78125 0.109375 C 6.53125 0.109375 7.171875 0.0234375 7.703125 -0.140625 C 8.242188 -0.316406 8.695312 -0.523438 9.0625 -0.765625 C 9.425781 -1.003906 9.71875 -1.222656 9.9375 -1.421875 Z M 9.9375 -1.421875 "/></g></g></g><g fill="#4c0303" fill-opacity="1"><g transform="translate(13.25983, 10.953099)"><g><path d="M 3.75 -4.65625 C 3.75 -4.5625 3.710938 -4.476562 3.640625 -4.40625 C 3.566406 -4.34375 3.484375 -4.3125 3.390625 -4.3125 C 3.304688 -4.3125 3.222656 -4.34375 3.140625 -4.40625 C 3.066406 -4.476562 3.03125 -4.5625 3.03125 -4.65625 C 3.03125 -4.75 3.066406 -4.828125 3.140625 -4.890625 C 3.222656 -4.960938 3.304688 -5 3.390625 -5 C 3.484375 -5 3.566406 -4.960938 3.640625 -4.890625 C 3.710938 -4.828125 3.75 -4.75 3.75 -4.65625 Z M 2.890625 -3.625 C 2.523438 -3.300781 2.171875 -2.972656 1.828125 -2.640625 C 1.492188 -2.304688 1.191406 -2 0.921875 -1.71875 C 0.648438 -1.4375 0.4375 -1.207031 0.28125 -1.03125 C 0.132812 -0.851562 0.015625 -0.691406 -0.078125 -0.546875 C -0.171875 -0.410156 -0.21875 -0.300781 -0.21875 -0.21875 C -0.21875 -0.132812 -0.171875 -0.09375 -0.078125 -0.09375 C 0.015625 -0.09375 0.128906 -0.125 0.265625 -0.1875 C 0.398438 -0.25 0.539062 -0.328125 0.6875 -0.421875 C 0.832031 -0.515625 0.953125 -0.597656 1.046875 -0.671875 C 1.191406 -0.785156 1.347656 -0.910156 1.515625 -1.046875 C 1.679688 -1.179688 1.835938 -1.3125 1.984375 -1.4375 C 2.128906 -1.5625 2.242188 -1.660156 2.328125 -1.734375 C 2.410156 -1.816406 2.472656 -1.832031 2.515625 -1.78125 C 2.554688 -1.75 2.539062 -1.703125 2.46875 -1.640625 C 2.375 -1.554688 2.238281 -1.441406 2.0625 -1.296875 C 1.894531 -1.148438 1.726562 -1.003906 1.5625 -0.859375 C 1.394531 -0.722656 1.257812 -0.617188 1.15625 -0.546875 C 0.957031 -0.398438 0.726562 -0.253906 0.46875 -0.109375 C 0.21875 0.0351562 -0.0078125 0.109375 -0.21875 0.109375 C -0.507812 0.109375 -0.65625 -0.0195312 -0.65625 -0.28125 C -0.65625 -0.476562 -0.570312 -0.710938 -0.40625 -0.984375 C -0.238281 -1.253906 -0.0078125 -1.539062 0.28125 -1.84375 C 0.445312 -2.007812 0.644531 -2.203125 0.875 -2.421875 C 1.113281 -2.648438 1.351562 -2.863281 1.59375 -3.0625 C 1.832031 -3.257812 2.035156 -3.40625 2.203125 -3.5 C 2.285156 -3.550781 2.398438 -3.585938 2.546875 -3.609375 C 2.691406 -3.628906 2.804688 -3.632812 2.890625 -3.625 Z M 2.890625 -3.625 "/></g></g></g><g fill="#4c0303" fill-opacity="1"><g transform="translate(15.381493, 10.953099)"><g><path d="M 4.796875 -3.578125 C 4.429688 -3.242188 4.082031 -2.914062 3.75 -2.59375 C 3.425781 -2.269531 3.132812 -1.972656 2.875 -1.703125 C 2.613281 -1.429688 2.410156 -1.207031 2.265625 -1.03125 C 2.097656 -0.851562 1.96875 -0.691406 1.875 -0.546875 C 1.78125 -0.410156 1.734375 -0.300781 1.734375 -0.21875 C 1.734375 -0.144531 1.773438 -0.109375 1.859375 -0.109375 C 1.941406 -0.109375 2.050781 -0.144531 2.1875 -0.21875 C 2.320312 -0.300781 2.460938 -0.394531 2.609375 -0.5 C 2.765625 -0.601562 2.898438 -0.695312 3.015625 -0.78125 C 3.210938 -0.945312 3.414062 -1.117188 3.625 -1.296875 C 3.832031 -1.484375 4.015625 -1.644531 4.171875 -1.78125 C 4.191406 -1.800781 4.21875 -1.816406 4.25 -1.828125 C 4.289062 -1.847656 4.320312 -1.84375 4.34375 -1.8125 C 4.375 -1.78125 4.351562 -1.726562 4.28125 -1.65625 C 4.09375 -1.476562 3.890625 -1.296875 3.671875 -1.109375 C 3.460938 -0.929688 3.28125 -0.78125 3.125 -0.65625 C 3 -0.5625 2.851562 -0.453125 2.6875 -0.328125 C 2.53125 -0.210938 2.367188 -0.113281 2.203125 -0.03125 C 2.035156 0.0507812 1.890625 0.09375 1.765625 0.09375 C 1.472656 0.09375 1.328125 -0.0507812 1.328125 -0.34375 C 1.328125 -0.425781 1.351562 -0.535156 1.40625 -0.671875 C 1.46875 -0.804688 1.566406 -0.953125 1.703125 -1.109375 C 1.335938 -0.785156 0.976562 -0.503906 0.625 -0.265625 C 0.269531 -0.0234375 -0.0078125 0.09375 -0.21875 0.09375 C -0.5 0.09375 -0.640625 -0.046875 -0.640625 -0.328125 C -0.648438 -0.546875 -0.5625 -0.816406 -0.375 -1.140625 C -0.1875 -1.472656 0.0507812 -1.785156 0.34375 -2.078125 C 0.625 -2.367188 0.941406 -2.632812 1.296875 -2.875 C 1.660156 -3.125 2.015625 -3.320312 2.359375 -3.46875 C 2.710938 -3.625 3.007812 -3.703125 3.25 -3.703125 C 3.363281 -3.703125 3.457031 -3.679688 3.53125 -3.640625 C 3.601562 -3.597656 3.640625 -3.523438 3.640625 -3.421875 C 3.640625 -3.359375 3.613281 -3.273438 3.5625 -3.171875 C 3.519531 -3.066406 3.425781 -2.941406 3.28125 -2.796875 C 3.269531 -2.785156 3.265625 -2.773438 3.265625 -2.765625 C 3.273438 -2.765625 3.285156 -2.769531 3.296875 -2.78125 C 3.484375 -2.976562 3.671875 -3.140625 3.859375 -3.265625 C 4.054688 -3.398438 4.207031 -3.484375 4.3125 -3.515625 C 4.375 -3.546875 4.4375 -3.5625 4.5 -3.5625 C 4.5625 -3.570312 4.625 -3.578125 4.6875 -3.578125 Z M 3.46875 -3.375 C 3.46875 -3.46875 3.421875 -3.515625 3.328125 -3.515625 C 3.148438 -3.515625 2.847656 -3.363281 2.421875 -3.0625 C 2.003906 -2.769531 1.5 -2.335938 0.90625 -1.765625 C 0.601562 -1.460938 0.335938 -1.164062 0.109375 -0.875 C -0.117188 -0.582031 -0.234375 -0.363281 -0.234375 -0.21875 C -0.234375 -0.1875 -0.226562 -0.15625 -0.21875 -0.125 C -0.207031 -0.101562 -0.171875 -0.09375 -0.109375 -0.09375 C -0.00390625 -0.09375 0.164062 -0.164062 0.40625 -0.3125 C 0.65625 -0.46875 0.9375 -0.675781 1.25 -0.9375 C 1.570312 -1.207031 1.894531 -1.507812 2.21875 -1.84375 C 2.375 -2 2.546875 -2.171875 2.734375 -2.359375 C 2.929688 -2.554688 3.101562 -2.75 3.25 -2.9375 C 3.394531 -3.125 3.46875 -3.269531 3.46875 -3.375 Z M 3.46875 -3.375 "/></g></g></g><g fill="#4c0303" fill-opacity="1"><g transform="translate(19.300332, 10.953099)"><g><path d="M 2.015625 -0.40625 C 1.804688 -0.269531 1.609375 -0.148438 1.421875 -0.046875 C 1.242188 0.046875 1.085938 0.09375 0.953125 0.09375 C 0.660156 0.09375 0.515625 -0.0546875 0.515625 -0.359375 C 0.515625 -0.617188 0.628906 -0.894531 0.859375 -1.1875 C 1.085938 -1.488281 1.394531 -1.8125 1.78125 -2.15625 C 1.9375 -2.300781 2.097656 -2.445312 2.265625 -2.59375 C 2.441406 -2.75 2.585938 -2.890625 2.703125 -3.015625 C 2.828125 -3.140625 2.890625 -3.222656 2.890625 -3.265625 C 2.878906 -3.304688 2.851562 -3.335938 2.8125 -3.359375 C 2.769531 -3.378906 2.703125 -3.410156 2.609375 -3.453125 C 2.503906 -3.503906 2.429688 -3.554688 2.390625 -3.609375 C 2.253906 -3.460938 2.101562 -3.304688 1.9375 -3.140625 C 1.78125 -2.984375 1.617188 -2.820312 1.453125 -2.65625 C 1.234375 -2.445312 0.988281 -2.21875 0.71875 -1.96875 C 0.457031 -1.726562 0.238281 -1.535156 0.0625 -1.390625 C 0.0390625 -1.367188 0.015625 -1.351562 -0.015625 -1.34375 C -0.0546875 -1.332031 -0.0820312 -1.34375 -0.09375 -1.375 C -0.113281 -1.394531 -0.113281 -1.421875 -0.09375 -1.453125 C -0.0820312 -1.484375 -0.0625 -1.503906 -0.03125 -1.515625 C 0.164062 -1.691406 0.390625 -1.890625 0.640625 -2.109375 C 0.890625 -2.335938 1.117188 -2.554688 1.328125 -2.765625 C 1.535156 -2.960938 1.71875 -3.140625 1.875 -3.296875 C 2.039062 -3.460938 2.191406 -3.625 2.328125 -3.78125 C 2.328125 -3.875 2.367188 -3.984375 2.453125 -4.109375 C 2.546875 -4.234375 2.664062 -4.347656 2.8125 -4.453125 C 2.925781 -4.535156 3.03125 -4.597656 3.125 -4.640625 C 3.226562 -4.691406 3.316406 -4.722656 3.390625 -4.734375 C 3.410156 -4.742188 3.453125 -4.75 3.515625 -4.75 C 3.578125 -4.757812 3.640625 -4.765625 3.703125 -4.765625 C 3.816406 -4.765625 3.875 -4.75 3.875 -4.71875 C 3.875 -4.695312 3.820312 -4.644531 3.71875 -4.5625 C 3.625 -4.488281 3.515625 -4.414062 3.390625 -4.34375 C 3.265625 -4.28125 3.171875 -4.226562 3.109375 -4.1875 C 2.972656 -4.101562 2.847656 -4.019531 2.734375 -3.9375 C 2.617188 -3.851562 2.5625 -3.78125 2.5625 -3.71875 C 2.5625 -3.6875 2.601562 -3.648438 2.6875 -3.609375 C 2.769531 -3.578125 2.832031 -3.550781 2.875 -3.53125 C 3.101562 -3.457031 3.21875 -3.34375 3.21875 -3.1875 C 3.21875 -3.019531 3.15625 -2.84375 3.03125 -2.65625 C 2.90625 -2.46875 2.753906 -2.28125 2.578125 -2.09375 C 2.410156 -1.914062 2.253906 -1.765625 2.109375 -1.640625 C 1.878906 -1.421875 1.675781 -1.226562 1.5 -1.0625 C 1.320312 -0.894531 1.175781 -0.738281 1.0625 -0.59375 C 0.925781 -0.4375 0.859375 -0.3125 0.859375 -0.21875 C 0.859375 -0.132812 0.910156 -0.09375 1.015625 -0.09375 C 1.128906 -0.09375 1.285156 -0.15625 1.484375 -0.28125 C 1.691406 -0.40625 1.863281 -0.507812 2 -0.59375 C 2.21875 -0.757812 2.453125 -0.945312 2.703125 -1.15625 C 2.953125 -1.363281 3.160156 -1.535156 3.328125 -1.671875 C 3.347656 -1.691406 3.375 -1.710938 3.40625 -1.734375 C 3.4375 -1.753906 3.46875 -1.75 3.5 -1.71875 C 3.53125 -1.6875 3.53125 -1.648438 3.5 -1.609375 C 3.46875 -1.578125 3.429688 -1.546875 3.390625 -1.515625 C 3.203125 -1.347656 2.984375 -1.160156 2.734375 -0.953125 C 2.492188 -0.753906 2.253906 -0.570312 2.015625 -0.40625 Z M 2.015625 -0.40625 "/></g></g></g><g clip-path="url(#c5aa042995)"><g fill="#4c0303" fill-opacity="1"><g transform="translate(22.470346, 10.953099)"><g><path d="M 4.796875 -3.640625 C 4.453125 -3.328125 4.09375 -2.976562 3.71875 -2.59375 C 3.351562 -2.21875 2.953125 -1.773438 2.515625 -1.265625 C 2.109375 -0.816406 1.640625 -0.316406 1.109375 0.234375 C 0.585938 0.796875 0.0390625 1.300781 -0.53125 1.75 C -1.320312 2.351562 -2.117188 2.804688 -2.921875 3.109375 C -3.722656 3.421875 -4.46875 3.578125 -5.15625 3.578125 C -5.550781 3.578125 -5.921875 3.519531 -6.265625 3.40625 C -6.617188 3.289062 -6.910156 3.125 -7.140625 2.90625 C -7.367188 2.6875 -7.519531 2.414062 -7.59375 2.09375 C -7.632812 1.894531 -7.613281 1.785156 -7.53125 1.765625 C -7.5 1.753906 -7.472656 1.769531 -7.453125 1.8125 C -7.441406 1.863281 -7.429688 1.914062 -7.421875 1.96875 C -7.367188 2.269531 -7.226562 2.523438 -7 2.734375 C -6.78125 2.941406 -6.507812 3.097656 -6.1875 3.203125 C -5.863281 3.316406 -5.535156 3.375 -5.203125 3.375 C -4.691406 3.375 -4.195312 3.285156 -3.71875 3.109375 C -3.238281 2.941406 -2.773438 2.71875 -2.328125 2.4375 C -1.878906 2.164062 -1.472656 1.882812 -1.109375 1.59375 C -0.859375 1.394531 -0.59375 1.164062 -0.3125 0.90625 C -0.03125 0.65625 0.242188 0.394531 0.515625 0.125 C 0.796875 -0.132812 1.046875 -0.378906 1.265625 -0.609375 C 1.492188 -0.847656 1.675781 -1.046875 1.8125 -1.203125 C 1.820312 -1.210938 1.820312 -1.222656 1.8125 -1.234375 C 1.8125 -1.242188 1.800781 -1.238281 1.78125 -1.21875 C 1.65625 -1.113281 1.519531 -0.992188 1.375 -0.859375 C 1.226562 -0.722656 1.128906 -0.632812 1.078125 -0.59375 C 0.859375 -0.425781 0.628906 -0.269531 0.390625 -0.125 C 0.148438 0.0195312 -0.0507812 0.09375 -0.21875 0.09375 C -0.382812 0.09375 -0.5 0.0546875 -0.5625 -0.015625 C -0.625 -0.0859375 -0.65625 -0.175781 -0.65625 -0.28125 C -0.65625 -0.488281 -0.570312 -0.726562 -0.40625 -1 C -0.238281 -1.269531 -0.0078125 -1.5625 0.28125 -1.875 C 0.445312 -2.050781 0.644531 -2.238281 0.875 -2.4375 C 1.101562 -2.644531 1.335938 -2.835938 1.578125 -3.015625 C 1.816406 -3.191406 2.019531 -3.328125 2.1875 -3.421875 C 2.28125 -3.484375 2.410156 -3.523438 2.578125 -3.546875 C 2.742188 -3.566406 2.867188 -3.578125 2.953125 -3.578125 C 2.585938 -3.273438 2.226562 -2.960938 1.875 -2.640625 C 1.519531 -2.316406 1.207031 -2.015625 0.9375 -1.734375 C 0.664062 -1.460938 0.457031 -1.234375 0.3125 -1.046875 C 0.164062 -0.867188 0.0390625 -0.707031 -0.0625 -0.5625 C -0.164062 -0.414062 -0.21875 -0.300781 -0.21875 -0.21875 C -0.21875 -0.144531 -0.179688 -0.109375 -0.109375 -0.109375 C 0.00390625 -0.109375 0.171875 -0.175781 0.390625 -0.3125 C 0.609375 -0.457031 0.804688 -0.597656 0.984375 -0.734375 C 1.097656 -0.816406 1.234375 -0.929688 1.390625 -1.078125 C 1.554688 -1.234375 1.726562 -1.394531 1.90625 -1.5625 C 2.09375 -1.726562 2.253906 -1.875 2.390625 -2 C 2.554688 -2.175781 2.742188 -2.359375 2.953125 -2.546875 C 3.160156 -2.742188 3.363281 -2.929688 3.5625 -3.109375 C 3.769531 -3.285156 3.957031 -3.421875 4.125 -3.515625 C 4.1875 -3.554688 4.289062 -3.585938 4.4375 -3.609375 C 4.59375 -3.640625 4.710938 -3.648438 4.796875 -3.640625 Z M 4.796875 -3.640625 "/></g></g></g></g></g></g><g transform="matrix(1, 0, 0, 1, 15, 3)"><g clip-path="url(#753b9e0132)"><g clip-path="url(#4ccc2b9455)"><g fill="#4c0303" fill-opacity="1"><g transform="translate(0.333358, 10.992759)"><g><path d="M 0.265625 -6.96875 L 0.265625 -10.296875 L 0.390625 -10.296875 C 0.390625 -10.242188 0.410156 -10.195312 0.453125 -10.15625 C 0.503906 -10.113281 0.578125 -10.09375 0.671875 -10.09375 L 5.765625 -10.09375 C 5.859375 -10.09375 5.925781 -10.113281 5.96875 -10.15625 C 6.007812 -10.195312 6.03125 -10.242188 6.03125 -10.296875 L 6.15625 -10.296875 L 6.15625 -6.96875 L 6.03125 -6.96875 L 6.03125 -8.34375 C 6.03125 -8.726562 5.960938 -9.035156 5.828125 -9.265625 C 5.691406 -9.503906 5.523438 -9.671875 5.328125 -9.765625 C 5.128906 -9.867188 4.925781 -9.921875 4.71875 -9.921875 L 3.578125 -9.921875 L 3.578125 -0.765625 C 3.578125 -0.585938 3.609375 -0.453125 3.671875 -0.359375 C 3.734375 -0.265625 3.800781 -0.203125 3.875 -0.171875 C 3.957031 -0.140625 4.03125 -0.125 4.09375 -0.125 L 4.5625 -0.125 L 4.5625 0 L 1.875 0 L 1.875 -0.125 L 2.328125 -0.125 C 2.398438 -0.125 2.472656 -0.140625 2.546875 -0.171875 C 2.628906 -0.203125 2.695312 -0.265625 2.75 -0.359375 C 2.8125 -0.453125 2.84375 -0.585938 2.84375 -0.765625 L 2.84375 -9.921875 L 1.703125 -9.921875 C 1.503906 -9.921875 1.300781 -9.867188 1.09375 -9.765625 C 0.894531 -9.671875 0.726562 -9.503906 0.59375 -9.265625 C 0.457031 -9.035156 0.390625 -8.726562 0.390625 -8.34375 L 0.390625 -6.96875 Z M 0.265625 -6.96875 "/></g></g></g></g><g clip-path="url(#df99379ff2)"><g fill="#4c0303" fill-opacity="1"><g transform="translate(5.804094, 10.992759)"><g><path d="M 2.84375 0 L 0.203125 0 L 0.203125 -0.125 L 0.671875 -0.125 C 0.734375 -0.125 0.800781 -0.140625 0.875 -0.171875 C 0.957031 -0.203125 1.03125 -0.265625 1.09375 -0.359375 C 1.15625 -0.453125 1.1875 -0.585938 1.1875 -0.765625 L 1.1875 -8.890625 C 1.1875 -8.960938 1.175781 -9.046875 1.15625 -9.140625 C 1.144531 -9.234375 1.101562 -9.3125 1.03125 -9.375 C 0.957031 -9.445312 0.835938 -9.484375 0.671875 -9.484375 L 0.671875 -9.59375 C 1.023438 -9.59375 1.289062 -9.671875 1.46875 -9.828125 C 1.65625 -9.992188 1.75 -10.148438 1.75 -10.296875 L 1.875 -10.296875 L 1.875 -4.75 C 2.039062 -5.21875 2.285156 -5.578125 2.609375 -5.828125 C 2.941406 -6.078125 3.273438 -6.203125 3.609375 -6.203125 C 3.929688 -6.203125 4.1875 -6.132812 4.375 -6 C 4.570312 -5.863281 4.710938 -5.6875 4.796875 -5.46875 C 4.890625 -5.25 4.9375 -5.003906 4.9375 -4.734375 L 4.9375 -0.765625 C 4.9375 -0.585938 4.96875 -0.453125 5.03125 -0.359375 C 5.09375 -0.265625 5.160156 -0.203125 5.234375 -0.171875 C 5.316406 -0.140625 5.390625 -0.125 5.453125 -0.125 L 5.921875 -0.125 L 5.921875 0 L 3.265625 0 L 3.265625 -0.125 L 3.734375 -0.125 C 3.796875 -0.125 3.863281 -0.140625 3.9375 -0.171875 C 4.019531 -0.203125 4.09375 -0.265625 4.15625 -0.359375 C 4.21875 -0.453125 4.25 -0.585938 4.25 -0.765625 L 4.25 -5.015625 C 4.25 -5.066406 4.242188 -5.148438 4.234375 -5.265625 C 4.234375 -5.378906 4.21875 -5.492188 4.1875 -5.609375 C 4.15625 -5.734375 4.085938 -5.835938 3.984375 -5.921875 C 3.890625 -6.015625 3.753906 -6.0625 3.578125 -6.0625 C 3.304688 -6.0625 3.054688 -5.984375 2.828125 -5.828125 C 2.609375 -5.679688 2.414062 -5.476562 2.25 -5.21875 C 2.09375 -4.96875 1.96875 -4.695312 1.875 -4.40625 L 1.875 -0.765625 C 1.875 -0.585938 1.898438 -0.453125 1.953125 -0.359375 C 2.015625 -0.265625 2.085938 -0.203125 2.171875 -0.171875 C 2.253906 -0.140625 2.320312 -0.125 2.375 -0.125 L 2.84375 -0.125 Z M 2.84375 0 "/></g></g></g></g><g fill="#4c0303" fill-opacity="1"><g transform="translate(10.860983, 10.992759)"><g><path d="M 3.703125 0.203125 C 3.066406 0.203125 2.503906 0.0703125 2.015625 -0.1875 C 1.535156 -0.457031 1.160156 -0.832031 0.890625 -1.3125 C 0.628906 -1.789062 0.5 -2.351562 0.5 -3 C 0.5 -3.632812 0.628906 -4.191406 0.890625 -4.671875 C 1.160156 -5.160156 1.535156 -5.535156 2.015625 -5.796875 C 2.503906 -6.066406 3.066406 -6.203125 3.703125 -6.203125 C 4.222656 -6.203125 4.648438 -6.125 4.984375 -5.96875 C 5.316406 -5.820312 5.582031 -5.632812 5.78125 -5.40625 C 5.976562 -5.1875 6.117188 -4.960938 6.203125 -4.734375 C 6.296875 -4.515625 6.351562 -4.328125 6.375 -4.171875 C 6.40625 -4.023438 6.421875 -3.953125 6.421875 -3.953125 L 1.0625 -3.953125 C 1.050781 -3.867188 1.039062 -3.785156 1.03125 -3.703125 C 1.019531 -3.617188 1.015625 -3.53125 1.015625 -3.4375 C 1.015625 -2.84375 1.140625 -2.304688 1.390625 -1.828125 C 1.648438 -1.359375 2.015625 -0.984375 2.484375 -0.703125 C 2.960938 -0.421875 3.523438 -0.28125 4.171875 -0.28125 C 4.691406 -0.28125 5.144531 -0.390625 5.53125 -0.609375 C 5.914062 -0.835938 6.21875 -1.15625 6.4375 -1.5625 C 6.664062 -1.96875 6.78125 -2.445312 6.78125 -3 L 6.90625 -3 C 6.90625 -2.351562 6.769531 -1.789062 6.5 -1.3125 C 6.238281 -0.832031 5.863281 -0.457031 5.375 -0.1875 C 4.894531 0.0703125 4.335938 0.203125 3.703125 0.203125 Z M 1.078125 -4.078125 L 5.75 -4.078125 C 5.738281 -4.460938 5.625 -4.804688 5.40625 -5.109375 C 5.195312 -5.410156 4.925781 -5.644531 4.59375 -5.8125 C 4.257812 -5.988281 3.90625 -6.078125 3.53125 -6.078125 C 3.132812 -6.078125 2.765625 -5.988281 2.421875 -5.8125 C 2.085938 -5.632812 1.800781 -5.394531 1.5625 -5.09375 C 1.332031 -4.800781 1.171875 -4.460938 1.078125 -4.078125 Z M 1.078125 -4.078125 "/></g></g></g></g></g><g transform="matrix(1, 0, 0, 1, 4, 14)"><g clip-path="url(#9bb6fba2aa)"><g clip-path="url(#346e07038d)"><g fill="#4c0303" fill-opacity="1"><g transform="translate(0.0860291, 14.966979)"><g><path d="M 0.421875 -14.015625 L 4.15625 -14.015625 L 4.15625 -13.84375 L 3.515625 -13.84375 C 3.429688 -13.84375 3.332031 -13.820312 3.21875 -13.78125 C 3.113281 -13.738281 3.015625 -13.65625 2.921875 -13.53125 C 2.835938 -13.40625 2.796875 -13.210938 2.796875 -12.953125 L 2.796875 -0.171875 L 5.53125 -0.171875 C 6.09375 -0.171875 6.582031 -0.269531 7 -0.46875 C 7.414062 -0.664062 7.769531 -0.925781 8.0625 -1.25 C 8.351562 -1.582031 8.585938 -1.941406 8.765625 -2.328125 C 8.953125 -2.722656 9.101562 -3.109375 9.21875 -3.484375 C 9.332031 -3.859375 9.421875 -4.203125 9.484375 -4.515625 C 9.546875 -4.828125 9.59375 -5.066406 9.625 -5.234375 L 9.78125 -5.234375 L 8.828125 0.28125 L 8.640625 0.28125 C 8.660156 0.195312 8.644531 0.128906 8.59375 0.078125 C 8.539062 0.0234375 8.425781 0 8.25 0 L 0.421875 0 L 0.421875 -0.171875 L 1.0625 -0.171875 C 1.15625 -0.171875 1.253906 -0.191406 1.359375 -0.234375 C 1.472656 -0.273438 1.570312 -0.359375 1.65625 -0.484375 C 1.738281 -0.617188 1.78125 -0.8125 1.78125 -1.0625 L 1.78125 -12.953125 C 1.78125 -13.210938 1.738281 -13.40625 1.65625 -13.53125 C 1.570312 -13.65625 1.472656 -13.738281 1.359375 -13.78125 C 1.253906 -13.820312 1.15625 -13.84375 1.0625 -13.84375 L 0.421875 -13.84375 Z M 0.421875 -14.015625 "/></g></g></g></g><g clip-path="url(#57d352876b)"><g fill="#4c0303" fill-opacity="1"><g transform="translate(8.679158, 14.966979)"><g><path d="M 0.421875 -0.171875 L 0.921875 -0.171875 C 1.171875 -0.171875 1.378906 -0.242188 1.546875 -0.390625 C 1.722656 -0.535156 1.867188 -0.710938 1.984375 -0.921875 C 2.109375 -1.140625 2.207031 -1.335938 2.28125 -1.515625 C 2.3125 -1.578125 2.378906 -1.78125 2.484375 -2.125 C 2.597656 -2.46875 2.738281 -2.910156 2.90625 -3.453125 C 3.070312 -4.003906 3.253906 -4.617188 3.453125 -5.296875 C 3.660156 -5.972656 3.875 -6.675781 4.09375 -7.40625 C 4.320312 -8.132812 4.546875 -8.859375 4.765625 -9.578125 C 4.984375 -10.296875 5.1875 -10.96875 5.375 -11.59375 C 5.5625 -12.226562 5.726562 -12.78125 5.875 -13.25 C 6.019531 -13.71875 6.125 -14.066406 6.1875 -14.296875 L 6.359375 -14.296875 C 6.429688 -14.066406 6.535156 -13.71875 6.671875 -13.25 C 6.816406 -12.78125 6.984375 -12.226562 7.171875 -11.59375 C 7.359375 -10.96875 7.554688 -10.296875 7.765625 -9.578125 C 7.984375 -8.859375 8.203125 -8.132812 8.421875 -7.40625 C 8.648438 -6.675781 8.863281 -5.972656 9.0625 -5.296875 C 9.269531 -4.617188 9.457031 -4.003906 9.625 -3.453125 C 9.789062 -2.910156 9.925781 -2.46875 10.03125 -2.125 C 10.144531 -1.78125 10.21875 -1.578125 10.25 -1.515625 C 10.332031 -1.335938 10.429688 -1.140625 10.546875 -0.921875 C 10.660156 -0.710938 10.800781 -0.535156 10.96875 -0.390625 C 11.144531 -0.242188 11.359375 -0.171875 11.609375 -0.171875 L 12.109375 -0.171875 L 12.109375 0 L 8.359375 0 L 8.359375 -0.15625 L 9 -0.15625 C 9.101562 -0.15625 9.203125 -0.171875 9.296875 -0.203125 C 9.398438 -0.234375 9.453125 -0.335938 9.453125 -0.515625 C 9.453125 -0.617188 9.378906 -0.945312 9.234375 -1.5 C 9.085938 -2.050781 8.894531 -2.71875 8.65625 -3.5 L 3.21875 -3.5 C 3.101562 -3.019531 3.007812 -2.578125 2.9375 -2.171875 C 2.875 -1.773438 2.84375 -1.457031 2.84375 -1.21875 C 2.84375 -0.820312 2.945312 -0.546875 3.15625 -0.390625 C 3.363281 -0.234375 3.582031 -0.15625 3.8125 -0.15625 L 4.4375 -0.15625 L 4.4375 0 L 0.421875 0 Z M 4.578125 -8.265625 C 4.335938 -7.492188 4.097656 -6.707031 3.859375 -5.90625 C 3.628906 -5.101562 3.429688 -4.359375 3.265625 -3.671875 L 8.609375 -3.671875 C 8.429688 -4.273438 8.238281 -4.910156 8.03125 -5.578125 C 7.820312 -6.253906 7.613281 -6.929688 7.40625 -7.609375 C 7.207031 -8.296875 7.007812 -8.941406 6.8125 -9.546875 C 6.625 -10.148438 6.453125 -10.6875 6.296875 -11.15625 C 6.148438 -11.632812 6.035156 -12.007812 5.953125 -12.28125 C 5.867188 -12.5625 5.828125 -12.703125 5.828125 -12.703125 L 5.890625 -12.53125 C 5.753906 -12.070312 5.566406 -11.460938 5.328125 -10.703125 C 5.097656 -9.953125 4.847656 -9.140625 4.578125 -8.265625 Z M 4.578125 -8.265625 "/></g></g></g></g><g clip-path="url(#44a27c78fb)"><g fill="#4c0303" fill-opacity="1"><g transform="translate(19.879691, 14.966979)"><g><path d="M 7.828125 -3.34375 C 7.828125 -3.894531 7.703125 -4.367188 7.453125 -4.765625 C 7.203125 -5.160156 6.867188 -5.503906 6.453125 -5.796875 C 6.035156 -6.085938 5.578125 -6.359375 5.078125 -6.609375 C 4.585938 -6.867188 4.09375 -7.132812 3.59375 -7.40625 C 3.09375 -7.675781 2.632812 -7.976562 2.21875 -8.3125 C 1.800781 -8.65625 1.46875 -9.0625 1.21875 -9.53125 C 0.96875 -10.007812 0.84375 -10.578125 0.84375 -11.234375 C 0.84375 -11.910156 1.015625 -12.472656 1.359375 -12.921875 C 1.703125 -13.378906 2.15625 -13.722656 2.71875 -13.953125 C 3.289062 -14.179688 3.910156 -14.296875 4.578125 -14.296875 C 5.023438 -14.296875 5.40625 -14.265625 5.71875 -14.203125 C 6.039062 -14.140625 6.316406 -14.070312 6.546875 -14 C 6.773438 -13.925781 6.988281 -13.859375 7.1875 -13.796875 C 7.382812 -13.734375 7.585938 -13.703125 7.796875 -13.703125 C 7.941406 -13.703125 8.09375 -13.734375 8.25 -13.796875 C 8.414062 -13.867188 8.5625 -14.035156 8.6875 -14.296875 L 8.828125 -14.296875 L 6.28125 -7.15625 C 6.726562 -6.894531 7.132812 -6.597656 7.5 -6.265625 C 7.875 -5.929688 8.171875 -5.53125 8.390625 -5.0625 C 8.609375 -4.59375 8.71875 -4.03125 8.71875 -3.375 C 8.71875 -2.71875 8.566406 -2.113281 8.265625 -1.5625 C 7.972656 -1.007812 7.53125 -0.5625 6.9375 -0.21875 C 6.351562 0.113281 5.617188 0.28125 4.734375 0.28125 C 4.066406 0.28125 3.5 0.226562 3.03125 0.125 C 2.570312 0.03125 2.164062 -0.015625 1.8125 -0.015625 C 1.632812 -0.015625 1.476562 0.00390625 1.34375 0.046875 C 1.21875 0.0859375 1.109375 0.160156 1.015625 0.265625 L 0.84375 0.265625 L 0.84375 -7.015625 L 1.015625 -7.015625 L 1.015625 -3.546875 C 1.015625 -2.804688 1.113281 -2.195312 1.3125 -1.71875 C 1.507812 -1.25 1.78125 -0.878906 2.125 -0.609375 C 2.476562 -0.335938 2.878906 -0.148438 3.328125 -0.046875 C 3.785156 0.0546875 4.253906 0.109375 4.734375 0.109375 C 5.304688 0.109375 5.828125 -0.015625 6.296875 -0.265625 C 6.765625 -0.515625 7.132812 -0.894531 7.40625 -1.40625 C 7.6875 -1.925781 7.828125 -2.570312 7.828125 -3.34375 Z M 4.578125 -14.125 C 3.992188 -14.125 3.507812 -14.035156 3.125 -13.859375 C 2.75 -13.679688 2.457031 -13.460938 2.25 -13.203125 C 2.039062 -12.941406 1.894531 -12.671875 1.8125 -12.390625 C 1.726562 -12.109375 1.6875 -11.859375 1.6875 -11.640625 C 1.6875 -11.003906 1.820312 -10.46875 2.09375 -10.03125 C 2.363281 -9.601562 2.71875 -9.234375 3.15625 -8.921875 C 3.601562 -8.609375 4.082031 -8.320312 4.59375 -8.0625 C 5.113281 -7.800781 5.628906 -7.523438 6.140625 -7.234375 C 6.296875 -7.679688 6.46875 -8.160156 6.65625 -8.671875 C 6.851562 -9.191406 7.023438 -9.707031 7.171875 -10.21875 C 7.328125 -10.726562 7.414062 -11.21875 7.4375 -11.6875 C 7.46875 -12.15625 7.40625 -12.570312 7.25 -12.9375 C 7.09375 -13.3125 6.800781 -13.601562 6.375 -13.8125 C 5.957031 -14.019531 5.359375 -14.125 4.578125 -14.125 Z M 4.578125 -14.125 "/></g></g></g></g><g clip-path="url(#e29429931c)"><g fill="#4c0303" fill-opacity="1"><g transform="translate(28.220488, 14.966979)"><g><path d="M 0.421875 -0.171875 L 1.0625 -0.171875 C 1.15625 -0.171875 1.253906 -0.191406 1.359375 -0.234375 C 1.472656 -0.273438 1.570312 -0.359375 1.65625 -0.484375 C 1.738281 -0.617188 1.78125 -0.8125 1.78125 -1.0625 L 1.78125 -12.953125 C 1.78125 -13.210938 1.738281 -13.40625 1.65625 -13.53125 C 1.570312 -13.65625 1.472656 -13.738281 1.359375 -13.78125 C 1.253906 -13.820312 1.15625 -13.84375 1.0625 -13.84375 L 0.421875 -13.84375 L 0.421875 -14.015625 L 4.15625 -14.015625 L 4.15625 -13.84375 L 3.515625 -13.84375 C 3.429688 -13.84375 3.332031 -13.820312 3.21875 -13.78125 C 3.113281 -13.738281 3.015625 -13.65625 2.921875 -13.53125 C 2.835938 -13.40625 2.796875 -13.210938 2.796875 -12.953125 L 2.796875 -9.046875 L 8.890625 -9.046875 L 8.890625 -12.953125 C 8.890625 -13.210938 8.847656 -13.40625 8.765625 -13.53125 C 8.679688 -13.65625 8.582031 -13.738281 8.46875 -13.78125 C 8.363281 -13.820312 8.265625 -13.84375 8.171875 -13.84375 L 7.53125 -13.84375 L 7.53125 -14.015625 L 11.265625 -14.015625 L 11.265625 -13.84375 L 10.625 -13.84375 C 10.539062 -13.84375 10.441406 -13.820312 10.328125 -13.78125 C 10.210938 -13.738281 10.113281 -13.65625 10.03125 -13.53125 C 9.945312 -13.40625 9.90625 -13.210938 9.90625 -12.953125 L 9.90625 -1.0625 C 9.90625 -0.8125 9.945312 -0.617188 10.03125 -0.484375 C 10.113281 -0.359375 10.210938 -0.273438 10.328125 -0.234375 C 10.441406 -0.191406 10.539062 -0.171875 10.625 -0.171875 L 11.265625 -0.171875 L 11.265625 0 L 7.53125 0 L 7.53125 -0.171875 L 8.171875 -0.171875 C 8.265625 -0.171875 8.363281 -0.191406 8.46875 -0.234375 C 8.582031 -0.273438 8.679688 -0.359375 8.765625 -0.484375 C 8.847656 -0.617188 8.890625 -0.8125 8.890625 -1.0625 L 8.890625 -8.875 L 2.796875 -8.875 L 2.796875 -1.0625 C 2.796875 -0.8125 2.835938 -0.617188 2.921875 -0.484375 C 3.015625 -0.359375 3.113281 -0.273438 3.21875 -0.234375 C 3.332031 -0.191406 3.429688 -0.171875 3.515625 -0.171875 L 4.15625 -0.171875 L 4.15625 0 L 0.421875 0 Z M 0.421875 -0.171875 "/></g></g></g></g></g></g></svg>