<svg xmlns="http://www.w3.org/2000/svg" xmlns:xlink="http://www.w3.org/1999/xlink" width="500" zoomAndPan="magnify" viewBox="0 0 375 374.999991" height="500" preserveAspectRatio="xMidYMid meet" version="1.0"><defs><g/><clipPath id="c041826a2a"><rect x="0" width="328" y="0" height="135"/></clipPath></defs><g transform="matrix(1, 0, 0, 1, 28, 154)"><g clip-path="url(#c041826a2a)"><g fill="#4c0303" fill-opacity="1"><g transform="translate(1.412732, 89.747067)"><g><path d="M 69 -60.421875 C 70.851562 -60.421875 71.78125 -59.53125 71.78125 -57.75 C 71.78125 -56.5625 71.390625 -55.300781 70.609375 -53.96875 C 69.828125 -52.632812 68.914062 -51.445312 67.875 -50.40625 C 69.8125 -48.101562 70.703125 -45.320312 70.546875 -42.0625 C 70.546875 -39.320312 69.785156 -36.335938 68.265625 -33.109375 C 66.742188 -29.878906 64.5 -26.707031 61.53125 -23.59375 C 59.082031 -20.84375 56.265625 -18.148438 53.078125 -15.515625 C 49.890625 -12.890625 46.515625 -10.5 42.953125 -8.34375 C 43.328125 -6.195312 44.144531 -4.617188 45.40625 -3.609375 C 46.664062 -2.609375 48.1875 -2.109375 49.96875 -2.109375 C 51.59375 -2.109375 53.390625 -2.460938 55.359375 -3.171875 C 57.328125 -3.878906 59.203125 -4.863281 60.984375 -6.125 C 61.273438 -6.269531 61.53125 -6.414062 61.75 -6.5625 C 61.976562 -6.707031 62.128906 -6.671875 62.203125 -6.453125 C 62.429688 -6.304688 62.207031 -5.898438 61.53125 -5.234375 C 59.976562 -3.671875 58.015625 -2.164062 55.640625 -0.71875 C 53.265625 0.726562 50.554688 1.453125 47.515625 1.453125 C 44.847656 1.453125 42.734375 0.800781 41.171875 -0.5 C 39.617188 -1.800781 38.46875 -3.488281 37.71875 -5.5625 C 33.9375 -3.632812 30.097656 -2.078125 26.203125 -0.890625 C 22.304688 0.296875 18.617188 0.890625 15.140625 0.890625 C 13.429688 0.890625 11.722656 0.664062 10.015625 0.21875 C 8.304688 -0.21875 6.914062 -1.007812 5.84375 -2.15625 C 4.769531 -3.3125 4.234375 -4.929688 4.234375 -7.015625 C 4.234375 -10.054688 5.363281 -12.984375 7.625 -15.796875 C 9.882812 -18.617188 12.757812 -21.253906 16.25 -23.703125 C 15.945312 -27.191406 16.664062 -30.695312 18.40625 -34.21875 C 20.15625 -37.738281 22.738281 -41.054688 26.15625 -44.171875 C 30.226562 -47.890625 34.859375 -50.75 40.046875 -52.75 C 45.242188 -54.75 50.253906 -55.75 55.078125 -55.75 C 55.671875 -55.75 56.410156 -55.710938 57.296875 -55.640625 C 58.191406 -55.566406 58.863281 -55.492188 59.3125 -55.421875 C 60.5 -56.304688 62.035156 -57.359375 63.921875 -58.578125 C 65.816406 -59.804688 67.507812 -60.421875 69 -60.421875 Z M 70.21875 -57.640625 C 70.21875 -58.015625 70.125 -58.367188 69.9375 -58.703125 C 69.75 -59.035156 69.359375 -59.203125 68.765625 -59.203125 C 67.953125 -59.203125 66.820312 -58.773438 65.375 -57.921875 C 63.925781 -57.066406 62.644531 -56.046875 61.53125 -54.859375 C 62.5 -54.566406 63.445312 -54.125 64.375 -53.53125 C 65.300781 -52.9375 66.132812 -52.265625 66.875 -51.515625 C 67.695312 -52.335938 68.457031 -53.320312 69.15625 -54.46875 C 69.863281 -55.625 70.21875 -56.679688 70.21875 -57.640625 Z M 57.984375 -54.078125 C 57.535156 -54.234375 56.566406 -54.3125 55.078125 -54.3125 C 50.773438 -54.3125 46.140625 -53.328125 41.171875 -51.359375 C 36.203125 -49.390625 31.75 -46.398438 27.8125 -42.390625 C 25.21875 -39.796875 23.125 -37.015625 21.53125 -34.046875 C 19.9375 -31.078125 19.101562 -28.1875 19.03125 -25.375 C 22.664062 -27.675781 26.6875 -29.828125 31.09375 -31.828125 C 35.507812 -33.828125 40.019531 -35.71875 44.625 -37.5 C 46.925781 -41.4375 49.242188 -44.753906 51.578125 -47.453125 C 53.910156 -50.160156 56.046875 -52.367188 57.984375 -54.078125 Z M 65.765625 -50.40625 C 65.097656 -51.226562 64.265625 -51.914062 63.265625 -52.46875 C 62.265625 -53.019531 61.316406 -53.410156 60.421875 -53.640625 C 59.234375 -52.378906 57.582031 -50.523438 55.46875 -48.078125 C 53.351562 -45.628906 51.40625 -42.695312 49.625 -39.28125 C 52.820312 -40.769531 55.789062 -42.476562 58.53125 -44.40625 C 61.28125 -46.332031 63.691406 -48.332031 65.765625 -50.40625 Z M 66.546875 -49.078125 C 64.691406 -47.148438 62.242188 -45.128906 59.203125 -43.015625 C 56.160156 -40.898438 52.671875 -38.914062 48.734375 -37.0625 C 47.921875 -35.207031 47.101562 -33.054688 46.28125 -30.609375 C 45.46875 -28.160156 44.726562 -25.597656 44.0625 -22.921875 C 43.46875 -20.472656 43.0625 -18.191406 42.84375 -16.078125 C 42.625 -13.960938 42.550781 -12.050781 42.625 -10.34375 C 45.882812 -12.351562 49.015625 -14.632812 52.015625 -17.1875 C 55.023438 -19.75 57.679688 -22.476562 59.984375 -25.375 C 62.503906 -28.414062 64.503906 -31.378906 65.984375 -34.265625 C 67.472656 -37.160156 68.21875 -40.054688 68.21875 -42.953125 C 68.21875 -45.398438 67.660156 -47.441406 66.546875 -49.078125 Z M 43.734375 -35.28125 C 40.023438 -33.863281 35.941406 -31.988281 31.484375 -29.65625 C 27.035156 -27.320312 23.109375 -24.632812 19.703125 -21.59375 C 21.035156 -18.695312 23.628906 -17.25 27.484375 -17.25 C 28.453125 -17.25 29.414062 -17.359375 30.375 -17.578125 C 30.894531 -17.804688 31.191406 -17.804688 31.265625 -17.578125 C 31.421875 -17.359375 31.125 -17.0625 30.375 -16.6875 C 29.257812 -16.25 28 -16.03125 26.59375 -16.03125 C 24.882812 -16.03125 23.25 -16.363281 21.6875 -17.03125 C 20.132812 -17.695312 18.878906 -18.660156 17.921875 -19.921875 C 15.910156 -17.992188 14.21875 -15.914062 12.84375 -13.6875 C 11.476562 -11.457031 10.796875 -9.378906 10.796875 -7.453125 C 10.796875 -5.304688 11.390625 -3.769531 12.578125 -2.84375 C 13.765625 -1.914062 15.359375 -1.453125 17.359375 -1.453125 C 20.179688 -1.453125 23.316406 -1.988281 26.765625 -3.0625 C 30.210938 -4.132812 33.753906 -5.597656 37.390625 -7.453125 C 37.015625 -9.304688 36.921875 -11.398438 37.109375 -13.734375 C 37.296875 -16.078125 37.757812 -18.546875 38.5 -21.140625 C 39.164062 -23.515625 40 -26.054688 41 -28.765625 C 42.007812 -31.472656 42.921875 -33.644531 43.734375 -35.28125 Z M 43.734375 -35.28125 "/></g></g></g><g fill="#4c0303" fill-opacity="1"><g transform="translate(71.852633, 89.747067)"><g/></g></g><g fill="#4c0303" fill-opacity="1"><g transform="translate(94.998766, 89.747067)"><g><path d="M 115.515625 -72 C 115.515625 -71.695312 115.195312 -71.566406 114.5625 -71.609375 C 113.9375 -71.648438 113.03125 -71.484375 111.84375 -71.109375 C 110.945312 -70.804688 109.796875 -70.300781 108.390625 -69.59375 C 106.984375 -68.894531 105.609375 -68.132812 104.265625 -67.3125 C 102.929688 -66.5 101.894531 -65.796875 101.15625 -65.203125 C 102.34375 -63.796875 103.363281 -62.09375 104.21875 -60.09375 C 105.070312 -58.09375 105.5 -55.941406 105.5 -53.640625 C 105.5 -52.222656 105.273438 -50.753906 104.828125 -49.234375 C 104.378906 -47.710938 103.632812 -46.25 102.59375 -44.84375 C 100.820312 -42.320312 98.582031 -40.242188 95.875 -38.609375 C 93.164062 -36.984375 90.398438 -35.742188 87.578125 -34.890625 C 84.753906 -34.035156 82.15625 -33.457031 79.78125 -33.15625 C 82.382812 -31.601562 84.40625 -29.601562 85.84375 -27.15625 C 87.289062 -24.707031 88.015625 -22.070312 88.015625 -19.25 C 88.015625 -17.84375 87.8125 -16.394531 87.40625 -14.90625 C 87 -13.425781 86.351562 -11.941406 85.46875 -10.453125 C 83.382812 -7.046875 80.394531 -4.15625 76.5 -1.78125 C 72.601562 0.59375 68.097656 2.375 62.984375 3.5625 C 57.867188 4.75 52.488281 5.34375 46.84375 5.34375 C 41.507812 5.34375 36.800781 5.0625 32.71875 4.5 C 28.632812 3.945312 24.515625 3.1875 20.359375 2.21875 C 19.242188 2 18.1875 1.738281 17.1875 1.4375 C 16.1875 1.144531 15.207031 0.960938 14.25 0.890625 C 16.03125 6.972656 19.144531 11.515625 23.59375 14.515625 C 28.039062 17.523438 33.421875 19.03125 39.734375 19.03125 C 42.691406 19.03125 45.414062 18.617188 47.90625 17.796875 C 50.394531 16.984375 52.453125 16.019531 54.078125 14.90625 C 54.453125 14.613281 54.84375 14.335938 55.25 14.078125 C 55.65625 13.816406 55.894531 13.757812 55.96875 13.90625 C 56.269531 14.132812 56.289062 14.429688 56.03125 14.796875 C 55.769531 15.171875 55.453125 15.503906 55.078125 15.796875 C 53.296875 17.140625 51.085938 18.273438 48.453125 19.203125 C 45.828125 20.128906 42.769531 20.59375 39.28125 20.59375 C 32.3125 20.59375 26.488281 18.863281 21.8125 15.40625 C 17.132812 11.957031 14.019531 7.226562 12.46875 1.21875 C 11.28125 1.519531 9.679688 1.816406 7.671875 2.109375 C 5.671875 2.410156 3.96875 2.5625 2.5625 2.5625 C 1.375 2.5625 0.351562 2.429688 -0.5 2.171875 C -1.351562 1.910156 -1.816406 1.445312 -1.890625 0.78125 C -1.890625 0.0390625 -1.460938 -0.566406 -0.609375 -1.046875 C 0.242188 -1.535156 1.28125 -1.910156 2.5 -2.171875 C 3.726562 -2.429688 4.898438 -2.5625 6.015625 -2.5625 C 6.972656 -2.5625 7.972656 -2.523438 9.015625 -2.453125 C 10.054688 -2.378906 10.945312 -2.265625 11.6875 -2.109375 C 11.613281 -2.929688 11.519531 -3.914062 11.40625 -5.0625 C 11.289062 -6.207031 11.234375 -7.707031 11.234375 -9.5625 C 11.234375 -14.3125 11.972656 -19.335938 13.453125 -24.640625 C 14.941406 -29.953125 17.113281 -35.128906 19.96875 -40.171875 C 22.832031 -45.210938 26.265625 -49.703125 30.265625 -53.640625 C 36.578125 -59.867188 43.941406 -64.671875 52.359375 -68.046875 C 60.773438 -71.421875 69.695312 -73.109375 79.125 -73.109375 C 83.945312 -73.109375 88.132812 -72.441406 91.6875 -71.109375 C 95.25 -69.773438 98 -68.253906 99.9375 -66.546875 C 101.269531 -67.515625 103.046875 -68.570312 105.265625 -69.71875 C 107.492188 -70.863281 109.425781 -71.660156 111.0625 -72.109375 C 111.726562 -72.328125 112.300781 -72.472656 112.78125 -72.546875 C 113.257812 -72.628906 113.6875 -72.671875 114.0625 -72.671875 C 115.03125 -72.671875 115.515625 -72.445312 115.515625 -72 Z M 98.59375 -65.65625 C 97.039062 -67.132812 94.59375 -68.46875 91.25 -69.65625 C 87.914062 -70.84375 83.945312 -71.4375 79.34375 -71.4375 C 72.957031 -71.4375 67 -70.523438 61.46875 -68.703125 C 55.945312 -66.890625 50.867188 -64.476562 46.234375 -61.46875 C 41.597656 -58.46875 37.425781 -55.148438 33.71875 -51.515625 C 29.269531 -47.210938 25.523438 -42.613281 22.484375 -37.71875 C 19.441406 -32.820312 17.117188 -27.925781 15.515625 -23.03125 C 13.921875 -18.132812 13.125 -13.535156 13.125 -9.234375 C 13.125 -7.597656 13.160156 -6.164062 13.234375 -4.9375 C 13.316406 -3.71875 13.46875 -2.664062 13.6875 -1.78125 C 14.351562 -1.5625 15.28125 -1.453125 16.46875 -1.453125 C 20.695312 -1.453125 25.128906 -2.523438 29.765625 -4.671875 C 34.398438 -6.828125 39.476562 -10.238281 45 -14.90625 C 50.53125 -19.582031 56.675781 -25.664062 63.4375 -33.15625 C 69.289062 -39.757812 75.238281 -45.972656 81.28125 -51.796875 C 87.332031 -57.617188 93.101562 -62.238281 98.59375 -65.65625 Z M 99.9375 -64.203125 C 96.375 -61.390625 93.015625 -58.3125 89.859375 -54.96875 C 86.703125 -51.632812 83.789062 -48.316406 81.125 -45.015625 C 78.457031 -41.710938 75.972656 -38.6875 73.671875 -35.9375 C 74.785156 -36.164062 76.304688 -35.613281 78.234375 -34.28125 C 81.203125 -34.570312 84.460938 -35.53125 88.015625 -37.15625 C 91.578125 -38.789062 94.957031 -41.835938 98.15625 -46.296875 C 99.632812 -48.367188 100.648438 -50.332031 101.203125 -52.1875 C 101.765625 -54.039062 102.046875 -55.675781 102.046875 -57.09375 C 102.046875 -59.019531 101.785156 -60.578125 101.265625 -61.765625 C 100.742188 -62.953125 100.300781 -63.765625 99.9375 -64.203125 Z M 79.90625 -12.015625 C 81.007812 -13.722656 81.820312 -15.429688 82.34375 -17.140625 C 82.863281 -18.847656 83.125 -20.515625 83.125 -22.140625 C 83.195312 -24.585938 82.675781 -26.8125 81.5625 -28.8125 C 80.457031 -30.820312 78.828125 -32.269531 76.671875 -33.15625 C 76.378906 -33.007812 75.972656 -32.9375 75.453125 -32.9375 C 74.785156 -32.9375 74.15625 -33.101562 73.5625 -33.4375 C 72.96875 -33.769531 72.671875 -34.234375 72.671875 -34.828125 C 71.554688 -33.273438 70.050781 -31.441406 68.15625 -29.328125 C 66.269531 -27.210938 64.285156 -25.113281 62.203125 -23.03125 C 60.128906 -20.957031 58.128906 -19.101562 56.203125 -17.46875 C 51.078125 -13.164062 46.210938 -9.804688 41.609375 -7.390625 C 37.015625 -4.984375 32.734375 -3.242188 28.765625 -2.171875 C 24.796875 -1.097656 21.101562 -0.375 17.6875 0 C 21.101562 0.664062 25.238281 1.425781 30.09375 2.28125 C 34.957031 3.132812 40.539062 3.5625 46.84375 3.5625 C 53.820312 3.5625 60.222656 2.300781 66.046875 -0.21875 C 71.867188 -2.738281 76.488281 -6.671875 79.90625 -12.015625 Z M 79.90625 -12.015625 "/></g></g></g><g fill="#4c0303" fill-opacity="1"><g transform="translate(188.80736, 89.747067)"><g><path d="M 18.03125 -3.671875 C 16.175781 -2.410156 14.429688 -1.351562 12.796875 -0.5 C 11.160156 0.351562 9.710938 0.78125 8.453125 0.78125 C 5.859375 0.78125 4.5625 -0.554688 4.5625 -3.234375 C 4.5625 -5.523438 5.582031 -8.003906 7.625 -10.671875 C 9.664062 -13.347656 12.425781 -16.207031 15.90625 -19.25 C 17.320312 -20.507812 18.789062 -21.828125 20.3125 -23.203125 C 21.832031 -24.578125 23.128906 -25.800781 24.203125 -26.875 C 25.273438 -27.945312 25.773438 -28.671875 25.703125 -29.046875 C 25.628906 -29.492188 25.40625 -29.789062 25.03125 -29.9375 C 24.664062 -30.082031 24.070312 -30.34375 23.25 -30.71875 C 22.289062 -31.238281 21.625 -31.71875 21.25 -32.15625 C 20.0625 -30.820312 18.765625 -29.445312 17.359375 -28.03125 C 15.953125 -26.625 14.503906 -25.179688 13.015625 -23.703125 C 11.015625 -21.847656 8.828125 -19.828125 6.453125 -17.640625 C 4.078125 -15.453125 2.113281 -13.726562 0.5625 -12.46875 C 0.332031 -12.238281 0.0703125 -12.085938 -0.21875 -12.015625 C -0.519531 -11.941406 -0.742188 -12.015625 -0.890625 -12.234375 C -1.035156 -12.460938 -1.035156 -12.707031 -0.890625 -12.96875 C -0.742188 -13.226562 -0.554688 -13.429688 -0.328125 -13.578125 C 1.453125 -15.128906 3.453125 -16.90625 5.671875 -18.90625 C 7.898438 -20.914062 9.976562 -22.847656 11.90625 -24.703125 C 13.757812 -26.410156 15.390625 -27.988281 16.796875 -29.4375 C 18.210938 -30.882812 19.515625 -32.3125 20.703125 -33.71875 C 20.703125 -34.53125 21.109375 -35.492188 21.921875 -36.609375 C 22.734375 -37.722656 23.769531 -38.765625 25.03125 -39.734375 C 26.070312 -40.472656 27.035156 -41.046875 27.921875 -41.453125 C 28.816406 -41.859375 29.5625 -42.097656 30.15625 -42.171875 C 30.375 -42.242188 30.757812 -42.316406 31.3125 -42.390625 C 31.875 -42.472656 32.414062 -42.515625 32.9375 -42.515625 C 34.050781 -42.515625 34.609375 -42.363281 34.609375 -42.0625 C 34.609375 -41.84375 34.144531 -41.398438 33.21875 -40.734375 C 32.289062 -40.066406 31.269531 -39.414062 30.15625 -38.78125 C 29.039062 -38.144531 28.222656 -37.679688 27.703125 -37.390625 C 26.515625 -36.648438 25.398438 -35.90625 24.359375 -35.15625 C 23.328125 -34.414062 22.8125 -33.75 22.8125 -33.15625 C 22.8125 -32.863281 23.179688 -32.550781 23.921875 -32.21875 C 24.660156 -31.882812 25.21875 -31.644531 25.59375 -31.5 C 27.664062 -30.820312 28.703125 -29.78125 28.703125 -28.375 C 28.703125 -26.894531 28.144531 -25.316406 27.03125 -23.640625 C 25.925781 -21.972656 24.59375 -20.34375 23.03125 -18.75 C 21.476562 -17.15625 20.070312 -15.765625 18.8125 -14.578125 C 16.726562 -12.648438 14.90625 -10.941406 13.34375 -9.453125 C 11.789062 -7.972656 10.492188 -6.601562 9.453125 -5.34375 C 8.265625 -3.9375 7.671875 -2.820312 7.671875 -2 C 7.671875 -1.257812 8.117188 -0.890625 9.015625 -0.890625 C 10.054688 -0.890625 11.484375 -1.425781 13.296875 -2.5 C 15.117188 -3.582031 16.625 -4.53125 17.8125 -5.34375 C 19.738281 -6.75 21.8125 -8.394531 24.03125 -10.28125 C 26.257812 -12.175781 28.113281 -13.71875 29.59375 -14.90625 C 29.820312 -15.132812 30.082031 -15.320312 30.375 -15.46875 C 30.675781 -15.613281 30.9375 -15.578125 31.15625 -15.359375 C 31.457031 -15.054688 31.457031 -14.738281 31.15625 -14.40625 C 30.863281 -14.070312 30.566406 -13.796875 30.265625 -13.578125 C 28.554688 -12.085938 26.609375 -10.429688 24.421875 -8.609375 C 22.234375 -6.796875 20.101562 -5.148438 18.03125 -3.671875 Z M 18.03125 -3.671875 "/></g></g></g><g fill="#4c0303" fill-opacity="1"><g transform="translate(217.07234, 89.747067)"><g><path d="M 27.59375 -32.9375 C 30.414062 -32.9375 31.828125 -31.863281 31.828125 -29.71875 C 31.828125 -28.082031 31.007812 -25.875 29.375 -23.09375 C 27.75 -20.3125 25.191406 -17.175781 21.703125 -13.6875 C 17.242188 -9.164062 13.050781 -5.585938 9.125 -2.953125 C 5.195312 -0.316406 2.117188 1 -0.109375 1 C -3.296875 1 -4.890625 -0.742188 -4.890625 -4.234375 C -4.890625 -6.234375 -4.128906 -8.660156 -2.609375 -11.515625 C -1.085938 -14.367188 1.039062 -17.207031 3.78125 -20.03125 C 6.375 -22.625 9.117188 -24.882812 12.015625 -26.8125 C 14.910156 -28.75 17.726562 -30.253906 20.46875 -31.328125 C 23.21875 -32.398438 25.59375 -32.9375 27.59375 -32.9375 Z M 30.046875 -30.15625 C 30.046875 -30.96875 29.597656 -31.375 28.703125 -31.375 C 27.003906 -31.375 24.257812 -29.945312 20.46875 -27.09375 C 16.6875 -24.238281 12.5 -20.472656 7.90625 -15.796875 C 5.382812 -13.054688 3.140625 -10.460938 1.171875 -8.015625 C -0.796875 -5.566406 -1.78125 -3.632812 -1.78125 -2.21875 C -1.78125 -0.957031 -1.1875 -0.328125 0 -0.328125 C 1.707031 -0.328125 4.414062 -1.847656 8.125 -4.890625 C 11.832031 -7.929688 15.945312 -11.789062 20.46875 -16.46875 C 21.738281 -17.800781 23.113281 -19.335938 24.59375 -21.078125 C 26.070312 -22.828125 27.347656 -24.535156 28.421875 -26.203125 C 29.503906 -27.867188 30.046875 -29.1875 30.046875 -30.15625 Z M 30.046875 -30.15625 "/></g></g><g transform="translate(244.892199, 89.747067)"><g><path d="M 27.15625 -30.375 C 23.8125 -28.226562 20.523438 -25.765625 17.296875 -22.984375 C 14.078125 -20.203125 11.222656 -17.566406 8.734375 -15.078125 C 6.242188 -12.585938 4.367188 -10.640625 3.109375 -9.234375 C 1.773438 -7.753906 0.703125 -6.363281 -0.109375 -5.0625 C -0.921875 -3.757812 -1.328125 -2.738281 -1.328125 -2 C -1.328125 -1.257812 -0.957031 -0.890625 -0.21875 -0.890625 C 0.519531 -0.890625 1.535156 -1.238281 2.828125 -1.9375 C 4.128906 -2.644531 5.484375 -3.476562 6.890625 -4.4375 C 8.304688 -5.40625 9.535156 -6.335938 10.578125 -7.234375 C 13.316406 -9.609375 15.816406 -11.816406 18.078125 -13.859375 C 20.347656 -15.898438 22.148438 -17.550781 23.484375 -18.8125 C 26.222656 -21.40625 28.816406 -23.644531 31.265625 -25.53125 C 33.710938 -27.425781 36.195312 -28.859375 38.71875 -29.828125 C 39.019531 -29.898438 39.375 -29.988281 39.78125 -30.09375 C 40.1875 -30.207031 40.425781 -30.265625 40.5 -30.265625 C 41.09375 -30.265625 41.390625 -30.082031 41.390625 -29.71875 C 41.390625 -29.488281 41.171875 -29.148438 40.734375 -28.703125 C 35.835938 -24.992188 31.828125 -21.394531 28.703125 -17.90625 C 25.585938 -14.425781 23.179688 -11.570312 21.484375 -9.34375 C 20.367188 -7.9375 19.457031 -6.617188 18.75 -5.390625 C 18.039062 -4.171875 17.6875 -3.191406 17.6875 -2.453125 C 17.6875 -1.410156 18.171875 -0.890625 19.140625 -0.890625 C 19.953125 -0.890625 20.96875 -1.1875 22.1875 -1.78125 C 23.414062 -2.375 24.679688 -3.113281 25.984375 -4 C 27.285156 -4.894531 28.414062 -5.710938 29.375 -6.453125 C 32.050781 -8.609375 34.910156 -11.222656 37.953125 -14.296875 C 40.992188 -17.378906 43.921875 -20.847656 46.734375 -24.703125 C 47.398438 -25.597656 47.828125 -26.335938 48.015625 -26.921875 C 48.203125 -27.515625 48.296875 -28.035156 48.296875 -28.484375 C 48.296875 -29.003906 48.21875 -29.429688 48.0625 -29.765625 C 47.914062 -30.097656 47.84375 -30.414062 47.84375 -30.71875 C 47.84375 -31.082031 48.507812 -31.539062 49.84375 -32.09375 C 51.1875 -32.65625 52.453125 -32.9375 53.640625 -32.9375 C 54.898438 -32.9375 55.53125 -32.53125 55.53125 -31.71875 C 55.53125 -31.195312 55.269531 -30.488281 54.75 -29.59375 C 54.226562 -28.707031 53.671875 -27.894531 53.078125 -27.15625 C 51.296875 -25 49.179688 -22.660156 46.734375 -20.140625 C 44.878906 -18.210938 42.859375 -16.207031 40.671875 -14.125 C 38.484375 -12.050781 36.460938 -10.21875 34.609375 -8.625 C 32.753906 -7.03125 31.34375 -5.863281 30.375 -5.125 C 29.488281 -4.457031 28.359375 -3.65625 26.984375 -2.71875 C 25.609375 -1.789062 24.175781 -0.957031 22.6875 -0.21875 C 21.207031 0.519531 19.765625 0.890625 18.359375 0.890625 C 17.097656 0.890625 16.019531 0.519531 15.125 -0.21875 C 14.238281 -0.957031 13.796875 -2.109375 13.796875 -3.671875 C 13.796875 -5.523438 14.648438 -7.828125 16.359375 -10.578125 C 14.359375 -8.566406 12.6875 -7.003906 11.34375 -5.890625 C 10.238281 -5.003906 8.960938 -4.019531 7.515625 -2.9375 C 6.066406 -1.863281 4.582031 -0.957031 3.0625 -0.21875 C 1.539062 0.519531 0.148438 0.890625 -1.109375 0.890625 C -2.597656 0.890625 -3.65625 0.554688 -4.28125 -0.109375 C -4.914062 -0.773438 -5.234375 -1.664062 -5.234375 -2.78125 C -5.234375 -4.414062 -4.5625 -6.472656 -3.21875 -8.953125 C -1.882812 -11.441406 0.00390625 -13.945312 2.453125 -16.46875 C 3.785156 -17.875 5.597656 -19.484375 7.890625 -21.296875 C 10.191406 -23.117188 12.734375 -24.863281 15.515625 -26.53125 C 18.304688 -28.207031 21 -29.488281 23.59375 -30.375 C 21.21875 -30.375 18.988281 -30.1875 16.90625 -29.8125 C 14.832031 -29.445312 13.09375 -29.003906 11.6875 -28.484375 C 10.351562 -27.960938 9.425781 -27.40625 8.90625 -26.8125 C 8.382812 -26.21875 7.972656 -25.921875 7.671875 -25.921875 C 7.453125 -25.921875 7.34375 -26.296875 7.34375 -27.046875 C 7.34375 -27.640625 7.640625 -28.269531 8.234375 -28.9375 C 8.828125 -29.601562 9.71875 -30.117188 10.90625 -30.484375 C 11.789062 -30.785156 13.21875 -31.082031 15.1875 -31.375 C 17.15625 -31.675781 19.398438 -31.828125 21.921875 -31.828125 C 23.703125 -31.828125 25.410156 -31.71875 27.046875 -31.5 C 27.640625 -31.5 27.9375 -31.347656 27.9375 -31.046875 C 27.9375 -30.972656 27.675781 -30.75 27.15625 -30.375 Z M 27.15625 -30.375 "/></g></g></g><g fill="#4c0303" fill-opacity="1"><g transform="translate(293.743893, 89.747067)"><g><path d="M 31.828125 -41.515625 C 32.710938 -41.515625 33.15625 -41.140625 33.15625 -40.390625 C 33.15625 -39.867188 32.707031 -39.070312 31.8125 -38 C 30.925781 -36.925781 29.484375 -35.644531 27.484375 -34.15625 C 26.148438 -33.195312 24.757812 -32.253906 23.3125 -31.328125 C 21.863281 -30.398438 20.734375 -29.523438 19.921875 -28.703125 C 19.328125 -27.960938 18.863281 -27.054688 18.53125 -25.984375 C 18.195312 -24.910156 17.957031 -23.925781 17.8125 -23.03125 C 17.507812 -21.320312 17.113281 -19.28125 16.625 -16.90625 C 16.144531 -14.539062 15.203125 -12.113281 13.796875 -9.625 C 12.390625 -7.132812 10.015625 -4.78125 6.671875 -2.5625 C 8.679688 -3.519531 10.664062 -4.609375 12.625 -5.828125 C 14.59375 -7.054688 16.46875 -8.300781 18.25 -9.5625 C 19.726562 -10.601562 21.039062 -11.585938 22.1875 -12.515625 C 23.34375 -13.441406 24.585938 -14.5 25.921875 -15.6875 C 26.515625 -16.28125 26.960938 -16.351562 27.265625 -15.90625 C 27.628906 -15.613281 27.554688 -15.207031 27.046875 -14.6875 C 25.785156 -13.5 24.429688 -12.347656 22.984375 -11.234375 C 21.535156 -10.117188 20.144531 -9.082031 18.8125 -8.125 C 16.726562 -6.632812 14.6875 -5.316406 12.6875 -4.171875 C 10.6875 -3.023438 8.941406 -2.15625 7.453125 -1.5625 C 5.378906 -0.664062 3.375 -0.0351562 1.4375 0.328125 C -0.488281 0.703125 -2.226562 0.890625 -3.78125 0.890625 C -5.488281 0.890625 -6.859375 0.578125 -7.890625 -0.046875 C -8.929688 -0.679688 -9.453125 -1.742188 -9.453125 -3.234375 C -9.453125 -5.003906 -8.226562 -7.226562 -5.78125 -9.90625 C -5.113281 -10.644531 -4.332031 -11.382812 -3.4375 -12.125 C -2.550781 -12.875 -1.738281 -13.539062 -1 -14.125 C 0.113281 -15.019531 1.148438 -15.726562 2.109375 -16.25 C 3.078125 -16.769531 3.929688 -17.03125 4.671875 -17.03125 C 6.898438 -18.957031 9.3125 -21.066406 11.90625 -23.359375 C 14.5 -25.660156 16.503906 -27.628906 17.921875 -29.265625 C 19.253906 -30.898438 20.515625 -32.363281 21.703125 -33.65625 C 22.890625 -34.957031 24.078125 -36.128906 25.265625 -37.171875 C 26.742188 -38.503906 28.019531 -39.5625 29.09375 -40.34375 C 30.175781 -41.125 31.085938 -41.515625 31.828125 -41.515625 Z M 17.25 -26.8125 C 15.757812 -25.1875 13.957031 -23.425781 11.84375 -21.53125 C 9.738281 -19.632812 7.570312 -17.757812 5.34375 -15.90625 C 5.195312 -15.394531 4.75 -14.75 4 -13.96875 C 3.257812 -13.1875 2.1875 -12.351562 0.78125 -11.46875 C 0.0390625 -10.945312 -0.882812 -10.351562 -2 -9.6875 C -3.113281 -9.019531 -4.078125 -8.390625 -4.890625 -7.796875 C -5.785156 -7.117188 -6.546875 -6.390625 -7.171875 -5.609375 C -7.804688 -4.835938 -8.125 -4.046875 -8.125 -3.234375 C -8.125 -2.265625 -7.789062 -1.648438 -7.125 -1.390625 C -6.457031 -1.128906 -5.789062 -1 -5.125 -1 C -3.414062 -1 -1.445312 -1.664062 0.78125 -3 C 3.007812 -4.332031 5.195312 -6.226562 7.34375 -8.6875 C 8.675781 -10.09375 10.007812 -11.890625 11.34375 -14.078125 C 12.6875 -16.265625 13.894531 -18.507812 14.96875 -20.8125 C 16.039062 -23.113281 16.800781 -25.113281 17.25 -26.8125 Z M 17.25 -26.8125 "/></g></g></g></g></g><g fill="#4c0303" fill-opacity="1"><g transform="translate(4.296541, 166.253595)"><g><path d="M 2.703125 -90 L 26.734375 -90 L 26.734375 -88.921875 L 22.59375 -88.921875 C 22.050781 -88.921875 21.421875 -88.785156 20.703125 -88.515625 C 19.984375 -88.242188 19.351562 -87.703125 18.8125 -86.890625 C 18.269531 -86.085938 18 -84.84375 18 -83.15625 L 18 -1.078125 L 35.546875 -1.078125 C 39.148438 -1.078125 42.285156 -1.722656 44.953125 -3.015625 C 47.617188 -4.304688 49.882812 -6 51.75 -8.09375 C 53.613281 -10.195312 55.144531 -12.492188 56.34375 -14.984375 C 57.539062 -17.472656 58.5 -19.929688 59.21875 -22.359375 C 59.9375 -24.796875 60.488281 -27.019531 60.875 -29.03125 C 61.269531 -31.039062 61.585938 -32.550781 61.828125 -33.5625 L 62.8125 -33.5625 L 56.703125 1.796875 L 55.53125 1.796875 C 55.644531 1.253906 55.535156 0.816406 55.203125 0.484375 C 54.878906 0.160156 54.148438 0 53.015625 0 L 2.703125 0 L 2.703125 -1.078125 L 6.84375 -1.078125 C 7.4375 -1.078125 8.078125 -1.210938 8.765625 -1.484375 C 9.460938 -1.753906 10.082031 -2.304688 10.625 -3.140625 C 11.164062 -3.984375 11.4375 -5.21875 11.4375 -6.84375 L 11.4375 -83.15625 C 11.4375 -84.84375 11.164062 -86.085938 10.625 -86.890625 C 10.082031 -87.703125 9.460938 -88.242188 8.765625 -88.515625 C 8.078125 -88.785156 7.4375 -88.921875 6.84375 -88.921875 L 2.703125 -88.921875 Z M 2.703125 -90 "/></g></g></g><g fill="#4c0303" fill-opacity="1"><g transform="translate(59.465552, 166.253595)"><g><path d="M 2.703125 -1.078125 L 5.9375 -1.078125 C 7.5 -1.078125 8.832031 -1.554688 9.9375 -2.515625 C 11.050781 -3.472656 12 -4.628906 12.78125 -5.984375 C 13.5625 -7.335938 14.191406 -8.582031 14.671875 -9.71875 C 14.847656 -10.132812 15.28125 -11.4375 15.96875 -13.625 C 16.664062 -15.820312 17.550781 -18.675781 18.625 -22.1875 C 19.707031 -25.695312 20.90625 -29.625 22.21875 -33.96875 C 23.539062 -38.320312 24.921875 -42.835938 26.359375 -47.515625 C 27.804688 -52.203125 29.21875 -56.851562 30.59375 -61.46875 C 31.976562 -66.09375 33.285156 -70.425781 34.515625 -74.46875 C 35.742188 -78.519531 36.820312 -82.046875 37.75 -85.046875 C 38.6875 -88.046875 39.363281 -90.296875 39.78125 -91.796875 L 40.859375 -91.796875 C 41.335938 -90.296875 42.023438 -88.046875 42.921875 -85.046875 C 43.828125 -82.046875 44.878906 -78.519531 46.078125 -74.46875 C 47.273438 -70.425781 48.5625 -66.09375 49.9375 -61.46875 C 51.320312 -56.851562 52.71875 -52.203125 54.125 -47.515625 C 55.539062 -42.835938 56.90625 -38.320312 58.21875 -33.96875 C 59.539062 -29.625 60.742188 -25.695312 61.828125 -22.1875 C 62.910156 -18.675781 63.796875 -15.820312 64.484375 -13.625 C 65.171875 -11.4375 65.609375 -10.132812 65.796875 -9.71875 C 66.328125 -8.582031 66.96875 -7.335938 67.71875 -5.984375 C 68.46875 -4.628906 69.398438 -3.472656 70.515625 -2.515625 C 71.628906 -1.554688 72.960938 -1.078125 74.515625 -1.078125 L 77.765625 -1.078125 L 77.765625 0 L 53.640625 0 L 53.640625 -0.984375 L 57.78125 -0.984375 C 58.4375 -0.984375 59.09375 -1.085938 59.75 -1.296875 C 60.414062 -1.515625 60.75 -2.191406 60.75 -3.328125 C 60.75 -3.984375 60.269531 -6.082031 59.3125 -9.625 C 58.351562 -13.164062 57.125 -17.457031 55.625 -22.5 L 20.703125 -22.5 C 19.921875 -19.375 19.316406 -16.535156 18.890625 -13.984375 C 18.472656 -11.441406 18.265625 -9.390625 18.265625 -7.828125 C 18.265625 -5.304688 18.925781 -3.535156 20.25 -2.515625 C 21.570312 -1.492188 22.984375 -0.984375 24.484375 -0.984375 L 28.53125 -0.984375 L 28.53125 0 L 2.703125 0 Z M 29.4375 -53.09375 C 27.875 -48.113281 26.34375 -43.054688 24.84375 -37.921875 C 23.34375 -32.796875 22.050781 -28.015625 20.96875 -23.578125 L 55.265625 -23.578125 C 54.117188 -27.484375 52.882812 -31.59375 51.5625 -35.90625 C 50.25 -40.226562 48.929688 -44.5625 47.609375 -48.90625 C 46.285156 -53.257812 45.007812 -57.382812 43.78125 -61.28125 C 42.550781 -65.1875 41.457031 -68.65625 40.5 -71.6875 C 39.539062 -74.71875 38.789062 -77.117188 38.25 -78.890625 C 37.707031 -80.660156 37.4375 -81.546875 37.4375 -81.546875 L 37.796875 -80.453125 C 36.960938 -77.515625 35.796875 -73.613281 34.296875 -68.75 C 32.796875 -63.894531 31.175781 -58.675781 29.4375 -53.09375 Z M 29.4375 -53.09375 "/></g></g></g><g fill="#4c0303" fill-opacity="1"><g transform="translate(131.374543, 166.253595)"><g><path d="M 50.3125 -21.515625 C 50.3125 -25.046875 49.5 -28.070312 47.875 -30.59375 C 46.257812 -33.113281 44.113281 -35.316406 41.4375 -37.203125 C 38.769531 -39.097656 35.847656 -40.851562 32.671875 -42.46875 C 29.492188 -44.09375 26.296875 -45.773438 23.078125 -47.515625 C 19.867188 -49.253906 16.929688 -51.21875 14.265625 -53.40625 C 11.597656 -55.601562 9.453125 -58.21875 7.828125 -61.25 C 6.210938 -64.28125 5.40625 -67.925781 5.40625 -72.1875 C 5.40625 -76.5 6.515625 -80.109375 8.734375 -83.015625 C 10.953125 -85.929688 13.875 -88.125 17.5 -89.59375 C 21.132812 -91.0625 25.113281 -91.796875 29.4375 -91.796875 C 32.3125 -91.796875 34.769531 -91.597656 36.8125 -91.203125 C 38.851562 -90.816406 40.609375 -90.382812 42.078125 -89.90625 C 43.546875 -89.425781 44.910156 -88.988281 46.171875 -88.59375 C 47.429688 -88.207031 48.722656 -88.015625 50.046875 -88.015625 C 51.003906 -88.015625 51.992188 -88.222656 53.015625 -88.640625 C 54.035156 -89.066406 54.960938 -90.117188 55.796875 -91.796875 L 56.703125 -91.796875 L 40.3125 -45.984375 C 43.195312 -44.304688 45.820312 -42.382812 48.1875 -40.21875 C 50.5625 -38.0625 52.453125 -35.484375 53.859375 -32.484375 C 55.273438 -29.484375 55.984375 -25.882812 55.984375 -21.6875 C 55.984375 -17.488281 55.035156 -13.601562 53.140625 -10.03125 C 51.253906 -6.46875 48.421875 -3.601562 44.640625 -1.4375 C 40.859375 0.71875 36.117188 1.796875 30.421875 1.796875 C 26.160156 1.796875 22.53125 1.476562 19.53125 0.84375 C 16.53125 0.21875 13.890625 -0.09375 11.609375 -0.09375 C 10.472656 -0.09375 9.484375 0.0390625 8.640625 0.3125 C 7.796875 0.582031 7.078125 1.046875 6.484375 1.703125 L 5.40625 1.703125 L 5.40625 -45.09375 L 6.484375 -45.09375 L 6.484375 -22.765625 C 6.484375 -18.023438 7.125 -14.125 8.40625 -11.0625 C 9.695312 -8.007812 11.46875 -5.625 13.71875 -3.90625 C 15.96875 -2.195312 18.53125 -1 21.40625 -0.3125 C 24.289062 0.375 27.296875 0.71875 30.421875 0.71875 C 34.078125 0.71875 37.40625 -0.0859375 40.40625 -1.703125 C 43.40625 -3.328125 45.804688 -5.789062 47.609375 -9.09375 C 49.410156 -12.394531 50.3125 -16.535156 50.3125 -21.515625 Z M 29.4375 -90.71875 C 25.65625 -90.71875 22.546875 -90.144531 20.109375 -89 C 17.679688 -87.863281 15.789062 -86.457031 14.4375 -84.78125 C 13.09375 -83.101562 12.148438 -81.363281 11.609375 -79.5625 C 11.066406 -77.757812 10.796875 -76.171875 10.796875 -74.796875 C 10.796875 -70.710938 11.664062 -67.273438 13.40625 -64.484375 C 15.144531 -61.691406 17.4375 -59.289062 20.28125 -57.28125 C 23.132812 -55.269531 26.226562 -53.425781 29.5625 -51.75 C 32.894531 -50.070312 36.179688 -48.300781 39.421875 -46.4375 C 40.441406 -49.320312 41.566406 -52.410156 42.796875 -55.703125 C 44.023438 -59.003906 45.117188 -62.304688 46.078125 -65.609375 C 47.035156 -68.910156 47.601562 -72.0625 47.78125 -75.0625 C 47.96875 -78.0625 47.550781 -80.742188 46.53125 -83.109375 C 45.507812 -85.484375 43.648438 -87.34375 40.953125 -88.6875 C 38.253906 -90.039062 34.414062 -90.71875 29.4375 -90.71875 Z M 29.4375 -90.71875 "/></g></g></g><g fill="#4c0303" fill-opacity="1"><g transform="translate(184.923563, 166.253595)"><g><path d="M 2.703125 -1.078125 L 6.84375 -1.078125 C 7.4375 -1.078125 8.078125 -1.210938 8.765625 -1.484375 C 9.460938 -1.753906 10.082031 -2.304688 10.625 -3.140625 C 11.164062 -3.984375 11.4375 -5.21875 11.4375 -6.84375 L 11.4375 -83.15625 C 11.4375 -84.84375 11.164062 -86.085938 10.625 -86.890625 C 10.082031 -87.703125 9.460938 -88.242188 8.765625 -88.515625 C 8.078125 -88.785156 7.4375 -88.921875 6.84375 -88.921875 L 2.703125 -88.921875 L 2.703125 -90 L 26.734375 -90 L 26.734375 -88.921875 L 22.59375 -88.921875 C 22.050781 -88.921875 21.421875 -88.785156 20.703125 -88.515625 C 19.984375 -88.242188 19.351562 -87.703125 18.8125 -86.890625 C 18.269531 -86.085938 18 -84.84375 18 -83.15625 L 18 -58.140625 L 57.0625 -58.140625 L 57.0625 -83.15625 C 57.0625 -84.84375 56.789062 -86.085938 56.25 -86.890625 C 55.707031 -87.703125 55.09375 -88.242188 54.40625 -88.515625 C 53.71875 -88.785156 53.070312 -88.921875 52.46875 -88.921875 L 48.328125 -88.921875 L 48.328125 -90 L 72.359375 -90 L 72.359375 -88.921875 L 68.21875 -88.921875 C 67.675781 -88.921875 67.046875 -88.785156 66.328125 -88.515625 C 65.609375 -88.242188 64.976562 -87.703125 64.4375 -86.890625 C 63.894531 -86.085938 63.625 -84.84375 63.625 -83.15625 L 63.625 -6.84375 C 63.625 -5.21875 63.894531 -3.984375 64.4375 -3.140625 C 64.976562 -2.304688 65.609375 -1.753906 66.328125 -1.484375 C 67.046875 -1.210938 67.675781 -1.078125 68.21875 -1.078125 L 72.359375 -1.078125 L 72.359375 0 L 48.328125 0 L 48.328125 -1.078125 L 52.46875 -1.078125 C 53.070312 -1.078125 53.71875 -1.210938 54.40625 -1.484375 C 55.09375 -1.753906 55.707031 -2.304688 56.25 -3.140625 C 56.789062 -3.984375 57.0625 -5.21875 57.0625 -6.84375 L 57.0625 -56.96875 L 18 -56.96875 L 18 -6.84375 C 18 -5.21875 18.269531 -3.984375 18.8125 -3.140625 C 19.351562 -2.304688 19.984375 -1.753906 20.703125 -1.484375 C 21.421875 -1.210938 22.050781 -1.078125 22.59375 -1.078125 L 26.734375 -1.078125 L 26.734375 0 L 2.703125 0 Z M 2.703125 -1.078125 "/></g></g></g><g fill="#4c0303" fill-opacity="1"><g transform="translate(251.432557, 166.253595)"><g><path d="M 2.703125 -90 L 54.625 -90 C 56.425781 -90 57.957031 -90.070312 59.21875 -90.21875 C 60.476562 -90.375 61.4375 -90.898438 62.09375 -91.796875 L 63 -91.796875 L 46.171875 -45.09375 L 44.90625 -45.09375 L 53.015625 -67.59375 C 54.390625 -71.851562 54.894531 -75.363281 54.53125 -78.125 C 54.175781 -80.882812 53.25 -83.039062 51.75 -84.59375 C 50.25 -86.15625 48.390625 -87.265625 46.171875 -87.921875 C 43.953125 -88.585938 41.640625 -88.921875 39.234375 -88.921875 L 18 -88.921875 L 18 -57.953125 L 25.109375 -57.953125 C 27.742188 -57.953125 29.644531 -58.382812 30.8125 -59.25 C 31.988281 -60.125 32.726562 -61.296875 33.03125 -62.765625 C 33.332031 -64.242188 33.484375 -65.851562 33.484375 -67.59375 L 34.5625 -67.59375 L 34.5625 -29.515625 L 33.65625 -29.515625 L 33.65625 -42.9375 C 33.65625 -47.070312 32.664062 -50.441406 30.6875 -53.046875 C 28.707031 -55.660156 25.53125 -56.96875 21.15625 -56.96875 L 18 -56.96875 L 18 -1.171875 L 41.046875 -1.171875 C 43.742188 -1.171875 46.234375 -1.410156 48.515625 -1.890625 C 50.796875 -2.367188 52.742188 -3.34375 54.359375 -4.8125 C 55.984375 -6.28125 57.242188 -8.453125 58.140625 -11.328125 C 59.035156 -14.210938 59.484375 -18.023438 59.484375 -22.765625 L 59.484375 -45.09375 L 60.5625 -45.09375 L 60.5625 1.703125 L 59.484375 1.703125 C 58.765625 0.804688 57.6875 0.28125 56.25 0.125 C 54.8125 -0.0195312 52.921875 -0.09375 50.578125 -0.09375 L 2.703125 -0.09375 L 2.703125 -1.171875 L 6.84375 -1.171875 C 7.4375 -1.171875 8.078125 -1.304688 8.765625 -1.578125 C 9.460938 -1.847656 10.082031 -2.398438 10.625 -3.234375 C 11.164062 -4.078125 11.4375 -5.3125 11.4375 -6.9375 L 11.4375 -83.25 C 11.4375 -84.925781 11.164062 -86.171875 10.625 -86.984375 C 10.082031 -87.796875 9.460938 -88.335938 8.765625 -88.609375 C 8.078125 -88.878906 7.4375 -89.015625 6.84375 -89.015625 L 2.703125 -89.015625 Z M 2.703125 -90 "/></g></g></g><g fill="#4c0303" fill-opacity="1"><g transform="translate(308.581578, 166.253595)"><g><path d="M 50.3125 -21.515625 C 50.3125 -25.046875 49.5 -28.070312 47.875 -30.59375 C 46.257812 -33.113281 44.113281 -35.316406 41.4375 -37.203125 C 38.769531 -39.097656 35.847656 -40.851562 32.671875 -42.46875 C 29.492188 -44.09375 26.296875 -45.773438 23.078125 -47.515625 C 19.867188 -49.253906 16.929688 -51.21875 14.265625 -53.40625 C 11.597656 -55.601562 9.453125 -58.21875 7.828125 -61.25 C 6.210938 -64.28125 5.40625 -67.925781 5.40625 -72.1875 C 5.40625 -76.5 6.515625 -80.109375 8.734375 -83.015625 C 10.953125 -85.929688 13.875 -88.125 17.5 -89.59375 C 21.132812 -91.0625 25.113281 -91.796875 29.4375 -91.796875 C 32.3125 -91.796875 34.769531 -91.597656 36.8125 -91.203125 C 38.851562 -90.816406 40.609375 -90.382812 42.078125 -89.90625 C 43.546875 -89.425781 44.910156 -88.988281 46.171875 -88.59375 C 47.429688 -88.207031 48.722656 -88.015625 50.046875 -88.015625 C 51.003906 -88.015625 51.992188 -88.222656 53.015625 -88.640625 C 54.035156 -89.066406 54.960938 -90.117188 55.796875 -91.796875 L 56.703125 -91.796875 L 40.3125 -45.984375 C 43.195312 -44.304688 45.820312 -42.382812 48.1875 -40.21875 C 50.5625 -38.0625 52.453125 -35.484375 53.859375 -32.484375 C 55.273438 -29.484375 55.984375 -25.882812 55.984375 -21.6875 C 55.984375 -17.488281 55.035156 -13.601562 53.140625 -10.03125 C 51.253906 -6.46875 48.421875 -3.601562 44.640625 -1.4375 C 40.859375 0.71875 36.117188 1.796875 30.421875 1.796875 C 26.160156 1.796875 22.53125 1.476562 19.53125 0.84375 C 16.53125 0.21875 13.890625 -0.09375 11.609375 -0.09375 C 10.472656 -0.09375 9.484375 0.0390625 8.640625 0.3125 C 7.796875 0.582031 7.078125 1.046875 6.484375 1.703125 L 5.40625 1.703125 L 5.40625 -45.09375 L 6.484375 -45.09375 L 6.484375 -22.765625 C 6.484375 -18.023438 7.125 -14.125 8.40625 -11.0625 C 9.695312 -8.007812 11.46875 -5.625 13.71875 -3.90625 C 15.96875 -2.195312 18.53125 -1 21.40625 -0.3125 C 24.289062 0.375 27.296875 0.71875 30.421875 0.71875 C 34.078125 0.71875 37.40625 -0.0859375 40.40625 -1.703125 C 43.40625 -3.328125 45.804688 -5.789062 47.609375 -9.09375 C 49.410156 -12.394531 50.3125 -16.535156 50.3125 -21.515625 Z M 29.4375 -90.71875 C 25.65625 -90.71875 22.546875 -90.144531 20.109375 -89 C 17.679688 -87.863281 15.789062 -86.457031 14.4375 -84.78125 C 13.09375 -83.101562 12.148438 -81.363281 11.609375 -79.5625 C 11.066406 -77.757812 10.796875 -76.171875 10.796875 -74.796875 C 10.796875 -70.710938 11.664062 -67.273438 13.40625 -64.484375 C 15.144531 -61.691406 17.4375 -59.289062 20.28125 -57.28125 C 23.132812 -55.269531 26.226562 -53.425781 29.5625 -51.75 C 32.894531 -50.070312 36.179688 -48.300781 39.421875 -46.4375 C 40.441406 -49.320312 41.566406 -52.410156 42.796875 -55.703125 C 44.023438 -59.003906 45.117188 -62.304688 46.078125 -65.609375 C 47.035156 -68.910156 47.601562 -72.0625 47.78125 -75.0625 C 47.96875 -78.0625 47.550781 -80.742188 46.53125 -83.109375 C 45.507812 -85.484375 43.648438 -87.34375 40.953125 -88.6875 C 38.253906 -90.039062 34.414062 -90.71875 29.4375 -90.71875 Z M 29.4375 -90.71875 "/></g></g></g></svg>