<svg xmlns="http://www.w3.org/2000/svg" xmlns:xlink="http://www.w3.org/1999/xlink" width="500" zoomAndPan="magnify" viewBox="0 0 375 374.999991" height="500" preserveAspectRatio="xMidYMid meet" version="1.0"><defs><g/></defs><g fill="#4c0303" fill-opacity="1"><g transform="translate(60.061059, 250.749989)"><g><path d="M 76.265625 -66.78125 C 78.304688 -66.78125 79.328125 -65.800781 79.328125 -63.84375 C 79.328125 -62.53125 78.894531 -61.132812 78.03125 -59.65625 C 77.175781 -58.175781 76.175781 -56.863281 75.03125 -55.71875 C 77.164062 -53.175781 78.148438 -50.101562 77.984375 -46.5 C 77.984375 -43.457031 77.140625 -40.148438 75.453125 -36.578125 C 73.773438 -33.015625 71.296875 -29.515625 68.015625 -26.078125 C 65.304688 -23.046875 62.1875 -20.070312 58.65625 -17.15625 C 55.132812 -14.25 51.410156 -11.601562 47.484375 -9.21875 C 47.890625 -6.84375 48.789062 -5.101562 50.1875 -4 C 51.582031 -2.894531 53.265625 -2.34375 55.234375 -2.34375 C 57.035156 -2.34375 59.019531 -2.726562 61.1875 -3.5 C 63.363281 -4.28125 65.4375 -5.367188 67.40625 -6.765625 C 67.726562 -6.929688 68.015625 -7.09375 68.265625 -7.25 C 68.515625 -7.414062 68.675781 -7.378906 68.75 -7.140625 C 69 -6.972656 68.753906 -6.519531 68.015625 -5.78125 C 66.296875 -4.0625 64.125 -2.398438 61.5 -0.796875 C 58.875 0.796875 55.878906 1.59375 52.515625 1.59375 C 49.566406 1.59375 47.226562 0.878906 45.5 -0.546875 C 43.78125 -1.984375 42.515625 -3.851562 41.703125 -6.15625 C 37.515625 -4.019531 33.269531 -2.296875 28.96875 -0.984375 C 24.664062 0.328125 20.585938 0.984375 16.734375 0.984375 C 14.847656 0.984375 12.957031 0.738281 11.0625 0.25 C 9.175781 -0.238281 7.640625 -1.117188 6.453125 -2.390625 C 5.265625 -3.671875 4.671875 -5.457031 4.671875 -7.75 C 4.671875 -11.113281 5.921875 -14.351562 8.421875 -17.46875 C 10.921875 -20.582031 14.097656 -23.492188 17.953125 -26.203125 C 17.628906 -30.054688 18.429688 -33.929688 20.359375 -37.828125 C 22.285156 -41.722656 25.132812 -45.390625 28.90625 -48.828125 C 33.414062 -52.929688 38.539062 -56.085938 44.28125 -58.296875 C 50.019531 -60.515625 55.554688 -61.625 60.890625 -61.625 C 61.546875 -61.625 62.363281 -61.582031 63.34375 -61.5 C 64.332031 -61.414062 65.070312 -61.332031 65.5625 -61.25 C 66.875 -62.238281 68.570312 -63.40625 70.65625 -64.75 C 72.75 -66.101562 74.617188 -66.78125 76.265625 -66.78125 Z M 77.609375 -63.71875 C 77.609375 -64.125 77.503906 -64.507812 77.296875 -64.875 C 77.097656 -65.25 76.671875 -65.4375 76.015625 -65.4375 C 75.109375 -65.4375 73.851562 -64.960938 72.25 -64.015625 C 70.65625 -63.078125 69.242188 -61.953125 68.015625 -60.640625 C 69.085938 -60.304688 70.132812 -59.8125 71.15625 -59.15625 C 72.175781 -58.5 73.097656 -57.765625 73.921875 -56.953125 C 74.828125 -57.847656 75.664062 -58.929688 76.4375 -60.203125 C 77.21875 -61.472656 77.609375 -62.644531 77.609375 -63.71875 Z M 64.078125 -59.78125 C 63.585938 -59.945312 62.523438 -60.03125 60.890625 -60.03125 C 56.128906 -60.03125 51 -58.941406 45.5 -56.765625 C 40.007812 -54.585938 35.09375 -51.285156 30.75 -46.859375 C 27.875 -43.992188 25.554688 -40.921875 23.796875 -37.640625 C 22.035156 -34.359375 21.113281 -31.160156 21.03125 -28.046875 C 25.050781 -30.585938 29.5 -32.960938 34.375 -35.171875 C 39.257812 -37.390625 44.242188 -39.484375 49.328125 -41.453125 C 51.867188 -45.796875 54.429688 -49.460938 57.015625 -52.453125 C 59.597656 -55.453125 61.953125 -57.894531 64.078125 -59.78125 Z M 72.6875 -55.71875 C 71.957031 -56.625 71.035156 -57.382812 69.921875 -58 C 68.816406 -58.613281 67.769531 -59.039062 66.78125 -59.28125 C 65.476562 -57.882812 63.65625 -55.832031 61.3125 -53.125 C 58.976562 -50.425781 56.828125 -47.191406 54.859375 -43.421875 C 58.378906 -45.054688 61.65625 -46.941406 64.6875 -49.078125 C 67.726562 -51.210938 70.394531 -53.425781 72.6875 -55.71875 Z M 73.546875 -54.25 C 71.503906 -52.113281 68.800781 -49.875 65.4375 -47.53125 C 62.070312 -45.195312 58.21875 -43.003906 53.875 -40.953125 C 52.96875 -38.910156 52.0625 -36.535156 51.15625 -33.828125 C 50.257812 -31.117188 49.441406 -28.289062 48.703125 -25.34375 C 48.046875 -22.632812 47.59375 -20.109375 47.34375 -17.765625 C 47.101562 -15.429688 47.023438 -13.320312 47.109375 -11.4375 C 50.710938 -13.65625 54.175781 -16.175781 57.5 -19 C 60.820312 -21.832031 63.753906 -24.847656 66.296875 -28.046875 C 69.085938 -31.410156 71.300781 -34.691406 72.9375 -37.890625 C 74.582031 -41.085938 75.40625 -44.285156 75.40625 -47.484375 C 75.40625 -50.179688 74.785156 -52.4375 73.546875 -54.25 Z M 48.34375 -38.984375 C 44.238281 -37.429688 39.722656 -35.363281 34.796875 -32.78125 C 29.878906 -30.195312 25.535156 -27.222656 21.765625 -23.859375 C 23.242188 -20.660156 26.113281 -19.0625 30.375 -19.0625 C 31.445312 -19.0625 32.515625 -19.1875 33.578125 -19.4375 C 34.148438 -19.675781 34.476562 -19.675781 34.5625 -19.4375 C 34.726562 -19.1875 34.398438 -18.859375 33.578125 -18.453125 C 32.347656 -17.960938 30.953125 -17.71875 29.390625 -17.71875 C 27.503906 -17.71875 25.703125 -18.082031 23.984375 -18.8125 C 22.265625 -19.550781 20.867188 -20.617188 19.796875 -22.015625 C 17.585938 -19.878906 15.722656 -17.582031 14.203125 -15.125 C 12.691406 -12.664062 11.9375 -10.367188 11.9375 -8.234375 C 11.9375 -5.859375 12.585938 -4.15625 13.890625 -3.125 C 15.203125 -2.101562 16.96875 -1.59375 19.1875 -1.59375 C 22.300781 -1.59375 25.765625 -2.1875 29.578125 -3.375 C 33.390625 -4.570312 37.304688 -6.191406 41.328125 -8.234375 C 40.921875 -10.285156 40.816406 -12.601562 41.015625 -15.1875 C 41.222656 -17.769531 41.738281 -20.5 42.5625 -23.375 C 43.300781 -26 44.222656 -28.804688 45.328125 -31.796875 C 46.429688 -34.785156 47.4375 -37.179688 48.34375 -38.984375 Z M 48.34375 -38.984375 "/></g></g></g><g fill="#4c0303" fill-opacity="1"><g transform="translate(137.920074, 250.749989)"><g/></g></g><g fill="#4c0303" fill-opacity="1"><g transform="translate(163.504084, 250.749989)"><g><path d="M 63.21875 -64.9375 C 63.382812 -64.9375 63.488281 -64.914062 63.53125 -64.875 C 63.570312 -64.84375 63.46875 -64.785156 63.21875 -64.703125 C 61.582031 -64.285156 59.820312 -63.484375 57.9375 -62.296875 C 56.050781 -61.109375 54.570312 -60.101562 53.5 -59.28125 C 47.269531 -54.53125 41.054688 -49.285156 34.859375 -43.546875 C 28.671875 -37.804688 22.132812 -31.410156 15.25 -24.359375 C 12.625 -21.566406 10.0625 -18.796875 7.5625 -16.046875 C 5.0625 -13.304688 2.992188 -10.828125 1.359375 -8.609375 C 0.285156 -7.210938 -0.554688 -5.960938 -1.171875 -4.859375 C -1.785156 -3.753906 -2.09375 -2.875 -2.09375 -2.21875 C -2.09375 -1.476562 -1.640625 -1.109375 -0.734375 -1.109375 C 1.316406 -1.109375 4.554688 -2.75 8.984375 -6.03125 C 10.210938 -6.84375 11.664062 -7.945312 13.34375 -9.34375 C 15.019531 -10.738281 16.675781 -12.132812 18.3125 -13.53125 C 19.957031 -14.925781 21.273438 -16.03125 22.265625 -16.84375 C 22.503906 -17.007812 22.785156 -17.234375 23.109375 -17.515625 C 23.441406 -17.804688 23.773438 -17.789062 24.109375 -17.46875 C 24.429688 -17.050781 24.226562 -16.476562 23.5 -15.75 C 22.59375 -14.925781 21.296875 -13.816406 19.609375 -12.421875 C 17.929688 -11.023438 16.191406 -9.585938 14.390625 -8.109375 C 12.585938 -6.640625 10.90625 -5.375 9.34375 -4.3125 C 7.21875 -2.75 5.128906 -1.453125 3.078125 -0.421875 C 1.023438 0.597656 -0.695312 1.109375 -2.09375 1.109375 C -4.875 1.109375 -6.265625 -0.285156 -6.265625 -3.078125 C -6.265625 -4.878906 -5.363281 -7.21875 -3.5625 -10.09375 C -2.25 -12.21875 -0.242188 -14.878906 2.453125 -18.078125 C 5.160156 -21.273438 8.441406 -24.84375 12.296875 -28.78125 C 16.722656 -33.289062 21.148438 -37.59375 25.578125 -41.6875 C 30.003906 -45.789062 34.164062 -49.460938 38.0625 -52.703125 C 41.957031 -55.941406 45.300781 -58.503906 48.09375 -60.390625 C 50.800781 -62.109375 53.300781 -63.335938 55.59375 -64.078125 C 56.582031 -64.410156 57.710938 -64.65625 58.984375 -64.8125 C 60.253906 -64.976562 61.664062 -65.019531 63.21875 -64.9375 Z M 63.21875 -64.9375 "/></g></g><g transform="translate(184.045082, 250.749989)"><g><path d="M 47.234375 -35.171875 C 43.703125 -31.972656 40.296875 -28.773438 37.015625 -25.578125 C 33.742188 -22.378906 30.835938 -19.445312 28.296875 -16.78125 C 25.753906 -14.125 23.742188 -11.929688 22.265625 -10.203125 C 20.703125 -8.398438 19.445312 -6.820312 18.5 -5.46875 C 17.5625 -4.113281 17.09375 -3.03125 17.09375 -2.21875 C 17.09375 -1.476562 17.503906 -1.109375 18.328125 -1.109375 C 19.148438 -1.109375 20.234375 -1.492188 21.578125 -2.265625 C 22.929688 -3.046875 24.347656 -3.945312 25.828125 -4.96875 C 27.304688 -6 28.578125 -6.925781 29.640625 -7.75 C 31.609375 -9.3125 33.640625 -11.015625 35.734375 -12.859375 C 37.828125 -14.703125 39.609375 -16.28125 41.078125 -17.59375 C 41.328125 -17.75 41.613281 -17.910156 41.9375 -18.078125 C 42.269531 -18.242188 42.554688 -18.160156 42.796875 -17.828125 C 43.128906 -17.503906 42.925781 -17.015625 42.1875 -16.359375 C 40.382812 -14.640625 38.414062 -12.875 36.28125 -11.0625 C 34.15625 -9.257812 32.3125 -7.742188 30.75 -6.515625 C 29.519531 -5.535156 28.101562 -4.46875 26.5 -3.3125 C 24.90625 -2.164062 23.304688 -1.179688 21.703125 -0.359375 C 20.109375 0.453125 18.695312 0.859375 17.46875 0.859375 C 14.59375 0.859375 13.15625 -0.535156 13.15625 -3.328125 C 13.15625 -4.222656 13.421875 -5.328125 13.953125 -6.640625 C 14.492188 -7.953125 15.421875 -9.390625 16.734375 -10.953125 C 13.203125 -7.753906 9.671875 -4.984375 6.140625 -2.640625 C 2.617188 -0.304688 -0.125 0.859375 -2.09375 0.859375 C -4.875 0.859375 -6.265625 -0.492188 -6.265625 -3.203125 C -6.347656 -5.410156 -5.46875 -8.132812 -3.625 -11.375 C -1.78125 -14.613281 0.535156 -17.628906 3.328125 -20.421875 C 6.109375 -23.285156 9.28125 -25.925781 12.84375 -28.34375 C 16.414062 -30.769531 19.921875 -32.71875 23.359375 -34.1875 C 26.804688 -35.664062 29.679688 -36.40625 31.984375 -36.40625 C 33.128906 -36.40625 34.070312 -36.21875 34.8125 -35.84375 C 35.550781 -35.476562 35.921875 -34.765625 35.921875 -33.703125 C 35.921875 -33.046875 35.671875 -32.203125 35.171875 -31.171875 C 34.679688 -30.148438 33.738281 -28.941406 32.34375 -27.546875 C 32.257812 -27.460938 32.238281 -27.398438 32.28125 -27.359375 C 32.320312 -27.328125 32.382812 -27.347656 32.46875 -27.421875 C 34.351562 -29.316406 36.238281 -30.914062 38.125 -32.21875 C 40.007812 -33.53125 41.445312 -34.351562 42.4375 -34.6875 C 43.09375 -34.9375 43.726562 -35.078125 44.34375 -35.109375 C 44.957031 -35.148438 45.59375 -35.171875 46.25 -35.171875 Z M 34.1875 -33.203125 C 34.1875 -34.109375 33.695312 -34.5625 32.71875 -34.5625 C 31 -34.5625 28.066406 -33.101562 23.921875 -30.1875 C 19.785156 -27.28125 14.804688 -23.039062 8.984375 -17.46875 C 5.941406 -14.4375 3.289062 -11.484375 1.03125 -8.609375 C -1.21875 -5.742188 -2.34375 -3.613281 -2.34375 -2.21875 C -2.34375 -1.882812 -2.28125 -1.59375 -2.15625 -1.34375 C -2.03125 -1.101562 -1.679688 -0.984375 -1.109375 -0.984375 C -0.046875 -0.984375 1.671875 -1.71875 4.046875 -3.1875 C 6.429688 -4.664062 9.203125 -6.71875 12.359375 -9.34375 C 15.515625 -11.96875 18.691406 -14.921875 21.890625 -18.203125 C 23.367188 -19.679688 25.070312 -21.382812 27 -23.3125 C 28.925781 -25.238281 30.601562 -27.125 32.03125 -28.96875 C 33.46875 -30.8125 34.1875 -32.222656 34.1875 -33.203125 Z M 34.1875 -33.203125 "/></g></g></g><g fill="#4c0303" fill-opacity="1"><g transform="translate(222.667093, 250.749989)"><g><path d="M 35.171875 -45.875 C 36.160156 -45.875 36.65625 -45.46875 36.65625 -44.65625 C 36.65625 -44.070312 36.160156 -43.1875 35.171875 -42 C 34.191406 -40.8125 32.59375 -39.398438 30.375 -37.765625 C 28.90625 -36.691406 27.367188 -35.644531 25.765625 -34.625 C 24.171875 -33.601562 22.921875 -32.640625 22.015625 -31.734375 C 21.359375 -30.910156 20.84375 -29.90625 20.46875 -28.71875 C 20.101562 -27.53125 19.84375 -26.445312 19.6875 -25.46875 C 19.351562 -23.570312 18.921875 -21.3125 18.390625 -18.6875 C 17.859375 -16.070312 16.8125 -13.390625 15.25 -10.640625 C 13.695312 -7.890625 11.070312 -5.285156 7.375 -2.828125 C 9.59375 -3.890625 11.785156 -5.097656 13.953125 -6.453125 C 16.128906 -7.804688 18.203125 -9.179688 20.171875 -10.578125 C 21.804688 -11.722656 23.257812 -12.804688 24.53125 -13.828125 C 25.800781 -14.859375 27.175781 -16.03125 28.65625 -17.34375 C 29.3125 -18 29.804688 -18.082031 30.140625 -17.59375 C 30.546875 -17.257812 30.460938 -16.804688 29.890625 -16.234375 C 28.492188 -14.921875 26.992188 -13.648438 25.390625 -12.421875 C 23.796875 -11.191406 22.257812 -10.046875 20.78125 -8.984375 C 18.488281 -7.335938 16.234375 -5.878906 14.015625 -4.609375 C 11.804688 -3.335938 9.878906 -2.375 8.234375 -1.71875 C 5.941406 -0.738281 3.726562 -0.046875 1.59375 0.359375 C -0.53125 0.773438 -2.457031 0.984375 -4.1875 0.984375 C -6.070312 0.984375 -7.585938 0.632812 -8.734375 -0.0625 C -9.878906 -0.757812 -10.453125 -1.925781 -10.453125 -3.5625 C -10.453125 -5.53125 -9.097656 -7.992188 -6.390625 -10.953125 C -5.648438 -11.765625 -4.789062 -12.582031 -3.8125 -13.40625 C -2.832031 -14.226562 -1.929688 -14.96875 -1.109375 -15.625 C 0.117188 -16.601562 1.265625 -17.378906 2.328125 -17.953125 C 3.398438 -18.523438 4.347656 -18.8125 5.171875 -18.8125 C 7.628906 -20.945312 10.289062 -23.285156 13.15625 -25.828125 C 16.03125 -28.367188 18.242188 -30.539062 19.796875 -32.34375 C 21.273438 -34.15625 22.671875 -35.773438 23.984375 -37.203125 C 25.296875 -38.640625 26.609375 -39.929688 27.921875 -41.078125 C 29.554688 -42.554688 30.96875 -43.722656 32.15625 -44.578125 C 33.351562 -45.441406 34.359375 -45.875 35.171875 -45.875 Z M 19.0625 -29.640625 C 17.425781 -27.835938 15.4375 -25.890625 13.09375 -23.796875 C 10.757812 -21.703125 8.363281 -19.632812 5.90625 -17.59375 C 5.738281 -17.019531 5.242188 -16.300781 4.421875 -15.4375 C 3.609375 -14.570312 2.421875 -13.648438 0.859375 -12.671875 C 0.0351562 -12.097656 -0.988281 -11.441406 -2.21875 -10.703125 C -3.445312 -9.960938 -4.507812 -9.265625 -5.40625 -8.609375 C -6.394531 -7.867188 -7.238281 -7.066406 -7.9375 -6.203125 C -8.632812 -5.347656 -8.984375 -4.46875 -8.984375 -3.5625 C -8.984375 -2.5 -8.613281 -1.820312 -7.875 -1.53125 C -7.132812 -1.25 -6.394531 -1.109375 -5.65625 -1.109375 C -3.769531 -1.109375 -1.597656 -1.84375 0.859375 -3.3125 C 3.316406 -4.789062 5.738281 -6.882812 8.125 -9.59375 C 9.59375 -11.15625 11.066406 -13.144531 12.546875 -15.5625 C 14.023438 -17.976562 15.359375 -20.457031 16.546875 -23 C 17.734375 -25.539062 18.570312 -27.753906 19.0625 -29.640625 Z M 19.0625 -29.640625 "/></g></g></g><g fill="#4c0303" fill-opacity="1"><g transform="translate(248.989098, 250.749989)"><g><path d="M 39.484375 -36.15625 C 40.878906 -36.15625 41.882812 -35.828125 42.5 -35.171875 C 43.113281 -34.515625 43.421875 -33.78125 43.421875 -32.96875 C 43.421875 -31.488281 42.765625 -29.847656 41.453125 -28.046875 C 40.140625 -26.242188 38.597656 -24.4375 36.828125 -22.625 C 35.066406 -20.820312 33.453125 -19.265625 31.984375 -17.953125 C 30.015625 -16.148438 28.207031 -14.445312 26.5625 -12.84375 C 24.925781 -11.25 23.453125 -9.753906 22.140625 -8.359375 C 20.578125 -6.722656 19.445312 -5.429688 18.75 -4.484375 C 18.0625 -3.546875 17.71875 -2.75 17.71875 -2.09375 C 17.71875 -1.269531 18.164062 -0.859375 19.0625 -0.859375 C 20.050781 -0.859375 21.488281 -1.328125 23.375 -2.265625 C 25.257812 -3.210938 27.226562 -4.425781 29.28125 -5.90625 C 31.40625 -7.457031 33.71875 -9.28125 36.21875 -11.375 C 38.71875 -13.46875 40.789062 -15.171875 42.4375 -16.484375 C 42.675781 -16.722656 42.957031 -16.925781 43.28125 -17.09375 C 43.613281 -17.257812 43.90625 -17.21875 44.15625 -16.96875 C 44.488281 -16.644531 44.488281 -16.296875 44.15625 -15.921875 C 43.832031 -15.554688 43.503906 -15.25 43.171875 -15 C 41.285156 -13.363281 39.132812 -11.539062 36.71875 -9.53125 C 34.300781 -7.519531 31.941406 -5.695312 29.640625 -4.0625 C 27.429688 -2.5 25.28125 -1.242188 23.1875 -0.296875 C 21.09375 0.640625 19.304688 1.109375 17.828125 1.109375 C 14.878906 1.109375 13.40625 -0.367188 13.40625 -3.328125 C 13.40625 -5.285156 14.304688 -7.539062 16.109375 -10.09375 C 17.671875 -12.21875 19.1875 -14.035156 20.65625 -15.546875 C 22.132812 -17.066406 24.144531 -18.976562 26.6875 -21.28125 C 27.59375 -22.175781 28.738281 -23.195312 30.125 -24.34375 C 31.519531 -25.5 32.914062 -26.691406 34.3125 -27.921875 C 35.707031 -29.148438 36.875 -30.253906 37.8125 -31.234375 C 38.757812 -32.222656 39.234375 -33.003906 39.234375 -33.578125 C 39.234375 -34.066406 38.945312 -34.3125 38.375 -34.3125 C 37.3125 -34.3125 35.546875 -33.695312 33.078125 -32.46875 C 30.617188 -31.238281 27.851562 -29.640625 24.78125 -27.671875 C 21.707031 -25.703125 18.753906 -23.671875 15.921875 -21.578125 C 13.097656 -19.492188 10.785156 -17.585938 8.984375 -15.859375 C 6.929688 -13.972656 5.144531 -12.210938 3.625 -10.578125 C 2.113281 -8.941406 0.5625 -7.195312 -1.03125 -5.34375 C -2.632812 -3.5 -4.503906 -1.1875 -6.640625 1.59375 C -7.128906 1.59375 -7.515625 1.304688 -7.796875 0.734375 C -8.085938 0.160156 -8.234375 -0.492188 -8.234375 -1.234375 C -8.234375 -2.128906 -7.472656 -3.804688 -5.953125 -6.265625 C -4.441406 -8.734375 -2.375 -11.625 0.25 -14.9375 C 2.875 -18.257812 5.785156 -21.601562 8.984375 -24.96875 C 12.097656 -28.332031 15.5 -31.796875 19.1875 -35.359375 C 22.875 -38.929688 26.582031 -42.351562 30.3125 -45.625 C 34.050781 -48.90625 37.578125 -51.859375 40.890625 -54.484375 C 44.210938 -57.109375 47.101562 -59.203125 49.5625 -60.765625 C 50.46875 -61.335938 51.597656 -61.953125 52.953125 -62.609375 C 54.304688 -63.265625 55.515625 -63.753906 56.578125 -64.078125 C 57.804688 -64.492188 59.015625 -64.738281 60.203125 -64.8125 C 61.390625 -64.894531 62.765625 -64.9375 64.328125 -64.9375 C 64.660156 -64.9375 64.660156 -64.859375 64.328125 -64.703125 C 62.523438 -64.285156 60.722656 -63.523438 58.921875 -62.421875 C 57.117188 -61.316406 55.640625 -60.3125 54.484375 -59.40625 C 51.703125 -57.351562 48.441406 -54.789062 44.703125 -51.71875 C 40.972656 -48.644531 37.097656 -45.300781 33.078125 -41.6875 C 29.066406 -38.082031 25.175781 -34.4375 21.40625 -30.75 C 17.632812 -27.0625 14.3125 -23.617188 11.4375 -20.421875 C 11.269531 -20.253906 11.207031 -20.128906 11.25 -20.046875 C 11.289062 -19.960938 11.351562 -19.960938 11.4375 -20.046875 C 13 -21.359375 15.007812 -22.914062 17.46875 -24.71875 C 19.925781 -26.519531 22.546875 -28.300781 25.328125 -30.0625 C 28.117188 -31.832031 30.765625 -33.289062 33.265625 -34.4375 C 35.765625 -35.582031 37.835938 -36.15625 39.484375 -36.15625 Z M 39.484375 -36.15625 "/></g></g></g><g fill="#4c0303" fill-opacity="1"><g transform="translate(290.071107, 250.749989)"><g><path d="M 11.5625 -20.78125 C 9.507812 -18.894531 7.5 -16.84375 5.53125 -14.625 C 3.5625 -12.414062 1.921875 -10.285156 0.609375 -8.234375 C -0.703125 -6.191406 -1.359375 -4.515625 -1.359375 -3.203125 C -1.359375 -1.554688 -0.414062 -0.734375 1.46875 -0.734375 C 2.707031 -0.734375 4.269531 -1.101562 6.15625 -1.84375 C 8.039062 -2.582031 10.003906 -3.609375 12.046875 -4.921875 C 15.003906 -6.804688 17.894531 -8.914062 20.71875 -11.25 C 23.550781 -13.59375 25.75 -15.457031 27.3125 -16.84375 C 27.71875 -17.257812 28.125 -17.585938 28.53125 -17.828125 C 28.945312 -18.078125 29.273438 -18.078125 29.515625 -17.828125 C 29.765625 -17.585938 29.785156 -17.300781 29.578125 -16.96875 C 29.378906 -16.644531 29.15625 -16.359375 28.90625 -16.109375 C 26.851562 -14.222656 24.640625 -12.316406 22.265625 -10.390625 C 19.890625 -8.460938 17.347656 -6.554688 14.640625 -4.671875 C 12.585938 -3.273438 10.289062 -1.960938 7.75 -0.734375 C 5.207031 0.492188 2.75 1.109375 0.375 1.109375 C -1.101562 1.109375 -2.519531 0.738281 -3.875 0 C -5.226562 -0.738281 -5.90625 -2.296875 -5.90625 -4.671875 C -5.90625 -6.316406 -5.289062 -8.613281 -4.0625 -11.5625 C -2.832031 -14.507812 -0.25 -17.867188 3.6875 -21.640625 C 6.476562 -24.265625 9.515625 -26.679688 12.796875 -28.890625 C 16.078125 -31.109375 19.253906 -32.914062 22.328125 -34.3125 C 25.398438 -35.707031 27.921875 -36.40625 29.890625 -36.40625 C 31.117188 -36.40625 32.039062 -36.117188 32.65625 -35.546875 C 33.269531 -34.972656 33.578125 -34.234375 33.578125 -33.328125 C 33.578125 -32.015625 32.921875 -30.597656 31.609375 -29.078125 C 30.296875 -27.566406 28.78125 -26.238281 27.0625 -25.09375 C 25.09375 -23.78125 22.878906 -22.648438 20.421875 -21.703125 C 17.960938 -20.765625 15.789062 -20.296875 13.90625 -20.296875 C 13 -20.296875 12.21875 -20.457031 11.5625 -20.78125 Z M 12.421875 -21.640625 C 12.753906 -21.484375 13.082031 -21.40625 13.40625 -21.40625 C 14.632812 -21.40625 16.414062 -21.894531 18.75 -22.875 C 21.09375 -23.863281 23.410156 -25.300781 25.703125 -27.1875 C 27.429688 -28.582031 28.828125 -29.914062 29.890625 -31.1875 C 30.953125 -32.457031 31.484375 -33.457031 31.484375 -34.1875 C 31.484375 -34.6875 31.195312 -34.9375 30.625 -34.9375 C 29.800781 -34.9375 28.28125 -34.21875 26.0625 -32.78125 C 23.851562 -31.34375 21.5 -29.597656 19 -27.546875 C 16.5 -25.503906 14.304688 -23.535156 12.421875 -21.640625 Z M 12.421875 -21.640625 "/></g></g></g><g fill="#4c0303" fill-opacity="1"><g transform="translate(315.655128, 250.749989)"><g><path d="M 35.171875 -45.875 C 36.160156 -45.875 36.65625 -45.46875 36.65625 -44.65625 C 36.65625 -44.070312 36.160156 -43.1875 35.171875 -42 C 34.191406 -40.8125 32.59375 -39.398438 30.375 -37.765625 C 28.90625 -36.691406 27.367188 -35.644531 25.765625 -34.625 C 24.171875 -33.601562 22.921875 -32.640625 22.015625 -31.734375 C 21.359375 -30.910156 20.84375 -29.90625 20.46875 -28.71875 C 20.101562 -27.53125 19.84375 -26.445312 19.6875 -25.46875 C 19.351562 -23.570312 18.921875 -21.3125 18.390625 -18.6875 C 17.859375 -16.070312 16.8125 -13.390625 15.25 -10.640625 C 13.695312 -7.890625 11.070312 -5.285156 7.375 -2.828125 C 9.59375 -3.890625 11.785156 -5.097656 13.953125 -6.453125 C 16.128906 -7.804688 18.203125 -9.179688 20.171875 -10.578125 C 21.804688 -11.722656 23.257812 -12.804688 24.53125 -13.828125 C 25.800781 -14.859375 27.175781 -16.03125 28.65625 -17.34375 C 29.3125 -18 29.804688 -18.082031 30.140625 -17.59375 C 30.546875 -17.257812 30.460938 -16.804688 29.890625 -16.234375 C 28.492188 -14.921875 26.992188 -13.648438 25.390625 -12.421875 C 23.796875 -11.191406 22.257812 -10.046875 20.78125 -8.984375 C 18.488281 -7.335938 16.234375 -5.878906 14.015625 -4.609375 C 11.804688 -3.335938 9.878906 -2.375 8.234375 -1.71875 C 5.941406 -0.738281 3.726562 -0.046875 1.59375 0.359375 C -0.53125 0.773438 -2.457031 0.984375 -4.1875 0.984375 C -6.070312 0.984375 -7.585938 0.632812 -8.734375 -0.0625 C -9.878906 -0.757812 -10.453125 -1.925781 -10.453125 -3.5625 C -10.453125 -5.53125 -9.097656 -7.992188 -6.390625 -10.953125 C -5.648438 -11.765625 -4.789062 -12.582031 -3.8125 -13.40625 C -2.832031 -14.226562 -1.929688 -14.96875 -1.109375 -15.625 C 0.117188 -16.601562 1.265625 -17.378906 2.328125 -17.953125 C 3.398438 -18.523438 4.347656 -18.8125 5.171875 -18.8125 C 7.628906 -20.945312 10.289062 -23.285156 13.15625 -25.828125 C 16.03125 -28.367188 18.242188 -30.539062 19.796875 -32.34375 C 21.273438 -34.15625 22.671875 -35.773438 23.984375 -37.203125 C 25.296875 -38.640625 26.609375 -39.929688 27.921875 -41.078125 C 29.554688 -42.554688 30.96875 -43.722656 32.15625 -44.578125 C 33.351562 -45.441406 34.359375 -45.875 35.171875 -45.875 Z M 19.0625 -29.640625 C 17.425781 -27.835938 15.4375 -25.890625 13.09375 -23.796875 C 10.757812 -21.703125 8.363281 -19.632812 5.90625 -17.59375 C 5.738281 -17.019531 5.242188 -16.300781 4.421875 -15.4375 C 3.609375 -14.570312 2.421875 -13.648438 0.859375 -12.671875 C 0.0351562 -12.097656 -0.988281 -11.441406 -2.21875 -10.703125 C -3.445312 -9.960938 -4.507812 -9.265625 -5.40625 -8.609375 C -6.394531 -7.867188 -7.238281 -7.066406 -7.9375 -6.203125 C -8.632812 -5.347656 -8.984375 -4.46875 -8.984375 -3.5625 C -8.984375 -2.5 -8.613281 -1.820312 -7.875 -1.53125 C -7.132812 -1.25 -6.394531 -1.109375 -5.65625 -1.109375 C -3.769531 -1.109375 -1.597656 -1.84375 0.859375 -3.3125 C 3.316406 -4.789062 5.738281 -6.882812 8.125 -9.59375 C 9.59375 -11.15625 11.066406 -13.144531 12.546875 -15.5625 C 14.023438 -17.976562 15.359375 -20.457031 16.546875 -23 C 17.734375 -25.539062 18.570312 -27.753906 19.0625 -29.640625 Z M 19.0625 -29.640625 "/></g></g></g><g fill="#4c0303" fill-opacity="1"><g transform="translate(4.260298, 189.564854)"><g><path d="M 2.59375 -1.5625 L 8.578125 -1.5625 C 9.441406 -1.5625 10.375 -1.753906 11.375 -2.140625 C 12.375 -2.535156 13.257812 -3.335938 14.03125 -4.546875 C 14.8125 -5.765625 15.203125 -7.539062 15.203125 -9.875 L 15.203125 -114.53125 C 15.203125 -115.476562 15.113281 -116.535156 14.9375 -117.703125 C 14.769531 -118.878906 14.226562 -119.898438 13.3125 -120.765625 C 12.40625 -121.628906 10.828125 -122.0625 8.578125 -122.0625 L 8.578125 -123.625 C 13.171875 -123.625 16.632812 -124.640625 18.96875 -126.671875 C 21.3125 -128.710938 22.484375 -130.6875 22.484375 -132.59375 L 24.046875 -132.59375 L 24.046875 -67.984375 C 25.609375 -69.984375 27.644531 -71.890625 30.15625 -73.703125 C 32.675781 -75.523438 35.84375 -77.019531 39.65625 -78.1875 C 43.46875 -79.363281 48.015625 -79.953125 53.296875 -79.953125 C 62.054688 -79.953125 69.445312 -78.109375 75.46875 -74.421875 C 81.488281 -70.742188 86.078125 -65.804688 89.234375 -59.609375 C 92.398438 -53.410156 93.984375 -46.539062 93.984375 -39 C 93.984375 -33.363281 93.070312 -28.050781 91.25 -23.0625 C 89.4375 -18.082031 86.816406 -13.664062 83.390625 -9.8125 C 79.972656 -5.957031 75.898438 -2.925781 71.171875 -0.71875 C 66.453125 1.488281 61.144531 2.59375 55.25 2.59375 C 49.269531 2.59375 44.242188 1.984375 40.171875 0.765625 C 36.097656 -0.441406 32.757812 -2.019531 30.15625 -3.96875 C 27.5625 -5.914062 25.523438 -7.882812 24.046875 -9.875 C 23.960938 -7.445312 23.050781 -5.191406 21.3125 -3.109375 C 19.582031 -1.035156 16.378906 0 11.703125 0 L 2.59375 0 Z M 24.046875 -16.375 C 24.046875 -15.769531 24.066406 -15.117188 24.109375 -14.421875 C 24.160156 -13.734375 24.1875 -13 24.1875 -12.21875 C 26.09375 -9.363281 28.300781 -7.109375 30.8125 -5.453125 C 33.320312 -3.804688 35.851562 -2.59375 38.40625 -1.8125 C 40.96875 -1.039062 43.285156 -0.546875 45.359375 -0.328125 C 47.441406 -0.109375 49.003906 0 50.046875 0 C 54.816406 0 59.300781 -0.992188 63.5 -2.984375 C 67.707031 -4.984375 71.4375 -7.757812 74.6875 -11.3125 C 77.9375 -14.863281 80.46875 -19 82.28125 -23.71875 C 84.101562 -28.445312 85.015625 -33.5 85.015625 -38.875 C 85.015625 -44.25 84.101562 -49.273438 82.28125 -53.953125 C 80.46875 -58.628906 77.9375 -62.722656 74.6875 -66.234375 C 71.4375 -69.742188 67.707031 -72.472656 63.5 -74.421875 C 59.300781 -76.367188 54.816406 -77.34375 50.046875 -77.34375 C 49.003906 -77.34375 47.421875 -77.234375 45.296875 -77.015625 C 43.179688 -76.804688 40.84375 -76.332031 38.28125 -75.59375 C 35.726562 -74.851562 33.191406 -73.679688 30.671875 -72.078125 C 28.160156 -70.484375 25.953125 -68.253906 24.046875 -65.390625 Z M 24.046875 -16.375 "/></g></g></g><g fill="#4c0303" fill-opacity="1"><g transform="translate(92.39732, 189.564854)"><g><path d="M 2.59375 0 L 2.59375 -1.5625 L 8.578125 -1.5625 C 9.441406 -1.5625 10.375 -1.753906 11.375 -2.140625 C 12.375 -2.535156 13.257812 -3.335938 14.03125 -4.546875 C 14.8125 -5.765625 15.203125 -7.539062 15.203125 -9.875 L 15.203125 -61.875 C 15.203125 -62.832031 15.113281 -63.894531 14.9375 -65.0625 C 14.769531 -66.226562 14.226562 -67.242188 13.3125 -68.109375 C 12.40625 -68.984375 10.828125 -69.421875 8.578125 -69.421875 L 8.578125 -70.984375 C 13.171875 -70.984375 16.632812 -72 18.96875 -74.03125 C 21.3125 -76.070312 22.484375 -78.046875 22.484375 -79.953125 L 24.046875 -79.953125 L 24.046875 -60.703125 C 25.265625 -64.171875 26.800781 -67.359375 28.65625 -70.265625 C 30.519531 -73.171875 32.753906 -75.488281 35.359375 -77.21875 C 37.960938 -78.945312 40.953125 -79.8125 44.328125 -79.8125 C 46.835938 -79.8125 48.765625 -79.59375 50.109375 -79.15625 C 51.453125 -78.726562 52.835938 -78.296875 54.265625 -77.859375 C 55.703125 -77.429688 57.804688 -77.21875 60.578125 -77.21875 C 63.085938 -77.21875 64.601562 -77.648438 65.125 -78.515625 C 65.644531 -79.378906 65.90625 -79.8125 65.90625 -79.8125 L 67.46875 -79.8125 L 47.84375 -25.21875 L 46.28125 -25.21875 L 55.90625 -52 C 57.632812 -56.769531 58.28125 -61.144531 57.84375 -65.125 C 57.414062 -69.113281 56.050781 -72.300781 53.75 -74.6875 C 51.457031 -77.070312 48.316406 -78.265625 44.328125 -78.265625 C 41.035156 -78.265625 38.15625 -77.351562 35.6875 -75.53125 C 33.21875 -73.707031 31.132812 -71.410156 29.4375 -68.640625 C 27.75 -65.867188 26.472656 -63.050781 25.609375 -60.1875 C 24.742188 -57.332031 24.222656 -54.90625 24.046875 -52.90625 L 24.046875 -9.875 C 24.046875 -7.539062 24.4375 -5.765625 25.21875 -4.546875 C 26 -3.335938 26.910156 -2.535156 27.953125 -2.140625 C 28.992188 -1.753906 29.90625 -1.5625 30.6875 -1.5625 L 36.65625 -1.5625 L 36.65625 0 Z M 2.59375 0 "/></g></g></g><g fill="#4c0303" fill-opacity="1"><g transform="translate(147.515335, 189.564854)"><g><path d="M 47.703125 2.59375 C 41.984375 2.59375 36.632812 1.535156 31.65625 -0.578125 C 26.675781 -2.703125 22.300781 -5.648438 18.53125 -9.421875 C 14.757812 -13.191406 11.8125 -17.566406 9.6875 -22.546875 C 7.5625 -27.535156 6.5 -32.890625 6.5 -38.609375 C 6.5 -44.328125 7.5625 -49.675781 9.6875 -54.65625 C 11.8125 -59.644531 14.757812 -64.023438 18.53125 -67.796875 C 22.300781 -71.566406 26.675781 -74.507812 31.65625 -76.625 C 36.632812 -78.75 41.984375 -79.8125 47.703125 -79.8125 C 53.429688 -79.8125 58.785156 -78.75 63.765625 -76.625 C 68.742188 -74.507812 73.117188 -71.566406 76.890625 -67.796875 C 80.660156 -64.023438 83.609375 -59.644531 85.734375 -54.65625 C 87.859375 -49.675781 88.921875 -44.328125 88.921875 -38.609375 C 88.921875 -32.890625 87.859375 -27.535156 85.734375 -22.546875 C 83.609375 -17.566406 80.660156 -13.191406 76.890625 -9.421875 C 73.117188 -5.648438 68.742188 -2.703125 63.765625 -0.578125 C 58.785156 1.535156 53.429688 2.59375 47.703125 2.59375 Z M 12.09375 -47.84375 C 12.09375 -41.945312 13.085938 -36.3125 15.078125 -30.9375 C 17.066406 -25.5625 19.925781 -20.796875 23.65625 -16.640625 C 27.382812 -12.484375 31.890625 -9.191406 37.171875 -6.765625 C 42.460938 -4.335938 48.398438 -3.125 54.984375 -3.125 C 60.796875 -3.125 65.800781 -4.289062 70 -6.625 C 74.207031 -8.96875 77.476562 -12.109375 79.8125 -16.046875 C 82.15625 -19.992188 83.328125 -24.4375 83.328125 -29.375 C 83.328125 -35.1875 82.285156 -40.753906 80.203125 -46.078125 C 78.128906 -51.410156 75.160156 -56.175781 71.296875 -60.375 C 67.441406 -64.582031 62.894531 -67.921875 57.65625 -70.390625 C 52.414062 -72.859375 46.675781 -74.09375 40.4375 -74.09375 C 34.707031 -74.09375 29.71875 -72.941406 25.46875 -70.640625 C 21.226562 -68.347656 17.9375 -65.207031 15.59375 -61.21875 C 13.257812 -57.238281 12.09375 -52.78125 12.09375 -47.84375 Z M 12.09375 -47.84375 "/></g></g></g><g fill="#4c0303" fill-opacity="1"><g transform="translate(230.58251, 189.564854)"><g><path d="M -2.59375 -77.21875 L 27.6875 -77.21875 L 27.6875 -75.65625 L 24.828125 -75.65625 C 22.660156 -75.65625 21.296875 -74.851562 20.734375 -73.25 C 20.171875 -71.644531 20.0625 -69.113281 20.40625 -65.65625 C 20.582031 -63.832031 20.882812 -61.898438 21.3125 -59.859375 C 21.75 -57.828125 22.226562 -55.898438 22.75 -54.078125 C 23.445312 -51.734375 24.269531 -48.71875 25.21875 -45.03125 C 26.175781 -41.351562 27.171875 -37.5 28.203125 -33.46875 C 29.242188 -29.445312 30.195312 -25.8125 31.0625 -22.5625 C 31.9375 -19.3125 32.585938 -16.945312 33.015625 -15.46875 C 33.367188 -16.6875 33.890625 -18.550781 34.578125 -21.0625 C 35.273438 -23.570312 36.054688 -26.453125 36.921875 -29.703125 C 37.785156 -32.953125 38.648438 -36.222656 39.515625 -39.515625 C 40.378906 -42.804688 41.160156 -45.753906 41.859375 -48.359375 C 42.203125 -49.578125 42.503906 -50.640625 42.765625 -51.546875 C 43.023438 -52.453125 43.242188 -53.296875 43.421875 -54.078125 C 44.285156 -57.367188 44.976562 -60.679688 45.5 -64.015625 C 46.019531 -67.359375 46.039062 -70.132812 45.5625 -72.34375 C 45.082031 -74.550781 43.675781 -75.65625 41.34375 -75.65625 L 38.484375 -75.65625 L 38.484375 -77.21875 L 64.34375 -77.21875 L 64.34375 -75.65625 L 61.484375 -75.65625 C 59.316406 -75.65625 57.953125 -74.851562 57.390625 -73.25 C 56.828125 -71.644531 56.71875 -69.113281 57.0625 -65.65625 C 57.238281 -63.832031 57.539062 -61.898438 57.96875 -59.859375 C 58.40625 -57.828125 58.882812 -55.898438 59.40625 -54.078125 C 60.101562 -51.734375 60.925781 -48.71875 61.875 -45.03125 C 62.832031 -41.351562 63.832031 -37.5 64.875 -33.46875 C 65.914062 -29.445312 66.867188 -25.8125 67.734375 -22.5625 C 68.597656 -19.3125 69.25 -16.945312 69.6875 -15.46875 C 70.03125 -16.6875 70.546875 -18.550781 71.234375 -21.0625 C 71.929688 -23.570312 72.710938 -26.453125 73.578125 -29.703125 C 74.441406 -32.953125 75.304688 -36.222656 76.171875 -39.515625 C 77.046875 -42.804688 77.828125 -45.753906 78.515625 -48.359375 C 78.867188 -49.578125 79.171875 -50.640625 79.421875 -51.546875 C 79.679688 -52.453125 79.898438 -53.296875 80.078125 -54.078125 C 80.941406 -57.367188 81.632812 -60.679688 82.15625 -64.015625 C 82.675781 -67.359375 82.695312 -70.132812 82.21875 -72.34375 C 81.75 -74.550781 80.34375 -75.65625 78 -75.65625 L 75.140625 -75.65625 L 75.140625 -77.21875 L 98.15625 -77.21875 L 98.15625 -75.65625 L 95.546875 -75.65625 C 93.296875 -75.65625 91.347656 -74.503906 89.703125 -72.203125 C 88.054688 -69.910156 86.601562 -67.070312 85.34375 -63.6875 C 84.082031 -60.3125 82.9375 -56.894531 81.90625 -53.4375 C 81.644531 -52.5625 81.359375 -51.625 81.046875 -50.625 C 80.742188 -49.632812 80.378906 -48.488281 79.953125 -47.1875 C 77.609375 -39.300781 75.394531 -31.003906 73.3125 -22.296875 C 71.238281 -13.585938 69.160156 -5.289062 67.078125 2.59375 L 65.515625 2.59375 C 65.515625 2.59375 65.164062 1.359375 64.46875 -1.109375 C 63.78125 -3.578125 62.875 -6.847656 61.75 -10.921875 C 60.625 -14.992188 59.390625 -19.457031 58.046875 -24.3125 C 56.703125 -29.164062 55.378906 -34.019531 54.078125 -38.875 C 52.773438 -43.726562 51.5625 -48.191406 50.4375 -52.265625 C 49.3125 -56.335938 48.445312 -59.539062 47.84375 -61.875 C 47.0625 -59.445312 46.28125 -57 45.5 -54.53125 C 44.71875 -52.0625 43.984375 -49.613281 43.296875 -47.1875 C 40.953125 -39.300781 38.738281 -31.003906 36.65625 -22.296875 C 34.582031 -13.585938 32.414062 -5.289062 30.15625 2.59375 L 28.734375 2.59375 C 28.734375 2.59375 28.425781 1.488281 27.8125 -0.71875 C 27.207031 -2.925781 26.425781 -5.847656 25.46875 -9.484375 C 24.519531 -13.128906 23.484375 -17.070312 22.359375 -21.3125 C 21.234375 -25.5625 20.109375 -29.8125 18.984375 -34.0625 C 17.859375 -38.3125 16.835938 -42.144531 15.921875 -45.5625 C 15.015625 -48.988281 14.300781 -51.613281 13.78125 -53.4375 C 12.914062 -56.894531 11.832031 -60.335938 10.53125 -63.765625 C 9.226562 -67.191406 7.707031 -70.03125 5.96875 -72.28125 C 4.238281 -74.53125 2.25 -75.65625 0 -75.65625 L -2.59375 -75.65625 Z M -2.59375 -77.21875 "/></g></g></g><g fill="#4c0303" fill-opacity="1"><g transform="translate(313.779679, 189.564854)"><g><path d="M 5.203125 2.59375 L 5.203125 -30.03125 L 6.765625 -30.03125 L 6.765625 -23.796875 C 6.765625 -21.628906 7.238281 -19.132812 8.1875 -16.3125 C 9.144531 -13.5 10.578125 -10.769531 12.484375 -8.125 C 14.390625 -5.476562 16.769531 -3.285156 19.625 -1.546875 C 22.488281 0.179688 25.785156 1.046875 29.515625 1.046875 C 33.148438 1.046875 36.203125 0.242188 38.671875 -1.359375 C 41.140625 -2.960938 42.976562 -5.0625 44.1875 -7.65625 C 45.40625 -10.257812 46.015625 -12.953125 46.015625 -15.734375 C 46.015625 -18.847656 45.0625 -21.617188 43.15625 -24.046875 C 41.25 -26.472656 38.78125 -28.726562 35.75 -30.8125 C 32.71875 -32.894531 29.507812 -34.972656 26.125 -37.046875 C 22.75 -39.128906 19.539062 -41.359375 16.5 -43.734375 C 13.46875 -46.117188 11 -48.828125 9.09375 -51.859375 C 7.1875 -54.898438 6.234375 -58.457031 6.234375 -62.53125 C 6.234375 -66 7.207031 -69.03125 9.15625 -71.625 C 11.113281 -74.226562 13.691406 -76.265625 16.890625 -77.734375 C 20.097656 -79.210938 23.523438 -79.953125 27.171875 -79.953125 C 29.597656 -79.953125 31.675781 -79.734375 33.40625 -79.296875 C 35.144531 -78.867188 36.878906 -78.4375 38.609375 -78 C 40.335938 -77.5625 42.332031 -77.34375 44.59375 -77.34375 C 45.375 -77.34375 46.148438 -77.492188 46.921875 -77.796875 C 47.703125 -78.109375 48.09375 -78.828125 48.09375 -79.953125 L 49.65625 -79.953125 L 49.65625 -54.078125 L 48.09375 -54.078125 L 48.09375 -60.3125 C 48.09375 -64.039062 47.460938 -67.078125 46.203125 -69.421875 C 44.953125 -71.765625 43.328125 -73.582031 41.328125 -74.875 C 39.335938 -76.175781 37.191406 -77.085938 34.890625 -77.609375 C 32.597656 -78.128906 30.414062 -78.390625 28.34375 -78.390625 C 24.175781 -78.390625 20.597656 -77.085938 17.609375 -74.484375 C 14.617188 -71.890625 13.125 -68.46875 13.125 -64.21875 C 13.125 -61.101562 14.054688 -58.375 15.921875 -56.03125 C 17.785156 -53.6875 20.191406 -51.539062 23.140625 -49.59375 C 26.085938 -47.644531 29.1875 -45.691406 32.4375 -43.734375 C 35.6875 -41.785156 38.785156 -39.726562 41.734375 -37.5625 C 44.679688 -35.394531 47.082031 -32.90625 48.9375 -30.09375 C 50.800781 -27.28125 51.734375 -23.96875 51.734375 -20.15625 C 51.734375 -16.082031 50.867188 -12.3125 49.140625 -8.84375 C 47.410156 -5.375 44.875 -2.597656 41.53125 -0.515625 C 38.195312 1.554688 34.144531 2.59375 29.375 2.59375 C 25.65625 2.59375 22.296875 1.941406 19.296875 0.640625 C 16.304688 -0.648438 13.859375 -1.945312 11.953125 -3.25 C 10.046875 -4.550781 8.75 -5.203125 8.0625 -5.203125 C 7.363281 -5.203125 6.945312 -4.941406 6.8125 -4.421875 C 6.6875 -3.898438 6.625 -3.46875 6.625 -3.125 L 6.625 2.59375 Z M 5.203125 2.59375 "/></g></g></g></svg>