<svg xmlns="http://www.w3.org/2000/svg" xmlns:xlink="http://www.w3.org/1999/xlink" width="500" zoomAndPan="magnify" viewBox="0 0 375 374.999991" height="500" preserveAspectRatio="xMidYMid meet" version="1.0"><defs><g/><clipPath id="a80a421026"><rect x="0" width="166" y="0" height="338"/></clipPath><clipPath id="3ce883ee8b"><rect x="0" width="161" y="0" height="319"/></clipPath><clipPath id="11eccc6bb5"><path d="M 0.808594 149.050781 L 320.167969 149.050781 L 320.167969 178.902344 L 0.808594 178.902344 Z M 0.808594 149.050781 " clip-rule="nonzero"/></clipPath><clipPath id="f14ed5f9cf"><path d="M 0.808594 0.0507812 L 320.167969 0.0507812 L 320.167969 29.902344 L 0.808594 29.902344 Z M 0.808594 0.0507812 " clip-rule="nonzero"/></clipPath><clipPath id="fea78b6ad2"><rect x="0" width="321" y="0" height="30"/></clipPath><clipPath id="14c4fdcb4b"><rect x="0" width="280" y="0" height="17"/></clipPath><clipPath id="0a80bbfc1a"><rect x="0" width="321" y="0" height="375"/></clipPath></defs><g transform="matrix(1, 0, 0, 1, 28, 0)"><g clip-path="url(#0a80bbfc1a)"><g transform="matrix(1, 0, 0, 1, 139, 37)"><g clip-path="url(#a80a421026)"><g fill="#55210c" fill-opacity="1"><g transform="translate(0.723387, 266.121205)"><g><path d="M 8.703125 0 L 8.703125 -2.484375 L 13.9375 -2.484375 C 19.738281 -2.484375 24.253906 -3.8125 27.484375 -6.46875 C 30.722656 -9.125 32.34375 -13.601562 32.34375 -19.90625 L 32.34375 -158.453125 C 32.34375 -164.253906 30.722656 -168.484375 27.484375 -171.140625 C 24.253906 -173.796875 19.738281 -175.125 13.9375 -175.125 L 8.703125 -175.125 L 8.703125 -177.609375 L 77.109375 -177.609375 C 121.054688 -177.609375 143.03125 -163.347656 143.03125 -134.828125 C 143.03125 -110.117188 126.53125 -96.519531 93.53125 -94.03125 L 93.53125 -93.53125 C 113.257812 -92.863281 127.6875 -88.46875 136.8125 -80.34375 C 145.9375 -72.21875 150.5 -61.359375 150.5 -47.765625 C 150.5 -15.921875 128.523438 0 84.578125 0 Z M 61.1875 -94.28125 L 76.359375 -94.28125 C 89.296875 -94.28125 98.5 -97.304688 103.96875 -103.359375 C 109.445312 -109.410156 112.1875 -119.484375 112.1875 -133.578125 C 112.1875 -148.671875 109.40625 -159.367188 103.84375 -165.671875 C 98.289062 -171.972656 88.96875 -175.125 75.875 -175.125 L 61.1875 -175.125 Z M 61.1875 -2.484375 L 83.328125 -2.484375 C 96.429688 -2.484375 105.757812 -5.960938 111.3125 -12.921875 C 116.875 -19.890625 119.65625 -31.421875 119.65625 -47.515625 C 119.65625 -63.429688 116.914062 -74.785156 111.4375 -81.578125 C 105.96875 -88.378906 96.765625 -91.78125 83.828125 -91.78125 L 61.1875 -91.78125 Z M 61.1875 -2.484375 "/></g></g></g></g></g><g transform="matrix(1, 0, 0, 1, 20, 0)"><g clip-path="url(#3ce883ee8b)"><g fill="#55210c" fill-opacity="1"><g transform="translate(2.05361, 245.518424)"><g><path d="M 8.703125 0 L 8.703125 -2.484375 L 13.9375 -2.484375 C 19.738281 -2.484375 24.253906 -3.8125 27.484375 -6.46875 C 30.722656 -9.125 32.34375 -13.601562 32.34375 -19.90625 L 32.34375 -158.453125 C 32.34375 -164.421875 30.722656 -168.691406 27.484375 -171.265625 C 24.253906 -173.835938 19.738281 -175.125 13.9375 -175.125 L 8.703125 -175.125 L 8.703125 -177.609375 L 84.828125 -177.609375 L 84.828125 -175.125 L 79.59375 -175.125 C 73.789062 -175.125 69.3125 -173.796875 66.15625 -171.140625 C 63.007812 -168.484375 61.4375 -164.085938 61.4375 -157.953125 L 61.4375 -2.484375 L 104.71875 -2.484375 C 113.84375 -2.484375 121.140625 -3.8125 126.609375 -6.46875 C 132.085938 -9.125 136.191406 -13.476562 138.921875 -19.53125 C 141.660156 -25.582031 143.363281 -33.914062 144.03125 -44.53125 L 144.765625 -53.984375 L 147.265625 -53.984375 L 145.515625 0 Z M 8.703125 0 "/></g></g></g></g></g><g clip-path="url(#11eccc6bb5)"><g transform="matrix(1, 0, 0, 1, 0, 149)"><g clip-path="url(#fea78b6ad2)"><g clip-path="url(#f14ed5f9cf)"><path fill="#f4f4f4" d="M 0.808594 0.0507812 L 320.226562 0.0507812 L 320.226562 29.902344 L 0.808594 29.902344 Z M 0.808594 0.0507812 " fill-opacity="1" fill-rule="nonzero"/></g></g></g></g><g transform="matrix(1, 0, 0, 1, 26, 157)"><g clip-path="url(#14c4fdcb4b)"><g fill="#582308" fill-opacity="1"><g transform="translate(0.440913, 11.90067)"><g><path d="M 1.890625 -0.921875 L 5.078125 -0.921875 L 5.078125 0 L 0.984375 0 L 0.984375 -8.890625 L 1.890625 -8.890625 Z M 1.890625 -0.921875 "/></g></g></g><g fill="#582308" fill-opacity="1"><g transform="translate(15.83331, 11.90067)"><g><path d="M 2.421875 -3.265625 L 5.65625 -3.265625 L 4.046875 -7.359375 Z M 7.9375 0 L 6.9375 0 L 5.984375 -2.421875 L 2.078125 -2.421875 L 1.125 0 L 0.125 0 L 4.046875 -9.515625 Z M 7.9375 0 "/></g></g></g><g fill="#582308" fill-opacity="1"><g transform="translate(33.960383, 11.90067)"><g><path d="M 3.453125 -4.203125 C 1.640625 -4.617188 0.734375 -5.394531 0.734375 -6.53125 C 0.734375 -7.363281 1.023438 -7.988281 1.609375 -8.40625 C 2.191406 -8.820312 2.875 -9.03125 3.65625 -9.03125 C 5.394531 -9.03125 6.425781 -8.382812 6.75 -7.09375 L 5.75 -7.09375 C 5.582031 -7.851562 4.882812 -8.234375 3.65625 -8.234375 C 2.800781 -8.234375 2.207031 -7.984375 1.875 -7.484375 C 1.738281 -7.285156 1.671875 -7.046875 1.671875 -6.765625 C 1.671875 -6.210938 1.96875 -5.789062 2.5625 -5.5 C 2.84375 -5.34375 3.4375 -5.148438 4.34375 -4.921875 C 5.25 -4.679688 5.90625 -4.414062 6.3125 -4.125 C 6.882812 -3.726562 7.171875 -3.171875 7.171875 -2.453125 C 7.171875 -1.546875 6.816406 -0.863281 6.109375 -0.40625 C 5.515625 -0.0195312 4.78125 0.171875 3.90625 0.171875 C 1.9375 0.171875 0.796875 -0.578125 0.484375 -2.078125 L 1.5625 -2.078125 C 1.726562 -1.140625 2.507812 -0.671875 3.90625 -0.671875 C 4.90625 -0.671875 5.597656 -0.941406 5.984375 -1.484375 C 6.140625 -1.703125 6.21875 -2 6.21875 -2.375 C 6.21875 -2.738281 6.078125 -3.039062 5.796875 -3.28125 C 5.378906 -3.613281 4.597656 -3.921875 3.453125 -4.203125 Z M 3.453125 -4.203125 "/></g></g></g><g fill="#582308" fill-opacity="1"><g transform="translate(51.524818, 11.90067)"><g><path d="M 1.890625 0 L 0.984375 0 L 0.984375 -8.890625 L 1.890625 -8.890625 L 1.890625 -4.890625 L 5.9375 -4.890625 L 5.9375 -8.890625 L 6.859375 -8.890625 L 6.859375 0 L 5.9375 0 L 5.9375 -3.96875 L 1.890625 -3.96875 Z M 1.890625 0 "/></g></g></g><g fill="#582308" fill-opacity="1"><g transform="translate(69.416361, 11.90067)"><g><path d="M 6.265625 0 L 0.984375 0 L 0.984375 -8.890625 L 6.265625 -8.890625 L 6.265625 -8.046875 L 1.890625 -8.046875 L 1.890625 -4.875 L 6.140625 -4.875 L 6.140625 -4.015625 L 1.890625 -4.015625 L 1.890625 -0.84375 L 6.265625 -0.84375 Z M 6.265625 0 "/></g></g></g><g fill="#582308" fill-opacity="1"><g transform="translate(86.719097, 11.90067)"><g><path d="M 3.453125 -4.203125 C 1.640625 -4.617188 0.734375 -5.394531 0.734375 -6.53125 C 0.734375 -7.363281 1.023438 -7.988281 1.609375 -8.40625 C 2.191406 -8.820312 2.875 -9.03125 3.65625 -9.03125 C 5.394531 -9.03125 6.425781 -8.382812 6.75 -7.09375 L 5.75 -7.09375 C 5.582031 -7.851562 4.882812 -8.234375 3.65625 -8.234375 C 2.800781 -8.234375 2.207031 -7.984375 1.875 -7.484375 C 1.738281 -7.285156 1.671875 -7.046875 1.671875 -6.765625 C 1.671875 -6.210938 1.96875 -5.789062 2.5625 -5.5 C 2.84375 -5.34375 3.4375 -5.148438 4.34375 -4.921875 C 5.25 -4.679688 5.90625 -4.414062 6.3125 -4.125 C 6.882812 -3.726562 7.171875 -3.171875 7.171875 -2.453125 C 7.171875 -1.546875 6.816406 -0.863281 6.109375 -0.40625 C 5.515625 -0.0195312 4.78125 0.171875 3.90625 0.171875 C 1.9375 0.171875 0.796875 -0.578125 0.484375 -2.078125 L 1.5625 -2.078125 C 1.726562 -1.140625 2.507812 -0.671875 3.90625 -0.671875 C 4.90625 -0.671875 5.597656 -0.941406 5.984375 -1.484375 C 6.140625 -1.703125 6.21875 -2 6.21875 -2.375 C 6.21875 -2.738281 6.078125 -3.039062 5.796875 -3.28125 C 5.378906 -3.613281 4.597656 -3.921875 3.453125 -4.203125 Z M 3.453125 -4.203125 "/></g></g></g><g fill="#582308" fill-opacity="1"><g transform="translate(104.283533, 11.90067)"><g/></g></g><g fill="#582308" fill-opacity="1"><g transform="translate(117.870256, 11.90067)"><g><path d="M 2.421875 -3.265625 L 5.65625 -3.265625 L 4.046875 -7.359375 Z M 7.9375 0 L 6.9375 0 L 5.984375 -2.421875 L 2.078125 -2.421875 L 1.125 0 L 0.125 0 L 4.046875 -9.515625 Z M 7.9375 0 "/></g></g></g><g fill="#582308" fill-opacity="1"><g transform="translate(135.99733, 11.90067)"><g><path d="M 1.890625 -6.546875 L 1.890625 0 L 0.984375 0 L 0.984375 -9.453125 L 5.984375 -2.359375 L 5.984375 -8.890625 L 6.890625 -8.890625 L 6.890625 0.546875 Z M 1.890625 -6.546875 "/></g></g></g><g fill="#582308" fill-opacity="1"><g transform="translate(153.928129, 11.90067)"><g><path d="M 7.890625 -4.453125 C 7.890625 -3.804688 7.769531 -3.210938 7.53125 -2.671875 C 7.289062 -2.117188 6.960938 -1.644531 6.546875 -1.25 C 6.140625 -0.863281 5.65625 -0.5625 5.09375 -0.34375 C 4.539062 -0.113281 3.945312 0 3.3125 0 L 0.984375 0 L 0.984375 -8.890625 L 3.3125 -8.890625 C 3.945312 -8.890625 4.539062 -8.78125 5.09375 -8.5625 C 5.65625 -8.332031 6.140625 -8.023438 6.546875 -7.640625 C 6.960938 -7.242188 7.289062 -6.773438 7.53125 -6.234375 C 7.769531 -5.691406 7.890625 -5.097656 7.890625 -4.453125 Z M 7 -4.453125 C 7 -5.460938 6.640625 -6.304688 5.921875 -6.984375 C 5.222656 -7.648438 4.359375 -7.984375 3.328125 -7.984375 L 1.890625 -7.984375 L 1.890625 -0.921875 L 3.328125 -0.921875 C 4.359375 -0.921875 5.222656 -1.25 5.921875 -1.90625 C 6.640625 -2.582031 7 -3.429688 7 -4.453125 Z M 7 -4.453125 "/></g></g></g><g fill="#582308" fill-opacity="1"><g transform="translate(172.460826, 11.90067)"><g/></g></g><g fill="#582308" fill-opacity="1"><g transform="translate(186.04755, 11.90067)"><g><path d="M 6.78125 -2.484375 C 6.78125 -2.117188 6.703125 -1.769531 6.546875 -1.4375 C 6.378906 -1.101562 6.15625 -0.832031 5.875 -0.625 C 5.332031 -0.207031 4.609375 0 3.703125 0 L 0.984375 0 L 0.984375 -8.890625 L 3.390625 -8.890625 C 4.679688 -8.890625 5.523438 -8.488281 5.921875 -7.6875 C 6.066406 -7.40625 6.140625 -7.113281 6.140625 -6.8125 C 6.140625 -6.519531 6.113281 -6.289062 6.0625 -6.125 C 6.007812 -5.945312 5.941406 -5.78125 5.859375 -5.625 C 5.660156 -5.28125 5.40625 -5.039062 5.09375 -4.90625 C 5.613281 -4.757812 6.023438 -4.476562 6.328125 -4.0625 C 6.628906 -3.632812 6.78125 -3.109375 6.78125 -2.484375 Z M 5.21875 -6.671875 C 5.21875 -7.566406 4.609375 -8.015625 3.390625 -8.015625 L 1.890625 -8.015625 L 1.890625 -5.25 L 3.65625 -5.25 C 4.125 -5.25 4.5 -5.363281 4.78125 -5.59375 C 5.070312 -5.832031 5.21875 -6.191406 5.21875 -6.671875 Z M 5.875 -2.65625 C 5.875 -2.914062 5.828125 -3.144531 5.734375 -3.34375 C 5.628906 -3.550781 5.492188 -3.726562 5.328125 -3.875 C 4.984375 -4.175781 4.578125 -4.328125 4.109375 -4.328125 L 1.890625 -4.328125 L 1.890625 -0.875 L 3.96875 -0.875 C 4.519531 -0.875 4.972656 -1.035156 5.328125 -1.359375 C 5.691406 -1.691406 5.875 -2.125 5.875 -2.65625 Z M 5.875 -2.65625 "/></g></g></g><g fill="#582308" fill-opacity="1"><g transform="translate(203.154029, 11.90067)"><g><path d="M 1.890625 -4.390625 L 3.96875 -4.390625 C 4.476562 -4.390625 4.898438 -4.566406 5.234375 -4.921875 C 5.566406 -5.273438 5.734375 -5.710938 5.734375 -6.234375 C 5.734375 -6.753906 5.570312 -7.179688 5.25 -7.515625 C 4.9375 -7.847656 4.507812 -8.015625 3.96875 -8.015625 L 1.890625 -8.015625 Z M 6.65625 -6.21875 C 6.65625 -5.4375 6.378906 -4.789062 5.828125 -4.28125 C 5.335938 -3.820312 4.75 -3.570312 4.0625 -3.53125 L 6.796875 0 L 5.578125 0 L 2.96875 -3.515625 L 1.890625 -3.515625 L 1.890625 0 L 0.984375 0 L 0.984375 -8.890625 L 3.828125 -8.890625 C 4.617188 -8.890625 5.285156 -8.640625 5.828125 -8.140625 C 6.378906 -7.617188 6.65625 -6.976562 6.65625 -6.21875 Z M 6.65625 -6.21875 "/></g></g></g><g fill="#582308" fill-opacity="1"><g transform="translate(220.325932, 11.90067)"><g><path d="M 8.8125 -4.46875 C 8.8125 -5.476562 8.457031 -6.335938 7.75 -7.046875 C 7.03125 -7.765625 6.164062 -8.125 5.15625 -8.125 C 4.15625 -8.125 3.296875 -7.765625 2.578125 -7.046875 C 1.859375 -6.335938 1.5 -5.476562 1.5 -4.46875 C 1.5 -3.457031 1.859375 -2.597656 2.578125 -1.890625 C 3.296875 -1.171875 4.15625 -0.8125 5.15625 -0.8125 C 6.164062 -0.8125 7.03125 -1.171875 7.75 -1.890625 C 8.457031 -2.597656 8.8125 -3.457031 8.8125 -4.46875 Z M 9.734375 -4.46875 C 9.734375 -3.84375 9.613281 -3.25 9.375 -2.6875 C 9.132812 -2.132812 8.804688 -1.65625 8.390625 -1.25 C 7.972656 -0.820312 7.488281 -0.492188 6.9375 -0.265625 C 6.375 -0.015625 5.78125 0.109375 5.15625 0.109375 C 4.53125 0.109375 3.941406 -0.015625 3.390625 -0.265625 C 2.828125 -0.492188 2.34375 -0.820312 1.9375 -1.25 C 1.519531 -1.65625 1.191406 -2.132812 0.953125 -2.6875 C 0.710938 -3.25 0.59375 -3.84375 0.59375 -4.46875 C 0.59375 -5.101562 0.710938 -5.695312 0.953125 -6.25 C 1.191406 -6.8125 1.519531 -7.296875 1.9375 -7.703125 C 2.34375 -8.109375 2.828125 -8.4375 3.390625 -8.6875 C 3.941406 -8.914062 4.53125 -9.03125 5.15625 -9.03125 C 5.78125 -9.03125 6.375 -8.914062 6.9375 -8.6875 C 7.488281 -8.4375 7.972656 -8.109375 8.390625 -7.703125 C 8.804688 -7.296875 9.132812 -6.8125 9.375 -6.25 C 9.613281 -5.695312 9.734375 -5.101562 9.734375 -4.46875 Z M 9.734375 -4.46875 "/></g></g></g><g fill="#582308" fill-opacity="1"><g transform="translate(240.703544, 11.90067)"><g><path d="M 8.046875 0.71875 L 5.125 -7.015625 L 2.203125 0.71875 L 0.125 -8.890625 L 1.078125 -8.890625 L 2.453125 -2.4375 L 5.125 -9.421875 L 7.796875 -2.4375 L 9.1875 -8.890625 L 10.109375 -8.890625 Z M 8.046875 0.71875 "/></g></g></g><g fill="#582308" fill-opacity="1"><g transform="translate(261.002655, 11.90067)"><g><path d="M 3.453125 -4.203125 C 1.640625 -4.617188 0.734375 -5.394531 0.734375 -6.53125 C 0.734375 -7.363281 1.023438 -7.988281 1.609375 -8.40625 C 2.191406 -8.820312 2.875 -9.03125 3.65625 -9.03125 C 5.394531 -9.03125 6.425781 -8.382812 6.75 -7.09375 L 5.75 -7.09375 C 5.582031 -7.851562 4.882812 -8.234375 3.65625 -8.234375 C 2.800781 -8.234375 2.207031 -7.984375 1.875 -7.484375 C 1.738281 -7.285156 1.671875 -7.046875 1.671875 -6.765625 C 1.671875 -6.210938 1.96875 -5.789062 2.5625 -5.5 C 2.84375 -5.34375 3.4375 -5.148438 4.34375 -4.921875 C 5.25 -4.679688 5.90625 -4.414062 6.3125 -4.125 C 6.882812 -3.726562 7.171875 -3.171875 7.171875 -2.453125 C 7.171875 -1.546875 6.816406 -0.863281 6.109375 -0.40625 C 5.515625 -0.0195312 4.78125 0.171875 3.90625 0.171875 C 1.9375 0.171875 0.796875 -0.578125 0.484375 -2.078125 L 1.5625 -2.078125 C 1.726562 -1.140625 2.507812 -0.671875 3.90625 -0.671875 C 4.90625 -0.671875 5.597656 -0.941406 5.984375 -1.484375 C 6.140625 -1.703125 6.21875 -2 6.21875 -2.375 C 6.21875 -2.738281 6.078125 -3.039062 5.796875 -3.28125 C 5.378906 -3.613281 4.597656 -3.921875 3.453125 -4.203125 Z M 3.453125 -4.203125 "/></g></g></g></g></g></g></g></svg>