<svg xmlns="http://www.w3.org/2000/svg" xmlns:xlink="http://www.w3.org/1999/xlink" width="500" zoomAndPan="magnify" viewBox="0 0 375 374.999991" height="500" preserveAspectRatio="xMidYMid meet" version="1.0"><defs><g/><clipPath id="61ba14f8ad"><path d="M 105 0.199219 L 271 0.199219 L 271 139 L 105 139 Z M 105 0.199219 " clip-rule="nonzero"/></clipPath><clipPath id="eb0aa08d4e"><path d="M 3 0.199219 L 59 0.199219 L 59 97 L 3 97 Z M 3 0.199219 " clip-rule="nonzero"/></clipPath><clipPath id="dc06f56a5d"><path d="M 53 0.199219 L 107 0.199219 L 107 97 L 53 97 Z M 53 0.199219 " clip-rule="nonzero"/></clipPath><clipPath id="e2037fc510"><rect x="0" width="166" y="0" height="139"/></clipPath><clipPath id="e5bd31f9a6"><path d="M 0.441406 102 L 368.839844 102 L 368.839844 295 L 0.441406 295 Z M 0.441406 102 " clip-rule="nonzero"/></clipPath><clipPath id="35d2157544"><path d="M 85 0.921875 L 194 0.921875 L 194 135 L 85 135 Z M 85 0.921875 " clip-rule="nonzero"/></clipPath><clipPath id="e95eff9e63"><path d="M 193 0.921875 L 268 0.921875 L 268 137 L 193 137 Z M 193 0.921875 " clip-rule="nonzero"/></clipPath><clipPath id="7ce2f7e744"><rect x="0" width="369" y="0" height="193"/></clipPath><clipPath id="b1c9a0bfd6"><rect x="0" width="369" y="0" height="359"/></clipPath></defs><g transform="matrix(1, 0, 0, 1, 1, 13)"><g clip-path="url(#b1c9a0bfd6)"><g fill="#4c0303" fill-opacity="1"><g transform="translate(54.15241, 311.022421)"><g><path d="M 43.546875 -4.1875 C 36.347656 1.625 28.375 4.53125 19.625 4.53125 C 9.632812 4.53125 3.476562 1.742188 1.15625 -3.828125 C 0.613281 -5.148438 0.34375 -6.679688 0.34375 -8.421875 C 0.34375 -10.160156 1.234375 -12.035156 3.015625 -14.046875 C 5.804688 -17.222656 9.675781 -18.8125 14.625 -18.8125 C 17.957031 -18.8125 21.304688 -18.210938 24.671875 -17.015625 C 28.046875 -15.816406 34.03125 -12.929688 42.625 -8.359375 C 46.488281 -12.078125 50.351562 -17.03125 54.21875 -23.21875 C 58.09375 -29.414062 61.441406 -35.394531 64.265625 -41.15625 C 67.097656 -46.925781 70.546875 -53.21875 74.609375 -60.03125 C 78.671875 -66.84375 82.71875 -72.492188 86.75 -76.984375 C 78.070312 -82.171875 68.859375 -84.765625 59.109375 -84.765625 C 55.078125 -84.765625 50.972656 -84.34375 46.796875 -83.5 C 34.796875 -80.9375 25.660156 -75.707031 19.390625 -67.8125 C 15.523438 -63.019531 13.59375 -58.453125 13.59375 -54.109375 C 13.59375 -48.222656 16.414062 -44.394531 22.0625 -42.625 C 24.070312 -42.082031 25.8125 -41.8125 27.28125 -41.8125 C 28.757812 -41.8125 30.40625 -42.039062 32.21875 -42.5 C 34.039062 -42.96875 35.84375 -44.050781 37.625 -45.75 C 41.03125 -49.15625 42.847656 -52.332031 43.078125 -55.28125 C 43.160156 -55.976562 43.609375 -56.226562 44.421875 -56.03125 C 45.234375 -55.832031 45.5625 -55.234375 45.40625 -54.234375 C 44.632812 -48.578125 41.65625 -44.28125 36.46875 -41.34375 C 33.289062 -39.632812 30.113281 -38.78125 26.9375 -38.78125 L 20.90625 -39.828125 C 15.019531 -41.835938 11.148438 -45.59375 9.296875 -51.09375 C 8.515625 -53.1875 8.125 -55.273438 8.125 -57.359375 C 8.125 -61.617188 9.710938 -65.84375 12.890625 -70.03125 C 19.703125 -79.15625 31.78125 -85 49.125 -87.5625 C 52.53125 -88.019531 55.894531 -88.25 59.21875 -88.25 C 69.976562 -88.25 80.238281 -85.695312 90 -80.59375 C 93.019531 -84.070312 95.804688 -86.722656 98.359375 -88.546875 C 100.910156 -90.367188 102.960938 -91.28125 104.515625 -91.28125 C 105.367188 -91.28125 105.867188 -91.101562 106.015625 -90.75 C 106.171875 -90.40625 106.148438 -90.132812 105.953125 -89.9375 C 105.765625 -89.75 105.515625 -89.65625 105.203125 -89.65625 C 103.890625 -89.65625 102.1875 -88.257812 100.09375 -85.46875 C 98.007812 -82.675781 96.304688 -80.082031 94.984375 -77.6875 C 103.273438 -72.1875 109.585938 -65.140625 113.921875 -56.546875 C 117.398438 -49.660156 119.140625 -42.15625 119.140625 -34.03125 C 119.140625 -23.957031 116.738281 -15.941406 111.9375 -9.984375 C 107.988281 -5.109375 103.191406 -1.664062 97.546875 0.34375 C 90.804688 2.75 84.148438 3.953125 77.578125 3.953125 C 64.253906 3.953125 52.910156 1.238281 43.546875 -4.1875 Z M 46.328125 -6.265625 C 54.148438 -1.617188 63.328125 0.703125 73.859375 0.703125 C 86.085938 0.703125 95.84375 -2.78125 103.125 -9.75 C 108.925781 -15.40625 111.828125 -23.226562 111.828125 -33.21875 C 111.828125 -40.332031 110.429688 -47.023438 107.640625 -53.296875 C 104.160156 -61.273438 99.015625 -67.9375 92.203125 -73.28125 C 89.953125 -69.789062 85.632812 -62.757812 79.25 -52.1875 C 72.863281 -41.625 67.460938 -33.050781 63.046875 -26.46875 C 58.640625 -19.894531 55.15625 -15.234375 52.59375 -12.484375 C 50.039062 -9.734375 47.953125 -7.660156 46.328125 -6.265625 Z M 39.59375 -6.03125 C 30.539062 -10.375 24.8125 -12.96875 22.40625 -13.8125 C 20.007812 -14.664062 17.664062 -15.09375 15.375 -15.09375 C 13.09375 -15.09375 11.273438 -14.238281 9.921875 -12.53125 C 8.566406 -10.832031 7.890625 -9.304688 7.890625 -7.953125 C 7.890625 -6.597656 8.203125 -5.300781 8.828125 -4.0625 C 10.453125 -0.738281 13.78125 0.921875 18.8125 0.921875 C 26.238281 0.921875 33.164062 -1.394531 39.59375 -6.03125 Z M 39.59375 -6.03125 "/></g></g></g><g fill="#4c0303" fill-opacity="1"><g transform="translate(171.830868, 311.022421)"><g><path d="M 22.53125 -45.171875 C 21.445312 -44.242188 20.242188 -43.78125 18.921875 -43.78125 C 17.609375 -43.78125 16.5625 -44.242188 15.78125 -45.171875 C 15.007812 -46.097656 14.703125 -47.222656 14.859375 -48.546875 C 15.097656 -49.859375 15.757812 -50.976562 16.84375 -51.90625 C 17.925781 -52.832031 19.125 -53.296875 20.4375 -53.296875 C 21.75 -53.296875 22.8125 -52.832031 23.625 -51.90625 C 24.4375 -50.976562 24.726562 -49.851562 24.5 -48.53125 C 24.269531 -47.21875 23.613281 -46.097656 22.53125 -45.171875 Z M 11.140625 -2.5625 C 12.617188 -2.5625 14.171875 -3.296875 15.796875 -4.765625 C 18.660156 -7.628906 22.296875 -13.472656 26.703125 -22.296875 C 27.242188 -23.453125 27.785156 -23.800781 28.328125 -23.34375 C 28.484375 -23.1875 28.5625 -22.929688 28.5625 -22.578125 C 28.5625 -22.234375 28.25 -21.382812 27.625 -20.03125 C 27.007812 -18.675781 26.453125 -17.457031 25.953125 -16.375 C 25.453125 -15.289062 24.484375 -13.53125 23.046875 -11.09375 C 21.617188 -8.65625 20.320312 -6.773438 19.15625 -5.453125 C 15.988281 -1.816406 12.988281 0 10.15625 0 C 7.332031 0 5.300781 -0.847656 4.0625 -2.546875 C 2.820312 -4.253906 2.203125 -6.148438 2.203125 -8.234375 C 2.203125 -10.328125 2.707031 -12.613281 3.71875 -15.09375 L 11.140625 -34.03125 C 11.296875 -34.488281 11.375 -35.101562 11.375 -35.875 C 11.375 -36.65625 10.910156 -37.664062 9.984375 -38.90625 L 16.375 -39.015625 C 18.15625 -39.015625 19.195312 -38.6875 19.5 -38.03125 C 19.8125 -37.375 19.582031 -36.347656 18.8125 -34.953125 L 9.515625 -13.234375 C 8.203125 -10.367188 7.546875 -7.929688 7.546875 -5.921875 C 7.546875 -3.679688 8.742188 -2.5625 11.140625 -2.5625 Z M 11.140625 -2.5625 "/></g></g></g><g fill="#4c0303" fill-opacity="1"><g transform="translate(192.024232, 311.022421)"><g><path d="M 41.921875 -31.46875 C 40.523438 -30.070312 38.550781 -26.914062 36 -22 C 33.445312 -17.082031 31.914062 -13.40625 31.40625 -10.96875 C 30.90625 -8.53125 30.65625 -6.554688 30.65625 -5.046875 C 30.65625 -3.535156 31.238281 -2.78125 32.40625 -2.78125 C 33.875 -2.78125 35.691406 -4.132812 37.859375 -6.84375 C 41.035156 -10.800781 44.171875 -15.953125 47.265625 -22.296875 C 47.578125 -22.992188 47.925781 -23.378906 48.3125 -23.453125 C 48.925781 -23.691406 49.234375 -23.460938 49.234375 -22.765625 C 49.234375 -22.378906 49.117188 -21.910156 48.890625 -21.359375 C 41.765625 -6.960938 35.765625 0.234375 30.890625 0.234375 C 28.640625 0.234375 26.820312 -0.847656 25.4375 -3.015625 C 24.738281 -4.179688 24.390625 -5.726562 24.390625 -7.65625 C 24.390625 -9.59375 24.773438 -11.957031 25.546875 -14.75 C 19.347656 -4.757812 14.003906 0.234375 9.515625 0.234375 C 8.285156 0.234375 7.164062 -0.148438 6.15625 -0.921875 C 3.832031 -2.554688 2.671875 -5.347656 2.671875 -9.296875 C 2.671875 -16.878906 5.960938 -24.582031 12.546875 -32.40625 C 16.253906 -36.738281 20.820312 -39.5625 26.25 -40.875 C 27.71875 -41.257812 29.109375 -41.453125 30.421875 -41.453125 C 33.984375 -41.453125 37.003906 -40.210938 39.484375 -37.734375 C 40.253906 -36.890625 40.484375 -36.078125 40.171875 -35.296875 C 39.867188 -34.523438 39.210938 -34.21875 38.203125 -34.375 C 37.347656 -37.15625 35.488281 -38.546875 32.625 -38.546875 C 29.300781 -38.546875 25.203125 -35.914062 20.328125 -30.65625 C 17.535156 -27.5625 14.941406 -23.921875 12.546875 -19.734375 C 9.523438 -14.703125 8.015625 -10.675781 8.015625 -7.65625 C 8.015625 -4.644531 8.984375 -3.140625 10.921875 -3.140625 C 15.566406 -3.140625 21.640625 -10.257812 29.140625 -24.5 C 30.617188 -27.363281 31.859375 -29.316406 32.859375 -30.359375 C 33.867188 -31.410156 35.148438 -31.9375 36.703125 -31.9375 C 37.003906 -31.9375 37.789062 -31.816406 39.0625 -31.578125 C 40.34375 -31.347656 41.296875 -31.3125 41.921875 -31.46875 Z M 41.921875 -31.46875 "/></g></g></g><g fill="#4c0303" fill-opacity="1"><g transform="translate(232.643055, 311.022421)"><g><path d="M 22.296875 -46.5625 C 22.296875 -43.082031 20.085938 -39.796875 15.671875 -36.703125 C 17.222656 -36.617188 19.289062 -36.578125 21.875 -36.578125 C 24.46875 -36.578125 27.742188 -36.769531 31.703125 -37.15625 C 31.847656 -36.925781 31.921875 -36.304688 31.921875 -35.296875 C 31.921875 -34.296875 31.457031 -32.804688 30.53125 -30.828125 C 29.601562 -28.859375 28.769531 -27.15625 28.03125 -25.71875 C 27.300781 -24.289062 26.601562 -22.9375 25.9375 -21.65625 C 25.28125 -20.375 24.546875 -18.804688 23.734375 -16.953125 C 22.921875 -15.097656 22.242188 -13.394531 21.703125 -11.84375 C 19.773438 -5.957031 20.085938 -3.015625 22.640625 -3.015625 C 25.890625 -3.015625 30.6875 -9.476562 37.03125 -22.40625 C 37.570312 -23.414062 38.015625 -23.800781 38.359375 -23.5625 C 38.710938 -23.332031 38.890625 -23.046875 38.890625 -22.703125 C 38.890625 -22.359375 38.382812 -21.160156 37.375 -19.109375 C 36.375 -17.054688 35.289062 -14.941406 34.125 -12.765625 C 32.96875 -10.597656 31.148438 -8.082031 28.671875 -5.21875 C 25.734375 -1.664062 22.910156 0.109375 20.203125 0.109375 C 17.179688 0.109375 15.085938 -1.707031 13.921875 -5.34375 C 13.691406 -6.039062 13.578125 -7.082031 13.578125 -8.46875 C 13.578125 -9.863281 14.019531 -11.722656 14.90625 -14.046875 C 15.800781 -16.367188 17.21875 -19.191406 19.15625 -22.515625 C 21.09375 -25.847656 22.175781 -27.804688 22.40625 -28.390625 C 22.632812 -28.972656 22.75 -29.535156 22.75 -30.078125 C 22.75 -32.472656 19.65625 -33.75 13.46875 -33.90625 L 12.0625 -30.1875 C 7.1875 -17.414062 2.503906 -8.863281 -1.984375 -4.53125 C -2.753906 -3.832031 -3.140625 -4.0625 -3.140625 -5.21875 C -3.140625 -5.457031 -3.0625 -5.726562 -2.90625 -6.03125 C 1.425781 -11.757812 5.175781 -18.535156 8.34375 -26.359375 C 11.519531 -34.179688 13.726562 -41.613281 14.96875 -48.65625 C 15.4375 -51.050781 16.519531 -52.25 18.21875 -52.25 C 19.925781 -52.25 21.164062 -51.164062 21.9375 -49 C 22.175781 -48.300781 22.296875 -47.488281 22.296875 -46.5625 Z M 22.296875 -46.5625 "/></g></g></g><g fill="#4c0303" fill-opacity="1"><g transform="translate(262.817002, 311.022421)"><g><path d="M -9.40625 36.703125 C -12.8125 36.703125 -15.441406 35.984375 -17.296875 34.546875 C -19.160156 33.117188 -20.09375 31.394531 -20.09375 29.375 C -20.09375 27.363281 -19.515625 25.082031 -18.359375 22.53125 C -16.335938 18.582031 -12.695312 15.40625 -7.4375 13 C -3.488281 11.144531 1.734375 9.421875 8.234375 7.828125 C 14.742188 6.242188 18.925781 5.179688 20.78125 4.640625 C 23.5625 -0.234375 26.890625 -8.941406 30.765625 -21.484375 C 26.273438 -13.585938 22.519531 -8.050781 19.5 -4.875 C 16.476562 -1.695312 13.421875 -0.109375 10.328125 -0.109375 C 6.148438 -0.109375 3.710938 -1.851562 3.015625 -5.34375 C 2.703125 -5.882812 2.625 -6.695312 2.78125 -7.78125 C 2.9375 -8.863281 3.03125 -9.632812 3.0625 -10.09375 C 3.101562 -10.5625 3.351562 -11.316406 3.8125 -12.359375 C 4.28125 -13.410156 4.59375 -14.164062 4.75 -14.625 C 5.601562 -16.40625 6.335938 -17.800781 6.953125 -18.8125 C 5.722656 -18.8125 5.378906 -19.429688 5.921875 -20.671875 L 8 -24.734375 C 10.632812 -29.765625 12.804688 -34.023438 14.515625 -37.515625 C 15.285156 -39.140625 16.789062 -39.953125 19.03125 -39.953125 L 26.125 -39.953125 C 25.96875 -39.796875 25.578125 -39.484375 24.953125 -39.015625 C 23.566406 -38.085938 22.523438 -37.003906 21.828125 -35.765625 C 19.035156 -30.960938 15.550781 -24.113281 11.375 -15.21875 C 9.664062 -11.570312 8.8125 -8.894531 8.8125 -7.1875 C 8.8125 -5.488281 9.101562 -4.289062 9.6875 -3.59375 C 10.269531 -2.90625 11.0625 -2.5625 12.0625 -2.5625 C 13.539062 -2.5625 15.59375 -4.109375 18.21875 -7.203125 C 23.71875 -13.628906 29.796875 -23.734375 36.453125 -37.515625 C 37.304688 -39.140625 38.816406 -39.953125 40.984375 -39.953125 L 47.25 -39.953125 C 45.238281 -38.554688 43.648438 -36.789062 42.484375 -34.65625 C 41.328125 -32.53125 40.070312 -29.644531 38.71875 -26 C 37.363281 -22.363281 35.660156 -17.523438 33.609375 -11.484375 C 31.554688 -5.453125 29.988281 -0.925781 28.90625 2.09375 C 36.1875 -0.0703125 41.757812 -3.90625 45.625 -9.40625 C 47.332031 -11.800781 49.773438 -16.0625 52.953125 -22.1875 C 53.492188 -23.269531 53.972656 -23.691406 54.390625 -23.453125 C 54.816406 -23.222656 55.03125 -22.914062 55.03125 -22.53125 C 55.03125 -22.144531 54.390625 -20.65625 53.109375 -18.0625 C 51.835938 -15.46875 50.539062 -13.066406 49.21875 -10.859375 C 47.90625 -8.648438 46.203125 -6.382812 44.109375 -4.0625 C 42.023438 -1.738281 39.707031 0.0976562 37.15625 1.453125 C 34.601562 2.804688 31.195312 4.257812 26.9375 5.8125 C 20.976562 16.644531 14.976562 24.617188 8.9375 29.734375 C 3.28125 34.378906 -2.832031 36.703125 -9.40625 36.703125 Z M -16.140625 25.203125 C -16.992188 26.898438 -17.421875 28.460938 -17.421875 29.890625 C -17.421875 31.328125 -16.878906 32.429688 -15.796875 33.203125 C -14.710938 33.984375 -13.359375 34.375 -11.734375 34.375 C -7.242188 34.375 -2.445312 32.066406 2.65625 27.453125 C 7.769531 22.847656 12.265625 17.914062 16.140625 12.65625 L 18.6875 8.359375 C 5.914062 11.691406 -2.132812 14.09375 -5.46875 15.5625 C -10.414062 17.726562 -13.972656 20.941406 -16.140625 25.203125 Z M -16.140625 25.203125 "/></g></g></g><g clip-path="url(#61ba14f8ad)"><g transform="matrix(1, 0, 0, 1, 105, 0)"><g clip-path="url(#e2037fc510)"><g clip-path="url(#eb0aa08d4e)"><g fill="#4c0303" fill-opacity="1"><g transform="translate(0.822161, 96.680725)"><g><path d="M 2.53125 -64.84375 L 2.53125 -95.84375 L 3.671875 -95.84375 C 3.671875 -95.34375 3.890625 -94.90625 4.328125 -94.53125 C 4.765625 -94.15625 5.390625 -93.96875 6.203125 -93.96875 L 53.65625 -93.96875 C 54.53125 -93.96875 55.171875 -94.15625 55.578125 -94.53125 C 55.984375 -94.90625 56.1875 -95.34375 56.1875 -95.84375 L 57.328125 -95.84375 L 57.328125 -64.84375 L 56.1875 -64.84375 L 56.1875 -77.625 C 56.1875 -81.25 55.5625 -84.140625 54.3125 -86.296875 C 53.0625 -88.460938 51.492188 -90.015625 49.609375 -90.953125 C 47.734375 -91.898438 45.859375 -92.375 43.984375 -92.375 L 33.359375 -92.375 L 33.359375 -7.140625 C 33.359375 -5.453125 33.640625 -4.164062 34.203125 -3.28125 C 34.765625 -2.40625 35.421875 -1.828125 36.171875 -1.546875 C 36.929688 -1.265625 37.59375 -1.125 38.15625 -1.125 L 42.46875 -1.125 L 42.46875 0 L 17.390625 0 L 17.390625 -1.125 L 21.703125 -1.125 C 22.328125 -1.125 23 -1.265625 23.71875 -1.546875 C 24.445312 -1.828125 25.09375 -2.40625 25.65625 -3.28125 C 26.21875 -4.164062 26.5 -5.453125 26.5 -7.140625 L 26.5 -92.375 L 15.875 -92.375 C 14.0625 -92.375 12.195312 -91.898438 10.28125 -90.953125 C 8.375 -90.015625 6.796875 -88.460938 5.546875 -86.296875 C 4.296875 -84.140625 3.671875 -81.25 3.671875 -77.625 L 3.671875 -64.84375 Z M 2.53125 -64.84375 "/></g></g></g></g><g clip-path="url(#dc06f56a5d)"><g fill="#4c0303" fill-opacity="1"><g transform="translate(51.749293, 96.680725)"><g><path d="M 26.5 0 L 1.875 0 L 1.875 -1.125 L 6.203125 -1.125 C 6.828125 -1.125 7.5 -1.265625 8.21875 -1.546875 C 8.9375 -1.828125 9.578125 -2.40625 10.140625 -3.28125 C 10.710938 -4.164062 11 -5.453125 11 -7.140625 L 11 -82.78125 C 11 -83.46875 10.9375 -84.234375 10.8125 -85.078125 C 10.6875 -85.929688 10.289062 -86.671875 9.625 -87.296875 C 8.96875 -87.921875 7.828125 -88.234375 6.203125 -88.234375 L 6.203125 -89.359375 C 9.523438 -89.359375 12.03125 -90.09375 13.71875 -91.5625 C 15.40625 -93.039062 16.25 -94.46875 16.25 -95.84375 L 17.390625 -95.84375 L 17.390625 -44.171875 C 19.015625 -48.617188 21.34375 -52 24.375 -54.3125 C 27.414062 -56.632812 30.472656 -57.796875 33.546875 -57.796875 C 36.554688 -57.796875 38.96875 -57.164062 40.78125 -55.90625 C 42.59375 -54.65625 43.90625 -52.992188 44.71875 -50.921875 C 45.539062 -48.859375 45.953125 -46.578125 45.953125 -44.078125 L 45.953125 -7.140625 C 45.953125 -5.453125 46.234375 -4.164062 46.796875 -3.28125 C 47.359375 -2.40625 48.015625 -1.828125 48.765625 -1.546875 C 49.515625 -1.265625 50.175781 -1.125 50.75 -1.125 L 55.0625 -1.125 L 55.0625 0 L 30.453125 0 L 30.453125 -1.125 L 34.765625 -1.125 C 35.390625 -1.125 36.0625 -1.265625 36.78125 -1.546875 C 37.507812 -1.828125 38.15625 -2.40625 38.71875 -3.28125 C 39.28125 -4.164062 39.5625 -5.453125 39.5625 -7.140625 L 39.5625 -46.703125 C 39.5625 -47.203125 39.546875 -47.984375 39.515625 -49.046875 C 39.484375 -50.117188 39.3125 -51.21875 39 -52.34375 C 38.6875 -53.46875 38.070312 -54.4375 37.15625 -55.25 C 36.25 -56.0625 34.953125 -56.46875 33.265625 -56.46875 C 30.816406 -56.46875 28.539062 -55.75 26.4375 -54.3125 C 24.34375 -52.875 22.53125 -50.976562 21 -48.625 C 19.46875 -46.28125 18.265625 -43.757812 17.390625 -41.0625 L 17.390625 -7.140625 C 17.390625 -5.453125 17.671875 -4.164062 18.234375 -3.28125 C 18.796875 -2.40625 19.453125 -1.828125 20.203125 -1.546875 C 20.953125 -1.265625 21.609375 -1.125 22.171875 -1.125 L 26.5 -1.125 Z M 26.5 0 "/></g></g></g></g><g fill="#4c0303" fill-opacity="1"><g transform="translate(98.823927, 96.680725)"><g><path d="M 34.484375 1.875 C 28.535156 1.875 23.320312 0.640625 18.84375 -1.828125 C 14.363281 -4.304688 10.882812 -7.785156 8.40625 -12.265625 C 5.9375 -16.742188 4.703125 -21.957031 4.703125 -27.90625 C 4.703125 -33.851562 5.9375 -39.066406 8.40625 -43.546875 C 10.882812 -48.023438 14.363281 -51.503906 18.84375 -53.984375 C 23.320312 -56.460938 28.535156 -57.703125 34.484375 -57.703125 C 39.304688 -57.703125 43.285156 -56.992188 46.421875 -55.578125 C 49.554688 -54.171875 52.03125 -52.429688 53.84375 -50.359375 C 55.65625 -48.296875 56.984375 -46.226562 57.828125 -44.15625 C 58.679688 -42.09375 59.234375 -40.351562 59.484375 -38.9375 C 59.734375 -37.53125 59.859375 -36.828125 59.859375 -36.828125 L 9.859375 -36.828125 C 9.734375 -36.015625 9.625 -35.21875 9.53125 -34.4375 C 9.4375 -33.65625 9.390625 -32.828125 9.390625 -31.953125 C 9.390625 -26.503906 10.59375 -21.570312 13 -17.15625 C 15.414062 -12.738281 18.832031 -9.210938 23.25 -6.578125 C 27.664062 -3.941406 32.851562 -2.625 38.8125 -2.625 C 43.632812 -2.625 47.859375 -3.65625 51.484375 -5.71875 C 55.117188 -7.789062 57.96875 -10.722656 60.03125 -14.515625 C 62.101562 -18.304688 63.140625 -22.769531 63.140625 -27.90625 L 64.28125 -27.90625 C 64.28125 -21.957031 63.039062 -16.742188 60.5625 -12.265625 C 58.082031 -7.785156 54.601562 -4.304688 50.125 -1.828125 C 45.644531 0.640625 40.429688 1.875 34.484375 1.875 Z M 10.046875 -37.96875 L 53.46875 -37.96875 C 53.40625 -41.59375 52.382812 -44.800781 50.40625 -47.59375 C 48.4375 -50.382812 45.898438 -52.578125 42.796875 -54.171875 C 39.703125 -55.765625 36.398438 -56.5625 32.890625 -56.5625 C 29.191406 -56.5625 25.757812 -55.75 22.59375 -54.125 C 19.4375 -52.5 16.773438 -50.289062 14.609375 -47.5 C 12.453125 -44.707031 10.929688 -41.53125 10.046875 -37.96875 Z M 10.046875 -37.96875 "/></g></g></g></g></g></g><g clip-path="url(#e5bd31f9a6)"><g transform="matrix(1, 0, 0, 1, -0.000000000000000222, 102)"><g clip-path="url(#7ce2f7e744)"><g fill="#4c0303" fill-opacity="1"><g transform="translate(1.120656, 134.075895)"><g><path d="M 3.921875 -130.5 L 38.765625 -130.5 L 38.765625 -128.9375 L 32.75 -128.9375 C 31.96875 -128.9375 31.054688 -128.738281 30.015625 -128.34375 C 28.972656 -127.957031 28.054688 -127.175781 27.265625 -126 C 26.484375 -124.820312 26.09375 -123.015625 26.09375 -120.578125 L 26.09375 -1.5625 L 51.546875 -1.5625 C 56.765625 -1.5625 61.304688 -2.492188 65.171875 -4.359375 C 69.046875 -6.234375 72.332031 -8.691406 75.03125 -11.734375 C 77.726562 -14.785156 79.945312 -18.113281 81.6875 -21.71875 C 83.425781 -25.332031 84.816406 -28.898438 85.859375 -32.421875 C 86.910156 -35.953125 87.71875 -39.171875 88.28125 -42.078125 C 88.84375 -44.992188 89.300781 -47.191406 89.65625 -48.671875 L 91.09375 -48.671875 L 82.21875 2.609375 L 80.515625 2.609375 C 80.691406 1.828125 80.539062 1.195312 80.0625 0.71875 C 79.582031 0.238281 78.515625 0 76.859375 0 L 3.921875 0 L 3.921875 -1.5625 L 9.921875 -1.5625 C 10.785156 -1.5625 11.71875 -1.753906 12.71875 -2.140625 C 13.71875 -2.535156 14.609375 -3.34375 15.390625 -4.5625 C 16.179688 -5.78125 16.578125 -7.566406 16.578125 -9.921875 L 16.578125 -120.578125 C 16.578125 -123.015625 16.179688 -124.820312 15.390625 -126 C 14.609375 -127.175781 13.71875 -127.957031 12.71875 -128.34375 C 11.71875 -128.738281 10.785156 -128.9375 9.921875 -128.9375 L 3.921875 -128.9375 Z M 3.921875 -130.5 "/></g></g></g><g clip-path="url(#35d2157544)"><g fill="#4c0303" fill-opacity="1"><g transform="translate(81.114172, 134.075895)"><g><path d="M 3.921875 -1.5625 L 8.609375 -1.5625 C 10.867188 -1.5625 12.800781 -2.253906 14.40625 -3.640625 C 16.019531 -5.035156 17.394531 -6.710938 18.53125 -8.671875 C 19.664062 -10.628906 20.578125 -12.4375 21.265625 -14.09375 C 21.523438 -14.695312 22.15625 -16.585938 23.15625 -19.765625 C 24.164062 -22.941406 25.453125 -27.070312 27.015625 -32.15625 C 28.578125 -37.25 30.316406 -42.945312 32.234375 -49.25 C 34.148438 -55.5625 36.148438 -62.109375 38.234375 -68.890625 C 40.328125 -75.679688 42.375 -82.425781 44.375 -89.125 C 46.375 -95.832031 48.265625 -102.117188 50.046875 -107.984375 C 51.828125 -113.859375 53.390625 -118.96875 54.734375 -123.3125 C 56.085938 -127.664062 57.070312 -130.929688 57.6875 -133.109375 L 59.25 -133.109375 C 59.945312 -130.929688 60.945312 -127.664062 62.25 -123.3125 C 63.550781 -118.96875 65.070312 -113.859375 66.8125 -107.984375 C 68.550781 -102.117188 70.421875 -95.832031 72.421875 -89.125 C 74.421875 -82.425781 76.441406 -75.679688 78.484375 -68.890625 C 80.535156 -62.109375 82.515625 -55.5625 84.421875 -49.25 C 86.335938 -42.945312 88.078125 -37.25 89.640625 -32.15625 C 91.210938 -27.070312 92.5 -22.941406 93.5 -19.765625 C 94.5 -16.585938 95.128906 -14.695312 95.390625 -14.09375 C 96.171875 -12.4375 97.101562 -10.628906 98.1875 -8.671875 C 99.28125 -6.710938 100.628906 -5.035156 102.234375 -3.640625 C 103.847656 -2.253906 105.785156 -1.5625 108.046875 -1.5625 L 112.75 -1.5625 L 112.75 0 L 77.78125 0 L 77.78125 -1.4375 L 83.78125 -1.4375 C 84.738281 -1.4375 85.695312 -1.585938 86.65625 -1.890625 C 87.613281 -2.191406 88.09375 -3.171875 88.09375 -4.828125 C 88.09375 -5.785156 87.394531 -8.828125 86 -13.953125 C 84.601562 -19.085938 82.820312 -25.3125 80.65625 -32.625 L 30.015625 -32.625 C 28.878906 -28.101562 28.003906 -23.992188 27.390625 -20.296875 C 26.785156 -16.597656 26.484375 -13.617188 26.484375 -11.359375 C 26.484375 -7.703125 27.441406 -5.132812 29.359375 -3.65625 C 31.273438 -2.175781 33.320312 -1.4375 35.5 -1.4375 L 41.375 -1.4375 L 41.375 0 L 3.921875 0 Z M 42.671875 -77 C 40.410156 -69.769531 38.191406 -62.4375 36.015625 -55 C 33.835938 -47.5625 31.96875 -40.625 30.40625 -34.1875 L 80.125 -34.1875 C 78.46875 -39.84375 76.679688 -45.800781 74.765625 -52.0625 C 72.859375 -58.332031 70.945312 -64.617188 69.03125 -70.921875 C 67.113281 -77.234375 65.265625 -83.21875 63.484375 -88.875 C 61.703125 -94.53125 60.113281 -99.550781 58.71875 -103.9375 C 57.332031 -108.332031 56.242188 -111.8125 55.453125 -114.375 C 54.671875 -116.945312 54.28125 -118.234375 54.28125 -118.234375 L 54.8125 -116.671875 C 53.59375 -112.398438 51.894531 -106.738281 49.71875 -99.6875 C 47.539062 -92.644531 45.191406 -85.082031 42.671875 -77 Z M 42.671875 -77 "/></g></g></g></g><g clip-path="url(#e95eff9e63)"><g fill="#4c0303" fill-opacity="1"><g transform="translate(185.380044, 134.075895)"><g><path d="M 72.953125 -31.1875 C 72.953125 -36.320312 71.773438 -40.710938 69.421875 -44.359375 C 67.078125 -48.015625 63.96875 -51.210938 60.09375 -53.953125 C 56.21875 -56.703125 51.972656 -59.25 47.359375 -61.59375 C 42.753906 -63.945312 38.125 -66.382812 33.46875 -68.90625 C 28.8125 -71.425781 24.546875 -74.273438 20.671875 -77.453125 C 16.804688 -80.628906 13.695312 -84.410156 11.34375 -88.796875 C 9 -93.191406 7.828125 -98.476562 7.828125 -104.65625 C 7.828125 -110.925781 9.4375 -116.171875 12.65625 -120.390625 C 15.875 -124.609375 20.113281 -127.78125 25.375 -129.90625 C 30.644531 -132.039062 36.410156 -133.109375 42.671875 -133.109375 C 46.847656 -133.109375 50.414062 -132.820312 53.375 -132.25 C 56.332031 -131.6875 58.875 -131.054688 61 -130.359375 C 63.132812 -129.671875 65.113281 -129.039062 66.9375 -128.46875 C 68.769531 -127.90625 70.644531 -127.625 72.5625 -127.625 C 73.945312 -127.625 75.378906 -127.925781 76.859375 -128.53125 C 78.335938 -129.144531 79.6875 -130.671875 80.90625 -133.109375 L 82.21875 -133.109375 L 58.46875 -66.6875 C 62.644531 -64.25 66.445312 -61.460938 69.875 -58.328125 C 73.3125 -55.203125 76.050781 -51.460938 78.09375 -47.109375 C 80.144531 -42.753906 81.171875 -37.535156 81.171875 -31.453125 C 81.171875 -25.359375 79.800781 -19.722656 77.0625 -14.546875 C 74.320312 -9.367188 70.207031 -5.210938 64.71875 -2.078125 C 59.238281 1.046875 52.367188 2.609375 44.109375 2.609375 C 37.929688 2.609375 32.664062 2.148438 28.3125 1.234375 C 23.96875 0.328125 20.140625 -0.125 16.828125 -0.125 C 15.179688 -0.125 13.75 0.0664062 12.53125 0.453125 C 11.3125 0.847656 10.265625 1.523438 9.390625 2.484375 L 7.828125 2.484375 L 7.828125 -65.375 L 9.390625 -65.375 L 9.390625 -33.015625 C 9.390625 -26.140625 10.320312 -20.484375 12.1875 -16.046875 C 14.0625 -11.609375 16.628906 -8.148438 19.890625 -5.671875 C 23.160156 -3.191406 26.882812 -1.453125 31.0625 -0.453125 C 35.238281 0.546875 39.585938 1.046875 44.109375 1.046875 C 49.410156 1.046875 54.238281 -0.125 58.59375 -2.46875 C 62.945312 -4.820312 66.425781 -8.390625 69.03125 -13.171875 C 71.644531 -17.960938 72.953125 -23.96875 72.953125 -31.1875 Z M 42.671875 -131.546875 C 37.191406 -131.546875 32.6875 -130.71875 29.15625 -129.0625 C 25.632812 -127.40625 22.894531 -125.359375 20.9375 -122.921875 C 18.988281 -120.492188 17.617188 -117.972656 16.828125 -115.359375 C 16.046875 -112.753906 15.65625 -110.453125 15.65625 -108.453125 C 15.65625 -102.535156 16.914062 -97.550781 19.4375 -93.5 C 21.96875 -89.457031 25.296875 -85.976562 29.421875 -83.0625 C 33.554688 -80.144531 38.035156 -77.46875 42.859375 -75.03125 C 47.691406 -72.601562 52.457031 -70.039062 57.15625 -67.34375 C 58.632812 -71.519531 60.265625 -76 62.046875 -80.78125 C 63.835938 -85.5625 65.425781 -90.34375 66.8125 -95.125 C 68.207031 -99.914062 69.035156 -104.484375 69.296875 -108.828125 C 69.554688 -113.179688 68.945312 -117.078125 67.46875 -120.515625 C 65.988281 -123.953125 63.289062 -126.648438 59.375 -128.609375 C 55.457031 -130.566406 49.890625 -131.546875 42.671875 -131.546875 Z M 42.671875 -131.546875 "/></g></g></g></g><g fill="#4c0303" fill-opacity="1"><g transform="translate(263.024607, 134.075895)"><g><path d="M 3.921875 -1.5625 L 9.921875 -1.5625 C 10.785156 -1.5625 11.71875 -1.753906 12.71875 -2.140625 C 13.71875 -2.535156 14.609375 -3.34375 15.390625 -4.5625 C 16.179688 -5.78125 16.578125 -7.566406 16.578125 -9.921875 L 16.578125 -120.578125 C 16.578125 -123.015625 16.179688 -124.820312 15.390625 -126 C 14.609375 -127.175781 13.71875 -127.957031 12.71875 -128.34375 C 11.71875 -128.738281 10.785156 -128.9375 9.921875 -128.9375 L 3.921875 -128.9375 L 3.921875 -130.5 L 38.765625 -130.5 L 38.765625 -128.9375 L 32.75 -128.9375 C 31.96875 -128.9375 31.054688 -128.738281 30.015625 -128.34375 C 28.972656 -127.957031 28.054688 -127.175781 27.265625 -126 C 26.484375 -124.820312 26.09375 -123.015625 26.09375 -120.578125 L 26.09375 -84.296875 L 82.734375 -84.296875 L 82.734375 -120.578125 C 82.734375 -123.015625 82.34375 -124.820312 81.5625 -126 C 80.78125 -127.175781 79.890625 -127.957031 78.890625 -128.34375 C 77.890625 -128.738281 76.953125 -128.9375 76.078125 -128.9375 L 70.078125 -128.9375 L 70.078125 -130.5 L 104.921875 -130.5 L 104.921875 -128.9375 L 98.921875 -128.9375 C 98.140625 -128.9375 97.222656 -128.738281 96.171875 -128.34375 C 95.128906 -127.957031 94.21875 -127.175781 93.4375 -126 C 92.65625 -124.820312 92.265625 -123.015625 92.265625 -120.578125 L 92.265625 -9.921875 C 92.265625 -7.566406 92.65625 -5.78125 93.4375 -4.5625 C 94.21875 -3.34375 95.128906 -2.535156 96.171875 -2.140625 C 97.222656 -1.753906 98.140625 -1.5625 98.921875 -1.5625 L 104.921875 -1.5625 L 104.921875 0 L 70.078125 0 L 70.078125 -1.5625 L 76.078125 -1.5625 C 76.953125 -1.5625 77.890625 -1.753906 78.890625 -2.140625 C 79.890625 -2.535156 80.78125 -3.34375 81.5625 -4.5625 C 82.34375 -5.78125 82.734375 -7.566406 82.734375 -9.921875 L 82.734375 -82.609375 L 26.09375 -82.609375 L 26.09375 -9.921875 C 26.09375 -7.566406 26.484375 -5.78125 27.265625 -4.5625 C 28.054688 -3.34375 28.972656 -2.535156 30.015625 -2.140625 C 31.054688 -1.753906 31.96875 -1.5625 32.75 -1.5625 L 38.765625 -1.5625 L 38.765625 0 L 3.921875 0 Z M 3.921875 -1.5625 "/></g></g></g></g></g></g></g></g></svg>